  0
SECTION
  2
HEADER
  9
$ACADVER
  1
AC1009
  9
$INSBASE
 10
0.0
 20
0.0
 30
0.0
  9
$EXTMIN
 10
0.0
 20
0.0
  9
$EXTMAX
 10
0.0
 20
0.0
  0
ENDSEC
  0
SECTION
  2
TABLES
  0
TABLE
  2
LTYPE
 70
1
  0
LTYPE
  2
CONTINUOUS
 70
64
  3
Solid line
 72
65
 73
0
 40
0.0
  0
ENDTAB
  0
TABLE
  2
LAYER
 70
1
  0
LAYER
  2
PYDXF
 70
64
 62
7
  6
continuous
  0
ENDTAB
  0
TABLE
  2
STYLE
 70
2
  0
STYLE
  2
STANDARD
 70
0
 40
0
 41
40
 50
50
 71
0
 42
1
 3
ARIAL.TTF
 4

  0
STYLE
  2
STANDARD
 70
0
 40
0
 41
40
 50
50
 71
0
 42
1
 3
ARIAL.TTF
 4

  0
ENDTAB
  0
TABLE
  2
VIEW
 70
2
  0
VIEW
  2
Normal
 70
0
 40
1
 10
0.5
 20
0.5
 41
1
 11
0
 21
0
 31
1
 12
0
 22
0
 32
0
 42
50
 43
0
 44
0
 50
0
 71
0
  0
VIEW
  2
Window
 70
0
 40
1
 10
1.5
 20
0.5
 41
1
 11
0
 21
0
 31
1
 12
0
 22
0
 32
0
 42
50
 43
0
 44
0
 50
0
 71
0
  0
ENDTAB
  0
ENDSEC
  0
SECTION
  2
BLOCKS
  0
ENDSEC
  0
SECTION
  2
ENTITIES
  0
LINE
  8
0
 10
-1.90096700191
 20
0.00249299989082
 30
-0.405120998621
 11
-1.92248296738
 21
0.00590099999681
 31
-0.44020101428
  0
LINE
  8
0
 10
-1.92249202728
 20
-0.00089000002481
 30
-0.44020101428
 11
-1.92248296738
 21
0.00590099999681
 31
-0.44020101428
  0
LINE
  8
0
 10
-1.92249202728
 20
-0.00089000002481
 30
-0.44020101428
 11
-1.90096700191
 21
0.00249299989082
 31
-0.405120998621
  0
LINE
  8
0
 10
-1.75835800171
 20
-0.0252080000937
 30
-0.44020101428
 11
-1.57795894146
 21
-0.028920000419
 31
-0.461436986923
  0
LINE
  8
0
 10
-0.445463001728
 20
-0.173898994923
 30
-0.441139012575
 11
-0.450410991907
 21
-0.189438000321
 31
-0.405333995819
  0
LINE
  8
0
 10
-0.445463001728
 20
-0.173898994923
 30
-0.441139012575
 11
-0.418280005455
 21
-0.1816650033
 31
-0.425897985697
  0
LINE
  8
0
 10
-0.276740014553
 20
-0.219460994005
 30
-0.435680985451
 11
-0.392778009176
 21
-0.192204996943
 31
-0.392488986254
  0
LINE
  8
0
 10
-0.450410991907
 20
-0.189438000321
 30
-0.405333995819
 11
-0.392778009176
 21
-0.192204996943
 31
-0.392488986254
  0
LINE
  8
0
 10
-0.276740014553
 20
-0.219460994005
 30
-0.435680985451
 11
-0.450410991907
 21
-0.189438000321
 31
-0.405333995819
  0
LINE
  8
0
 10
0.849431991577
 20
-0.202981993556
 30
-0.330000013113
 11
0.849443972111
 21
-0.193746000528
 31
-0.407965987921
  0
LINE
  8
0
 10
0.849443972111
 20
-0.193746000528
 30
-0.407965987921
 11
0.796734988689
 21
-0.194703996181
 31
-0.392477989197
  0
LINE
  8
0
 10
0.849443972111
 20
-0.193746000528
 30
-0.407965987921
 11
0.822266995907
 21
-0.184272006154
 31
-0.42588698864
  0
LINE
  8
0
 10
0.849461972713
 20
-0.179079994559
 30
-0.441105008125
 11
0.822266995907
 21
-0.184272006154
 31
-0.42588698864
  0
LINE
  8
0
 10
0.680212974548
 20
-0.225482001901
 30
-0.435647010803
 11
0.849443972111
 21
-0.193746000528
 31
-0.407965987921
  0
LINE
  8
0
 10
-0.276740014553
 20
-0.219460994005
 30
-0.435680985451
 11
-0.418280005455
 21
-0.1816650033
 31
-0.425897985697
  0
LINE
  8
0
 10
-0.450410991907
 20
-0.189438000321
 30
-0.405333995819
 11
-0.418280005455
 21
-0.1816650033
 31
-0.425897985697
  0
LINE
  8
0
 10
0.850673019886
 20
-0.000592999975197
 30
-0.474671006203
 11
1.20642602444
 21
-0.00104400003329
 31
-0.474662989378
  0
LINE
  8
0
 10
1.2286670208
 20
-0.0363590009511
 30
-0.442934006453
 11
1.20642602444
 21
-0.00104400003329
 31
-0.474662989378
  0
LINE
  8
0
 10
1.49794602394
 20
-0.19951300323
 30
-0.184651002288
 11
1.5336149931
 21
-0.201490998268
 31
-0.209905996919
  0
LINE
  8
0
 10
1.53410494328
 20
0.198487997055
 30
-0.209905996919
 11
1.49843895435
 21
0.196638002992
 31
-0.184651002288
  0
LINE
  8
0
 10
1.53410494328
 20
0.198487997055
 30
-0.209905996919
 11
1.54717195034
 21
0.190171003342
 31
-0.2479069978
  0
LINE
  8
0
 10
1.49843895435
 20
0.196638002992
 30
-0.184651002288
 11
1.54717195034
 21
0.190171003342
 31
-0.2479069978
  0
LINE
  8
0
 10
1.20642602444
 20
-0.00104400003329
 30
-0.474662989378
 11
1.22875595093
 21
0.0342219993472
 31
-0.442934006453
  0
LINE
  8
0
 10
0.850673019886
 20
-0.000592999975197
 30
-0.474671006203
 11
1.22875595093
 21
0.0342219993472
 31
-0.442934006453
  0
LINE
  8
0
 10
-0.449930012226
 20
0.190950006247
 30
-0.405333995819
 11
-0.276183009148
 21
0.220586001873
 31
-0.435680985451
  0
LINE
  8
0
 10
-0.417818009853
 20
0.183105006814
 30
-0.425897985697
 11
-0.276183009148
 21
0.220586001873
 31
-0.435680985451
  0
LINE
  8
0
 10
-0.417818009853
 20
0.183105006814
 30
-0.425897985697
 11
-0.449930012226
 21
0.190950006247
 31
-0.405333995819
  0
LINE
  8
0
 10
0.849933028221
 20
0.192562997341
 30
-0.407965987921
 11
0.680783987045
 21
0.224674999714
 31
-0.435647010803
  0
LINE
  8
0
 10
0.797226011753
 20
0.193637996912
 30
-0.392477989197
 11
0.680783987045
 21
0.224674999714
 31
-0.435647010803
  0
LINE
  8
0
 10
0.797226011753
 20
0.193637996912
 30
-0.392477989197
 11
0.849933028221
 21
0.192562997341
 31
-0.407965987921
  0
LINE
  8
0
 10
0.82273298502
 20
0.183148995042
 30
-0.42588698864
 11
0.849933028221
 21
0.192562997341
 31
-0.407965987921
  0
LINE
  8
0
 10
0.82273298502
 20
0.183148995042
 30
-0.42588698864
 11
0.680783987045
 21
0.224674999714
 31
-0.435647010803
  0
LINE
  8
0
 10
0.82273298502
 20
0.183148995042
 30
-0.42588698864
 11
0.849915027618
 21
0.177897006273
 31
-0.441105008125
  0
LINE
  8
0
 10
0.797226011753
 20
0.193637996912
 30
-0.392477989197
 11
0.849945008755
 21
0.201798006892
 31
-0.330000013113
  0
LINE
  8
0
 10
-0.392289012671
 20
0.193588003516
 30
-0.392488986254
 11
-0.449930012226
 21
0.190950006247
 31
-0.405333995819
  0
LINE
  8
0
 10
-0.449930012226
 20
0.190950006247
 30
-0.405333995819
 11
-0.444990009069
 21
0.199310004711
 31
-0.330033987761
  0
LINE
  8
0
 10
-0.392289012671
 20
0.193588003516
 30
-0.392488986254
 11
-0.444990009069
 21
0.199310004711
 31
-0.330033987761
  0
LINE
  8
0
 10
-1.57788097858
 20
0.0331449992955
 30
-0.461436986923
 11
-1.75828802586
 21
0.0298350006342
 31
-0.44020101428
  0
LINE
  8
0
 10
-1.57809102535
 20
0.0458209998906
 30
-0.44109800458
 11
-1.75828802586
 21
0.0298350006342
 31
-0.44020101428
  0
LINE
  8
0
 10
-1.57788097858
 20
0.0331449992955
 30
-0.461436986923
 11
-1.57809102535
 21
0.0458209998906
 31
-0.44109800458
  0
LINE
  8
0
 10
-0.780924022198
 20
0.201912000775
 30
-0.0948769971728
 11
-0.772283017635
 21
0.170846000314
 31
-0.065053999424
  0
LINE
  8
0
 10
-0.78143197298
 20
-0.199459001422
 30
-0.0948769971728
 11
-0.741719007492
 21
-0.200580000877
 31
-0.0657489970326
  0
LINE
  8
0
 10
-0.772711992264
 20
-0.168403998017
 30
-0.065053999424
 11
-0.78143197298
 21
-0.199459001422
 31
-0.0948769971728
  0
LINE
  8
0
 10
-0.0462159998715
 20
-0.11657500267
 30
-0.0735099986196
 11
-0.014414999634
 21
-0.0647130012512
 31
0.153017997742
  0
LINE
  8
0
 10
-0.014414999634
 20
-0.0647130012512
 30
0.153017997742
 11
0.0219930000603
 21
-0.074242003262
 31
0.152201995254
  0
LINE
  8
0
 10
-0.0771000012755
 20
0.0862729996443
 30
-0.0728140026331
 11
-0.0336209982634
 21
0.0499560013413
 31
0.153449997306
  0
LINE
  8
0
 10
-0.0771000012755
 20
0.0862729996443
 30
-0.0728140026331
 11
-0.0525109991431
 21
0.00050199998077
 31
0.153872996569
  0
LINE
  8
0
 10
0.0848710015416
 20
0.118431001902
 30
-0.0764430016279
 11
0.0582479983568
 21
0.0655509978533
 31
0.151391997933
  0
LINE
  8
0
 10
0.0848710015416
 20
0.118431001902
 30
-0.0764430016279
 11
0.0221159998327
 21
0.0749270021915
 31
0.152201995254
  0
LINE
  8
0
 10
0.0582479983568
 20
0.0655509978533
 30
0.151391997933
 11
0.0221159998327
 21
0.0749270021915
 31
0.152201995254
  0
LINE
  8
0
 10
0.0772380009294
 20
-0.0498180016875
 30
0.150965005159
 11
0.0966200008988
 21
0.000182999996468
 31
0.150530993938
  0
LINE
  8
0
 10
-0.108122996986
 20
-0.112675003707
 30
-0.0726850032806
 11
-0.0462159998715
 21
-0.11657500267
 31
-0.0735099986196
  0
LINE
  8
0
 10
-0.0772410035133
 20
-0.0851719975471
 30
-0.0728140026331
 11
-0.0462159998715
 21
-0.11657500267
 31
-0.0735099986196
  0
LINE
  8
0
 10
-0.0772410035133
 20
-0.0851719975471
 30
-0.0728140026331
 11
-0.108122996986
 21
-0.112675003707
 31
-0.0726850032806
  0
LINE
  8
0
 10
-0.107937000692
 20
0.113830000162
 30
-0.0726850032806
 11
-0.0771000012755
 21
0.0862729996443
 31
-0.0728140026331
  0
LINE
  8
0
 10
-0.0460230000317
 20
0.117544002831
 30
-0.0735099986196
 11
-0.107937000692
 21
0.113830000162
 31
-0.0726850032806
  0
LINE
  8
0
 10
0.115897998214
 20
0.0875800028443
 30
-0.0771389976144
 11
0.146790996194
 21
0.11518599838
 31
-0.0772679969668
  0
LINE
  8
0
 10
0.0846780017018
 20
-0.118020996451
 30
-0.0764430016279
 11
0.115754000843
 21
-0.0873029977083
 31
-0.0771389976144
  0
LINE
  8
0
 10
0.0846780017018
 20
-0.118020996451
 30
-0.0764430016279
 11
0.146602004766
 21
-0.114963002503
 31
-0.0772679969668
  0
LINE
  8
0
 10
0.0773930028081
 20
0.0503319986165
 30
0.150962993503
 11
0.0966200008988
 21
0.000182999996468
 31
0.150530993938
  0
LINE
  8
0
 10
0.115897998214
 20
0.0875800028443
 30
-0.0771389976144
 11
0.0966200008988
 21
0.000182999996468
 31
0.150530993938
  0
LINE
  8
0
 10
0.115754000843
 20
-0.0873029977083
 30
-0.0771389976144
 11
0.0966200008988
 21
0.000182999996468
 31
0.150530993938
  0
LINE
  8
0
 10
-0.0142660001293
 20
0.0654800012708
 30
0.153016999364
 11
0.0221159998327
 21
0.0749270021915
 31
0.152201995254
  0
LINE
  8
0
 10
-0.0460230000317
 20
0.117544002831
 30
-0.0735099986196
 11
0.0221159998327
 21
0.0749270021915
 31
0.152201995254
  0
LINE
  8
0
 10
-0.0460230000317
 20
0.117544002831
 30
-0.0735099986196
 11
-0.0142660001293
 21
0.0654800012708
 31
0.153016999364
  0
LINE
  8
0
 10
0.0846780017018
 20
-0.118020996451
 30
-0.0764430016279
 11
0.0219930000603
 21
-0.074242003262
 31
0.152201995254
  0
LINE
  8
0
 10
-0.0462159998715
 20
-0.11657500267
 30
-0.0735099986196
 11
0.0219930000603
 21
-0.074242003262
 31
0.152201995254
  0
LINE
  8
0
 10
0.0581009984016
 20
-0.0649480000138
 30
0.151392996311
 11
0.0219930000603
 21
-0.074242003262
 31
0.152201995254
  0
LINE
  8
0
 10
0.0846780017018
 20
-0.118020996451
 30
-0.0764430016279
 11
0.0581009984016
 21
-0.0649480000138
 31
0.151392996311
  0
LINE
  8
0
 10
-0.0772410035133
 20
-0.0851719975471
 30
-0.0728140026331
 11
-0.0337750017643
 21
-0.0490970015526
 31
0.153451994061
  0
LINE
  8
0
 10
-0.0772410035133
 20
-0.0851719975471
 30
-0.0728140026331
 11
-0.0525109991431
 21
0.00050199998077
 31
0.153872996569
  0
LINE
  8
0
 10
0.0737090036273
 20
0.000311999989208
 30
0.561433970928
 11
0.0737629979849
 21
0.0121959997341
 31
0.279994010925
  0
LINE
  8
0
 10
0.0796260014176
 20
0.0106750000268
 30
0.279994010925
 11
0.0824009999633
 21
0.00846800021827
 31
0.279994010925
  0
LINE
  8
0
 10
0.0737090036273
 20
0.000311999989208
 30
0.561433970928
 11
0.0796260014176
 21
0.0106750000268
 31
0.279994010925
  0
LINE
  8
0
 10
0.0737090036273
 20
0.000311999989208
 30
0.561433970928
 11
0.0855379998684
 21
0.000285999994958
 31
0.279994010925
  0
LINE
  8
0
 10
0.0737090036273
 20
0.000311999989208
 30
0.561433970928
 11
0.0824009999633
 21
0.00846800021827
 31
0.279994010925
  0
LINE
  8
0
 10
0.0737090036273
 20
0.000311999989208
 30
0.561433970928
 11
0.0823760032654
 21
-0.0078710000962
 31
0.279994010925
  0
LINE
  8
0
 10
0.0823760032654
 20
-0.0078710000962
 30
0.279994010925
 11
0.0855379998684
 21
0.000285999994958
 31
0.279994010925
  0
LINE
  8
0
 10
0.0737090036273
 20
0.000311999989208
 30
0.561433970928
 11
0.0737439990044
 21
-0.0115719996393
 31
0.279994010925
  0
LINE
  8
0
 10
0.0737439990044
 20
-0.0115719996393
 30
0.279994010925
 11
0.0796030014753
 21
-0.0100640002638
 31
0.279994010925
  0
LINE
  8
0
 10
0.0737090036273
 20
0.000311999989208
 30
0.561433970928
 11
0.0796030014753
 21
-0.0100640002638
 31
0.279994010925
  0
LINE
  8
0
 10
0.0737090036273
 20
0.000311999989208
 30
0.561433970928
 11
0.0678329989314
 21
-0.0100250001997
 31
0.279994010925
  0
LINE
  8
0
 10
0.0678329989314
 20
-0.0100250001997
 30
0.279994010925
 11
0.0737439990044
 21
-0.0115719996393
 31
0.279994010925
  0
LINE
  8
0
 10
0.0650139972568
 20
-0.00775100011379
 30
0.279994010925
 11
0.0678329989314
 21
-0.0100250001997
 31
0.279994010925
  0
LINE
  8
0
 10
0.0619580000639
 20
0.000338000012562
 30
0.279994010925
 11
0.0650139972568
 21
-0.00775100011379
 31
0.279994010925
  0
LINE
  8
0
 10
0.0737090036273
 20
0.000311999989208
 30
0.561433970928
 11
0.0650139972568
 21
-0.00775100011379
 31
0.279994010925
  0
LINE
  8
0
 10
0.0737090036273
 20
0.000311999989208
 30
0.561433970928
 11
0.0619580000639
 21
0.000338000012562
 31
0.279994010925
  0
LINE
  8
0
 10
0.0737090036273
 20
0.000311999989208
 30
0.561433970928
 11
0.0678559988737
 21
0.010661999695
 31
0.279994010925
  0
LINE
  8
0
 10
0.0678559988737
 20
0.010661999695
 30
0.279994010925
 11
0.0650380030274
 21
0.00840200018138
 31
0.279994010925
  0
LINE
  8
0
 10
0.0737090036273
 20
0.000311999989208
 30
0.561433970928
 11
0.0650380030274
 21
0.00840200018138
 31
0.279994010925
  0
LINE
  8
0
 10
1.06177401543
 20
0.210492998362
 30
0.0194349996746
 11
1.06123805046
 21
-0.212537005544
 31
0.0194349996746
  0
LINE
  8
0
 10
1.03057897091
 20
-0.212466999888
 30
0.0200360007584
 11
1.06177401543
 21
0.210492998362
 31
0.0194349996746
  0
LINE
  8
0
 10
1.03057897091
 20
-0.212466999888
 30
0.0200360007584
 11
1.06123805046
 21
-0.212537005544
 31
0.0194349996746
  0
LINE
  8
0
 10
1.03111505508
 20
0.210563004017
 30
0.0200360007584
 11
1.06177401543
 21
0.210492998362
 31
0.0194349996746
  0
LINE
  8
0
 10
1.03111505508
 20
0.210563004017
 30
0.0200360007584
 11
1.03057897091
 21
-0.212466999888
 31
0.0200360007584
  0
LINE
  8
0
 10
1.06057298183
 20
-0.212536007166
 30
-0.0659490004182
 11
1.06123805046
 21
-0.212537005544
 31
0.0194349996746
  0
LINE
  8
0
 10
1.02991402149
 20
-0.212466001511
 30
-0.0653470009565
 11
1.06057298183
 21
-0.212536007166
 31
-0.0659490004182
  0
LINE
  8
0
 10
1.02991402149
 20
-0.212466001511
 30
-0.0653470009565
 11
1.06123805046
 21
-0.212537005544
 31
0.0194349996746
  0
LINE
  8
0
 10
1.0611089468
 20
0.210493996739
 30
-0.0659490004182
 11
1.06057298183
 21
-0.212536007166
 31
-0.0659490004182
  0
LINE
  8
0
 10
1.02991402149
 20
-0.212466001511
 30
-0.0653470009565
 11
1.0611089468
 21
0.210493996739
 31
-0.0659490004182
  0
LINE
  8
0
 10
1.03044998646
 20
0.210564002395
 30
-0.0653470009565
 11
1.02991402149
 21
-0.212466001511
 31
-0.0653470009565
  0
LINE
  8
0
 10
1.03044998646
 20
0.210564002395
 30
-0.0653470009565
 11
1.0611089468
 21
0.210493996739
 31
-0.0659490004182
  0
LINE
  8
0
 10
1.06177401543
 20
0.210492998362
 30
0.0194349996746
 11
1.0611089468
 21
0.210493996739
 31
-0.0659490004182
  0
LINE
  8
0
 10
1.03044998646
 20
0.210564002395
 30
-0.0653470009565
 11
1.06177401543
 21
0.210492998362
 31
0.0194349996746
  0
LINE
  8
0
 10
0.71109098196
 20
-0.219310000539
 30
0.0236939992756
 11
1.03057897091
 21
-0.212466999888
 31
0.0200360007584
  0
LINE
  8
0
 10
0.710425972939
 20
-0.219310000539
 30
-0.0616890005767
 11
0.71109098196
 21
-0.219310000539
 31
0.0236939992756
  0
LINE
  8
0
 10
0.710425972939
 20
-0.219310000539
 30
-0.0616890005767
 11
1.03057897091
 21
-0.212466999888
 31
0.0200360007584
  0
LINE
  8
0
 10
1.02991402149
 20
-0.212466001511
 30
-0.0653470009565
 11
0.710425972939
 21
-0.219310000539
 31
-0.0616890005767
  0
LINE
  8
0
 10
1.02991402149
 20
-0.212466001511
 30
-0.0653470009565
 11
1.03057897091
 21
-0.212466999888
 31
0.0200360007584
  0
LINE
  8
0
 10
1.06177401543
 20
0.210492998362
 30
0.0194349996746
 11
1.06057298183
 21
-0.212536007166
 31
-0.0659490004182
  0
LINE
  8
0
 10
0.710979998112
 20
0.218290001154
 30
-0.0616890005767
 11
1.03111505508
 21
0.210563004017
 31
0.0200360007584
  0
LINE
  8
0
 10
1.03044998646
 20
0.210564002395
 30
-0.0653470009565
 11
1.03111505508
 21
0.210563004017
 31
0.0200360007584
  0
LINE
  8
0
 10
0.710979998112
 20
0.218290001154
 30
-0.0616890005767
 11
1.03044998646
 21
0.210564002395
 31
-0.0653470009565
  0
LINE
  8
0
 10
0.711459994316
 20
0.0724219977856
 30
0.0236939992756
 11
0.711645007133
 21
0.218289002776
 31
0.0236939992756
  0
LINE
  8
0
 10
0.710979998112
 20
0.218290001154
 30
-0.0616890005767
 11
0.711645007133
 21
0.218289002776
 31
0.0236939992756
  0
LINE
  8
0
 10
0.710794985294
 20
0.0724230036139
 30
-0.0616890005767
 11
0.711645007133
 21
0.218289002776
 31
0.0236939992756
  0
LINE
  8
0
 10
0.710609972477
 20
-0.0734430029988
 30
-0.0616890005767
 11
0.711275994778
 21
-0.0734440013766
 31
0.0236939992756
  0
LINE
  8
0
 10
0.710794985294
 20
0.0724230036139
 30
-0.0616890005767
 11
0.711459994316
 21
0.0724219977856
 31
0.0236939992756
  0
LINE
  8
0
 10
0.710609972477
 20
-0.0734430029988
 30
-0.0616890005767
 11
0.711459994316
 21
0.0724219977856
 31
0.0236939992756
  0
LINE
  8
0
 10
0.71109098196
 20
-0.219310000539
 30
0.0236939992756
 11
0.711275994778
 21
-0.0734440013766
 31
0.0236939992756
  0
LINE
  8
0
 10
0.710425972939
 20
-0.219310000539
 30
-0.0616890005767
 11
0.710609972477
 21
-0.0734430029988
 31
-0.0616890005767
  0
LINE
  8
0
 10
0.710425972939
 20
-0.219310000539
 30
-0.0616890005767
 11
0.711275994778
 21
-0.0734440013766
 31
0.0236939992756
  0
LINE
  8
0
 10
0.710979998112
 20
0.218290001154
 30
-0.0616890005767
 11
0.710794985294
 21
0.0724230036139
 31
-0.0616890005767
  0
LINE
  8
0
 10
0.734243988991
 20
0.194603994489
 30
-0.0618700012565
 11
0.710979998112
 21
0.218290001154
 31
-0.0616890005767
  0
LINE
  8
0
 10
0.734243988991
 20
0.194603994489
 30
-0.0618700012565
 11
0.710794985294
 21
0.0724230036139
 31
-0.0616890005767
  0
LINE
  8
0
 10
0.734089970589
 20
0.0723939985037
 30
-0.0618700012565
 11
0.734243988991
 21
0.194603994489
 31
-0.0618700012565
  0
LINE
  8
0
 10
0.710609972477
 20
-0.0734430029988
 30
-0.0616890005767
 11
0.710794985294
 21
0.0724230036139
 31
-0.0616890005767
  0
LINE
  8
0
 10
0.734089970589
 20
0.0723939985037
 30
-0.0618700012565
 11
0.710794985294
 21
0.0724230036139
 31
-0.0616890005767
  0
LINE
  8
0
 10
0.734089970589
 20
0.0723939985037
 30
-0.0618700012565
 11
0.710609972477
 21
-0.0734430029988
 31
-0.0616890005767
  0
LINE
  8
0
 10
0.733905017376
 20
-0.0734729990363
 30
-0.0618700012565
 11
0.710609972477
 21
-0.0734430029988
 31
-0.0616890005767
  0
LINE
  8
0
 10
0.733749985695
 20
-0.195675998926
 30
-0.0618700012565
 11
0.733905017376
 21
-0.0734729990363
 31
-0.0618700012565
  0
LINE
  8
0
 10
0.733749985695
 20
-0.195675998926
 30
-0.0618700012565
 11
0.710609972477
 21
-0.0734430029988
 31
-0.0616890005767
  0
LINE
  8
0
 10
0.733749985695
 20
-0.195675998926
 30
-0.0618700012565
 11
0.710425972939
 21
-0.219310000539
 31
-0.0616890005767
  0
LINE
  8
0
 10
0.733749985695
 20
-0.195675998926
 30
-0.0618700012565
 11
1.02991402149
 21
-0.212466001511
 31
-0.0653470009565
  0
LINE
  8
0
 10
0.733749985695
 20
-0.195675998926
 30
-0.0618700012565
 11
1.00664794445
 21
-0.189502999187
 31
-0.0651659965515
  0
LINE
  8
0
 10
1.00664794445
 20
-0.189502999187
 30
-0.0651659965515
 11
1.02991402149
 21
-0.212466001511
 31
-0.0653470009565
  0
LINE
  8
0
 10
1.0071259737
 20
0.187654003501
 30
-0.0651659965515
 11
1.02991402149
 21
-0.212466001511
 31
-0.0653470009565
  0
LINE
  8
0
 10
1.0071259737
 20
0.187654003501
 30
-0.0651659965515
 11
1.03044998646
 21
0.210564002395
 31
-0.0653470009565
  0
LINE
  8
0
 10
1.0071259737
 20
0.187654003501
 30
-0.0651659965515
 11
1.00664794445
 21
-0.189502999187
 31
-0.0651659965515
  0
LINE
  8
0
 10
0.734243988991
 20
0.194603994489
 30
-0.0618700012565
 11
1.03044998646
 21
0.210564002395
 31
-0.0653470009565
  0
LINE
  8
0
 10
0.733588993549
 20
-0.195675998926
 30
-0.0825870037079
 11
1.00664794445
 21
-0.189502999187
 31
-0.0651659965515
  0
LINE
  8
0
 10
1.00648701191
 20
-0.189502999187
 30
-0.0858820006251
 11
1.00664794445
 21
-0.189502999187
 31
-0.0651659965515
  0
LINE
  8
0
 10
1.00696396828
 20
0.187654003501
 30
-0.0858820006251
 11
1.00648701191
 21
-0.189502999187
 31
-0.0858820006251
  0
LINE
  8
0
 10
1.00696396828
 20
0.187654003501
 30
-0.0858820006251
 11
1.00664794445
 21
-0.189502999187
 31
-0.0651659965515
  0
LINE
  8
0
 10
0.734243988991
 20
0.194603994489
 30
-0.0618700012565
 11
1.0071259737
 21
0.187654003501
 31
-0.0651659965515
  0
LINE
  8
0
 10
0.734082996845
 20
0.194603994489
 30
-0.0825870037079
 11
1.0071259737
 21
0.187654003501
 31
-0.0651659965515
  0
LINE
  8
0
 10
0.734082996845
 20
0.194603994489
 30
-0.0825870037079
 11
0.734243988991
 21
0.194603994489
 31
-0.0618700012565
  0
LINE
  8
0
 10
1.00696396828
 20
0.187654003501
 30
-0.0858820006251
 11
1.0071259737
 21
0.187654003501
 31
-0.0651659965515
  0
LINE
  8
0
 10
0.733928024769
 20
0.0723939985037
 30
-0.0825870037079
 11
0.734243988991
 21
0.194603994489
 31
-0.0618700012565
  0
LINE
  8
0
 10
0.733905017376
 20
-0.0734729990363
 30
-0.0618700012565
 11
0.734089970589
 21
0.0723939985037
 31
-0.0618700012565
  0
LINE
  8
0
 10
0.733743011951
 20
-0.0734729990363
 30
-0.0825870037079
 11
0.733905017376
 21
-0.0734729990363
 31
-0.0618700012565
  0
LINE
  8
0
 10
0.733928024769
 20
0.0723939985037
 30
-0.0825870037079
 11
0.734089970589
 21
0.0723939985037
 31
-0.0618700012565
  0
LINE
  8
0
 10
0.733743011951
 20
-0.0734729990363
 30
-0.0825870037079
 11
0.734089970589
 21
0.0723939985037
 31
-0.0618700012565
  0
LINE
  8
0
 10
0.733743011951
 20
-0.0734729990363
 30
-0.0825870037079
 11
0.733749985695
 21
-0.195675998926
 31
-0.0618700012565
  0
LINE
  8
0
 10
0.733588993549
 20
-0.195675998926
 30
-0.0825870037079
 11
0.733743011951
 21
-0.0734729990363
 31
-0.0825870037079
  0
LINE
  8
0
 10
0.733588993549
 20
-0.195675998926
 30
-0.0825870037079
 11
0.733749985695
 21
-0.195675998926
 31
-0.0618700012565
  0
LINE
  8
0
 10
0.734082996845
 20
0.194603994489
 30
-0.0825870037079
 11
0.733928024769
 21
0.0723939985037
 31
-0.0825870037079
  0
LINE
  8
0
 10
0.71063297987
 20
0.0724240019917
 30
-0.0824059993029
 11
0.734082996845
 21
0.194603994489
 31
-0.0825870037079
  0
LINE
  8
0
 10
0.71063297987
 20
0.0724240019917
 30
-0.0824059993029
 11
0.733928024769
 21
0.0723939985037
 31
-0.0825870037079
  0
LINE
  8
0
 10
0.733743011951
 20
-0.0734729990363
 30
-0.0825870037079
 11
0.733928024769
 21
0.0723939985037
 31
-0.0825870037079
  0
LINE
  8
0
 10
0.71063297987
 20
0.0724240019917
 30
-0.0824059993029
 11
0.733743011951
 21
-0.0734729990363
 31
-0.0825870037079
  0
LINE
  8
0
 10
0.71063297987
 20
0.0724240019917
 30
-0.0824059993029
 11
0.710448980331
 21
-0.0734430029988
 31
-0.0824059993029
  0
LINE
  8
0
 10
0.710448980331
 20
-0.0734430029988
 30
-0.0824059993029
 11
0.733743011951
 21
-0.0734729990363
 31
-0.0825870037079
  0
LINE
  8
0
 10
0.710448980331
 20
-0.0734430029988
 30
-0.0824059993029
 11
0.733588993549
 21
-0.195675998926
 31
-0.0825870037079
  0
LINE
  8
0
 10
0.710264027119
 20
-0.219309002161
 30
-0.0824059993029
 11
0.710448980331
 21
-0.0734430029988
 31
-0.0824059993029
  0
LINE
  8
0
 10
1.00648701191
 20
-0.189502999187
 30
-0.0858820006251
 11
0.733588993549
 21
-0.195675998926
 31
-0.0825870037079
  0
LINE
  8
0
 10
0.710264027119
 20
-0.219309002161
 30
-0.0824059993029
 11
0.733588993549
 21
-0.195675998926
 31
-0.0825870037079
  0
LINE
  8
0
 10
1.02975201607
 20
-0.212466001511
 30
-0.086064003408
 11
0.710264027119
 21
-0.219309002161
 31
-0.0824059993029
  0
LINE
  8
0
 10
1.02975201607
 20
-0.212466001511
 30
-0.086064003408
 11
0.733588993549
 21
-0.195675998926
 31
-0.0825870037079
  0
LINE
  8
0
 10
1.02975201607
 20
-0.212466001511
 30
-0.086064003408
 11
1.00648701191
 21
-0.189502999187
 31
-0.0858820006251
  0
LINE
  8
0
 10
1.02975201607
 20
-0.212466001511
 30
-0.086064003408
 11
1.00696396828
 21
0.187654003501
 31
-0.0858820006251
  0
LINE
  8
0
 10
0.734082996845
 20
0.194603994489
 30
-0.0825870037079
 11
1.00696396828
 21
0.187654003501
 31
-0.0858820006251
  0
LINE
  8
0
 10
1.03028798103
 20
0.210564002395
 30
-0.086064003408
 11
1.00696396828
 21
0.187654003501
 31
-0.0858820006251
  0
LINE
  8
0
 10
1.03028798103
 20
0.210564002395
 30
-0.086064003408
 11
0.734082996845
 21
0.194603994489
 31
-0.0825870037079
  0
LINE
  8
0
 10
0.710817992687
 20
0.218290001154
 30
-0.0824059993029
 11
0.734082996845
 21
0.194603994489
 31
-0.0825870037079
  0
LINE
  8
0
 10
0.117089003325
 20
0.0410940013826
 30
0.279994010925
 11
0.0796260014176
 21
0.0106750000268
 31
0.279994010925
  0
LINE
  8
0
 10
0.117089003325
 20
0.0410940013826
 30
0.279994010925
 11
0.0824009999633
 21
0.00846800021827
 31
0.279994010925
  0
LINE
  8
0
 10
0.132773995399
 20
0.000182000003406
 30
0.279994010925
 11
0.0824009999633
 21
0.00846800021827
 31
0.279994010925
  0
LINE
  8
0
 10
0.0855379998684
 20
0.000285999994958
 30
0.279994010925
 11
0.0824009999633
 21
0.00846800021827
 31
0.279994010925
  0
LINE
  8
0
 10
0.132773995399
 20
0.000182000003406
 30
0.279994010925
 11
0.0823760032654
 21
-0.0078710000962
 31
0.279994010925
  0
LINE
  8
0
 10
0.116965003312
 20
-0.0406039990485
 30
0.279994010925
 11
0.0823760032654
 21
-0.0078710000962
 31
0.279994010925
  0
LINE
  8
0
 10
0.132773995399
 20
0.000182000003406
 30
0.279994010925
 11
0.0855379998684
 21
0.000285999994958
 31
0.279994010925
  0
LINE
  8
0
 10
0.116965003312
 20
-0.0406039990485
 30
0.279994010925
 11
0.103096999228
 21
-0.0515689998865
 31
0.279994010925
  0
LINE
  8
0
 10
0.103096999228
 20
-0.0515689998865
 30
0.279994010925
 11
0.0796030014753
 21
-0.0100640002638
 31
0.279994010925
  0
LINE
  8
0
 10
0.0796030014753
 20
-0.0100640002638
 30
0.279994010925
 11
0.0823760032654
 21
-0.0078710000962
 31
0.279994010925
  0
LINE
  8
0
 10
0.116965003312
 20
-0.0406039990485
 30
0.279994010925
 11
0.0796030014753
 21
-0.0100640002638
 31
0.279994010925
  0
LINE
  8
0
 10
0.0738020017743
 20
-0.0591089986265
 30
0.279994010925
 11
0.0796030014753
 21
-0.0100640002638
 31
0.279994010925
  0
LINE
  8
0
 10
0.0738020017743
 20
-0.0591089986265
 30
0.279994010925
 11
0.0737439990044
 21
-0.0115719996393
 31
0.279994010925
  0
LINE
  8
0
 10
0.0738020017743
 20
-0.0591089986265
 30
0.279994010925
 11
0.0678329989314
 21
-0.0100250001997
 31
0.279994010925
  0
LINE
  8
0
 10
0.0442479997873
 20
-0.0513739995658
 30
0.279994010925
 11
0.0301520004869
 21
-0.0400040000677
 31
0.279994010925
  0
LINE
  8
0
 10
0.0442479997873
 20
-0.0513739995658
 30
0.279994010925
 11
0.0678329989314
 21
-0.0100250001997
 31
0.279994010925
  0
LINE
  8
0
 10
0.0301520004869
 20
-0.0400040000677
 30
0.279994010925
 11
0.0678329989314
 21
-0.0100250001997
 31
0.279994010925
  0
LINE
  8
0
 10
0.0301520004869
 20
-0.0400040000677
 30
0.279994010925
 11
0.0650139972568
 21
-0.00775100011379
 31
0.279994010925
  0
LINE
  8
0
 10
0.0148740001023
 20
0.000441000011051
 30
0.279994010925
 11
0.0650139972568
 21
-0.00775100011379
 31
0.279994010925
  0
LINE
  8
0
 10
0.0148740001023
 20
0.000441000011051
 30
0.279994010925
 11
0.0619580000639
 21
0.000338000012562
 31
0.279994010925
  0
LINE
  8
0
 10
0.0302750002593
 20
0.0407629981637
 30
0.279994010925
 11
0.0650380030274
 21
0.00840200018138
 31
0.279994010925
  0
LINE
  8
0
 10
0.0650380030274
 20
0.00840200018138
 30
0.279994010925
 11
0.0619580000639
 21
0.000338000012562
 31
0.279994010925
  0
LINE
  8
0
 10
0.0148740001023
 20
0.000441000011051
 30
0.279994010925
 11
0.0650380030274
 21
0.00840200018138
 31
0.279994010925
  0
LINE
  8
0
 10
0.0302750002593
 20
0.0407629981637
 30
0.279994010925
 11
0.0443649999797
 21
0.052064999938
 31
0.279994010925
  0
LINE
  8
0
 10
0.0443649999797
 20
0.052064999938
 30
0.279994010925
 11
0.0678559988737
 21
0.010661999695
 31
0.279994010925
  0
LINE
  8
0
 10
0.0302750002593
 20
0.0407629981637
 30
0.279994010925
 11
0.0678559988737
 21
0.010661999695
 31
0.279994010925
  0
LINE
  8
0
 10
0.0738959982991
 20
0.0597320012748
 30
0.279994010925
 11
0.0678559988737
 21
0.010661999695
 31
0.279994010925
  0
LINE
  8
0
 10
0.0737629979849
 20
0.0121959997341
 30
0.279994010925
 11
0.0678559988737
 21
0.010661999695
 31
0.279994010925
  0
LINE
  8
0
 10
0.103212997317
 20
0.0521249994636
 30
0.279994010925
 11
0.0738959982991
 21
0.0597320012748
 31
0.279994010925
  0
LINE
  8
0
 10
0.103212997317
 20
0.0521249994636
 30
0.279994010925
 11
0.0796260014176
 21
0.0106750000268
 31
0.279994010925
  0
LINE
  8
0
 10
0.0738959982991
 20
0.0597320012748
 30
0.279994010925
 11
0.0737629979849
 21
0.0121959997341
 31
0.279994010925
  0
LINE
  8
0
 10
0.0737629979849
 20
0.0121959997341
 30
0.279994010925
 11
0.0796260014176
 21
0.0106750000268
 31
0.279994010925
  0
LINE
  8
0
 10
0.0738959982991
 20
0.0597320012748
 30
0.279994010925
 11
0.0796260014176
 21
0.0106750000268
 31
0.279994010925
  0
LINE
  8
0
 10
0.103212997317
 20
0.0521249994636
 30
0.253313004971
 11
0.103212997317
 21
0.0521249994636
 31
0.279994010925
  0
LINE
  8
0
 10
0.103212997317
 20
0.0521249994636
 30
0.253313004971
 11
0.0738959982991
 21
0.0597320012748
 31
0.279994010925
  0
LINE
  8
0
 10
0.0738959982991
 20
0.0597320012748
 30
0.253313004971
 11
0.103212997317
 21
0.0521249994636
 31
0.253313004971
  0
LINE
  8
0
 10
0.0738959982991
 20
0.0597320012748
 30
0.253313004971
 11
0.0738959982991
 21
0.0597320012748
 31
0.279994010925
  0
LINE
  8
0
 10
0.0443649999797
 20
0.052064999938
 30
0.279994010925
 11
0.0738959982991
 21
0.0597320012748
 31
0.279994010925
  0
LINE
  8
0
 10
0.0738959982991
 20
0.0597320012748
 30
0.253313004971
 11
0.0443649999797
 21
0.052064999938
 31
0.279994010925
  0
LINE
  8
0
 10
0.0443649999797
 20
0.052064999938
 30
0.253313004971
 11
0.0738959982991
 21
0.0597320012748
 31
0.253313004971
  0
LINE
  8
0
 10
0.0443649999797
 20
0.052064999938
 30
0.253313004971
 11
0.0443649999797
 21
0.052064999938
 31
0.279994010925
  0
LINE
  8
0
 10
0.0443649999797
 20
0.052064999938
 30
0.253313004971
 11
0.0302750002593
 21
0.0407629981637
 31
0.279994010925
  0
LINE
  8
0
 10
0.0302750002593
 20
0.0407629981637
 30
0.253313004971
 11
0.0443649999797
 21
0.052064999938
 31
0.253313004971
  0
LINE
  8
0
 10
0.0148740001023
 20
0.000441000011051
 30
0.279994010925
 11
0.0302750002593
 21
0.0407629981637
 31
0.279994010925
  0
LINE
  8
0
 10
0.0302750002593
 20
0.0407629981637
 30
0.253313004971
 11
0.0302750002593
 21
0.0407629981637
 31
0.279994010925
  0
LINE
  8
0
 10
0.0302750002593
 20
0.0407629981637
 30
0.253313004971
 11
0.0148740001023
 21
0.000441000011051
 31
0.279994010925
  0
LINE
  8
0
 10
0.0148740001023
 20
0.000441000011051
 30
0.253313004971
 11
0.0302750002593
 21
0.0407629981637
 31
0.253313004971
  0
LINE
  8
0
 10
0.0301520004869
 20
-0.0400040000677
 30
0.279994010925
 11
0.0148740001023
 21
0.000441000011051
 31
0.279994010925
  0
LINE
  8
0
 10
0.0148740001023
 20
0.000441000011051
 30
0.253313004971
 11
0.0148740001023
 21
0.000441000011051
 31
0.279994010925
  0
LINE
  8
0
 10
0.0148740001023
 20
0.000441000011051
 30
0.253313004971
 11
0.0301520004869
 21
-0.0400040000677
 31
0.279994010925
  0
LINE
  8
0
 10
0.0301520004869
 20
-0.0400040000677
 30
0.253313004971
 11
0.0301520004869
 21
-0.0400040000677
 31
0.279994010925
  0
LINE
  8
0
 10
0.0301520004869
 20
-0.0400040000677
 30
0.253313004971
 11
0.0442479997873
 21
-0.0513739995658
 31
0.279994010925
  0
LINE
  8
0
 10
0.0738020017743
 20
-0.0591089986265
 30
0.279994010925
 11
0.0442479997873
 21
-0.0513739995658
 31
0.279994010925
  0
LINE
  8
0
 10
0.0442479997873
 20
-0.0513739995658
 30
0.253313004971
 11
0.0442479997873
 21
-0.0513739995658
 31
0.279994010925
  0
LINE
  8
0
 10
0.0442479997873
 20
-0.0513739995658
 30
0.253313004971
 11
0.0738020017743
 21
-0.0591089986265
 31
0.279994010925
  0
LINE
  8
0
 10
0.103096999228
 20
-0.0515689998865
 30
0.279994010925
 11
0.0738020017743
 21
-0.0591089986265
 31
0.279994010925
  0
LINE
  8
0
 10
0.0738020017743
 20
-0.0591089986265
 30
0.253313004971
 11
0.0738020017743
 21
-0.0591089986265
 31
0.279994010925
  0
LINE
  8
0
 10
0.0738020017743
 20
-0.0591089986265
 30
0.253313004971
 11
0.103096999228
 21
-0.0515689998865
 31
0.279994010925
  0
LINE
  8
0
 10
0.103096999228
 20
-0.0515689998865
 30
0.253313004971
 11
0.0738020017743
 21
-0.0591089986265
 31
0.253313004971
  0
LINE
  8
0
 10
0.103096999228
 20
-0.0515689998865
 30
0.253313004971
 11
0.103096999228
 21
-0.0515689998865
 31
0.279994010925
  0
LINE
  8
0
 10
0.103096999228
 20
-0.0515689998865
 30
0.253313004971
 11
0.116965003312
 21
-0.0406039990485
 31
0.279994010925
  0
LINE
  8
0
 10
0.132773995399
 20
0.000182000003406
 30
0.279994010925
 11
0.116965003312
 21
-0.0406039990485
 31
0.279994010925
  0
LINE
  8
0
 10
0.116965003312
 20
-0.0406039990485
 30
0.253313004971
 11
0.116965003312
 21
-0.0406039990485
 31
0.279994010925
  0
LINE
  8
0
 10
0.116965003312
 20
-0.0406039990485
 30
0.253313004971
 11
0.132773995399
 21
0.000182000003406
 31
0.279994010925
  0
LINE
  8
0
 10
0.116965003312
 20
-0.0406039990485
 30
0.253313004971
 11
0.132773995399
 21
0.000182000003406
 31
0.253313004971
  0
LINE
  8
0
 10
0.117089003325
 20
0.0410940013826
 30
0.279994010925
 11
0.132773995399
 21
0.000182000003406
 31
0.279994010925
  0
LINE
  8
0
 10
0.132773995399
 20
0.000182000003406
 30
0.253313004971
 11
0.132773995399
 21
0.000182000003406
 31
0.279994010925
  0
LINE
  8
0
 10
0.132773995399
 20
0.000182000003406
 30
0.253313004971
 11
0.117089003325
 21
0.0410940013826
 31
0.279994010925
  0
LINE
  8
0
 10
0.103212997317
 20
0.0521249994636
 30
0.279994010925
 11
0.117089003325
 21
0.0410940013826
 31
0.279994010925
  0
LINE
  8
0
 10
0.117089003325
 20
0.0410940013826
 30
0.253313004971
 11
0.117089003325
 21
0.0410940013826
 31
0.279994010925
  0
LINE
  8
0
 10
0.117089003325
 20
0.0410940013826
 30
0.253313004971
 11
0.103212997317
 21
0.0521249994636
 31
0.279994010925
  0
LINE
  8
0
 10
0.103212997317
 20
0.0521249994636
 30
0.253313004971
 11
0.117089003325
 21
0.0410940013826
 31
0.253313004971
  0
LINE
  8
0
 10
0.161551997066
 20
4.50000006822e-05
 30
0.253313004971
 11
0.132773995399
 21
0.000182000003406
 31
0.253313004971
  0
LINE
  8
0
 10
0.125384002924
 20
-0.0932599976659
 30
0.253313004971
 11
0.116965003312
 21
-0.0406039990485
 31
0.253313004971
  0
LINE
  8
0
 10
0.161551997066
 20
4.50000006822e-05
 30
0.253313004971
 11
0.116965003312
 21
-0.0406039990485
 31
0.253313004971
  0
LINE
  8
0
 10
0.117089003325
 20
0.0410940013826
 30
0.253313004971
 11
0.132773995399
 21
0.000182000003406
 31
0.253313004971
  0
LINE
  8
0
 10
0.161551997066
 20
4.50000006822e-05
 30
0.253313004971
 11
0.117089003325
 21
0.0410940013826
 31
0.253313004971
  0
LINE
  8
0
 10
0.125672996044
 20
0.0936250016093
 30
0.253313004971
 11
0.117089003325
 21
0.0410940013826
 31
0.253313004971
  0
LINE
  8
0
 10
0.125672996044
 20
0.0936250016093
 30
0.253313004971
 11
0.103212997317
 21
0.0521249994636
 31
0.253313004971
  0
LINE
  8
0
 10
0.0899479985237
 20
0.122024998069
 30
0.253313004971
 11
0.103212997317
 21
0.0521249994636
 31
0.253313004971
  0
LINE
  8
0
 10
0.0899479985237
 20
0.122024998069
 30
0.253313004971
 11
0.0738959982991
 21
0.0597320012748
 31
0.253313004971
  0
LINE
  8
0
 10
0.0225220005959
 20
0.139521002769
 30
0.253313004971
 11
0.0899479985237
 21
0.122024998069
 31
0.253313004971
  0
LINE
  8
0
 10
0.0225220005959
 20
0.139521002769
 30
0.253313004971
 11
0.0738959982991
 21
0.0597320012748
 31
0.253313004971
  0
LINE
  8
0
 10
0.0225220005959
 20
0.139521002769
 30
0.253313004971
 11
0.0443649999797
 21
0.052064999938
 31
0.253313004971
  0
LINE
  8
0
 10
-0.0453689992428
 20
0.121893003583
 30
0.253313004971
 11
0.0225220005959
 21
0.139521002769
 31
0.253313004971
  0
LINE
  8
0
 10
-0.0453689992428
 20
0.121893003583
 30
0.253313004971
 11
0.0443649999797
 21
0.052064999938
 31
0.253313004971
  0
LINE
  8
0
 10
-0.0453689992428
 20
0.121893003583
 30
0.253313004971
 11
0.0302750002593
 21
0.0407629981637
 31
0.253313004971
  0
LINE
  8
0
 10
-0.0814869999886
 20
0.0929239988327
 30
0.253313004971
 11
-0.0453689992428
 21
0.121893003583
 31
0.253313004971
  0
LINE
  8
0
 10
-0.0814869999886
 20
0.0929239988327
 30
0.253313004971
 11
0.0302750002593
 21
0.0407629981637
 31
0.253313004971
  0
LINE
  8
0
 10
-0.0814869999886
 20
0.0929239988327
 30
0.253313004971
 11
0.0148740001023
 21
0.000441000011051
 31
0.253313004971
  0
LINE
  8
0
 10
-0.116736002266
 20
0.000638999976218
 30
0.253313004971
 11
-0.0814869999886
 21
0.0929239988327
 31
0.253313004971
  0
LINE
  8
0
 10
0.0301520004869
 20
-0.0400040000677
 30
0.253313004971
 11
0.0148740001023
 21
0.000441000011051
 31
0.253313004971
  0
LINE
  8
0
 10
-0.0817739963531
 20
-0.0919160023332
 30
0.253313004971
 11
0.0148740001023
 21
0.000441000011051
 31
0.253313004971
  0
LINE
  8
0
 10
-0.0817739963531
 20
-0.0919160023332
 30
0.253313004971
 11
0.0301520004869
 21
-0.0400040000677
 31
0.253313004971
  0
LINE
  8
0
 10
-0.116736002266
 20
0.000638999976218
 30
0.253313004971
 11
0.0148740001023
 21
0.000441000011051
 31
0.253313004971
  0
LINE
  8
0
 10
0.0442479997873
 20
-0.0513739995658
 30
0.253313004971
 11
0.0301520004869
 21
-0.0400040000677
 31
0.253313004971
  0
LINE
  8
0
 10
-0.0456460006535
 20
-0.12105499953
 30
0.253313004971
 11
0.0301520004869
 21
-0.0400040000677
 31
0.253313004971
  0
LINE
  8
0
 10
-0.0456460006535
 20
-0.12105499953
 30
0.253313004971
 11
-0.0817739963531
 21
-0.0919160023332
 31
0.253313004971
  0
LINE
  8
0
 10
0.0738020017743
 20
-0.0591089986265
 30
0.253313004971
 11
0.0442479997873
 21
-0.0513739995658
 31
0.253313004971
  0
LINE
  8
0
 10
-0.0456460006535
 20
-0.12105499953
 30
0.253313004971
 11
0.0442479997873
 21
-0.0513739995658
 31
0.253313004971
  0
LINE
  8
0
 10
-0.0456460006535
 20
-0.12105499953
 30
0.253313004971
 11
0.0222929995507
 21
-0.138836994767
 31
0.253313004971
  0
LINE
  8
0
 10
0.0222929995507
 20
-0.138836994767
 30
0.253313004971
 11
0.0442479997873
 21
-0.0513739995658
 31
0.253313004971
  0
LINE
  8
0
 10
0.0896729975939
 20
-0.12149400264
 30
0.253313004971
 11
0.103096999228
 21
-0.0515689998865
 31
0.253313004971
  0
LINE
  8
0
 10
0.0222929995507
 20
-0.138836994767
 30
0.253313004971
 11
0.0738020017743
 21
-0.0591089986265
 31
0.253313004971
  0
LINE
  8
0
 10
0.0896729975939
 20
-0.12149400264
 30
0.253313004971
 11
0.0222929995507
 21
-0.138836994767
 31
0.253313004971
  0
LINE
  8
0
 10
0.0896729975939
 20
-0.12149400264
 30
0.253313004971
 11
0.0738020017743
 21
-0.0591089986265
 31
0.253313004971
  0
LINE
  8
0
 10
0.116965003312
 20
-0.0406039990485
 30
0.253313004971
 11
0.103096999228
 21
-0.0515689998865
 31
0.253313004971
  0
LINE
  8
0
 10
0.125384002924
 20
-0.0932599976659
 30
0.253313004971
 11
0.0896729975939
 21
-0.12149400264
 31
0.253313004971
  0
LINE
  8
0
 10
0.125384002924
 20
-0.0932599976659
 30
0.253313004971
 11
0.103096999228
 21
-0.0515689998865
 31
0.253313004971
  0
LINE
  8
0
 10
-0.0456460006535
 20
-0.12105499953
 30
0.153017997742
 11
0.0222929995507
 21
-0.138836994767
 31
0.253313004971
  0
LINE
  8
0
 10
0.0222929995507
 20
-0.138836994767
 30
0.153017997742
 11
-0.0456460006535
 21
-0.12105499953
 31
0.153017997742
  0
LINE
  8
0
 10
0.0222929995507
 20
-0.138836994767
 30
0.153017997742
 11
0.0222929995507
 21
-0.138836994767
 31
0.253313004971
  0
LINE
  8
0
 10
0.0222929995507
 20
-0.138836994767
 30
0.153017997742
 11
0.0896729975939
 21
-0.12149400264
 31
0.253313004971
  0
LINE
  8
0
 10
0.0896729975939
 20
-0.12149400264
 30
0.153017997742
 11
0.0222929995507
 21
-0.138836994767
 31
0.153017997742
  0
LINE
  8
0
 10
0.0896729975939
 20
-0.12149400264
 30
0.153017997742
 11
0.0896729975939
 21
-0.12149400264
 31
0.253313004971
  0
LINE
  8
0
 10
0.0896729975939
 20
-0.12149400264
 30
0.153017997742
 11
0.125384002924
 21
-0.0932599976659
 31
0.253313004971
  0
LINE
  8
0
 10
0.125384002924
 20
-0.0932599976659
 30
0.153017997742
 11
0.125384002924
 21
-0.0932599976659
 31
0.253313004971
  0
LINE
  8
0
 10
0.161551997066
 20
4.50000006822e-05
 30
0.253313004971
 11
0.125384002924
 21
-0.0932599976659
 31
0.253313004971
  0
LINE
  8
0
 10
0.125384002924
 20
-0.0932599976659
 30
0.153017997742
 11
0.161551997066
 21
4.50000006822e-05
 31
0.253313004971
  0
LINE
  8
0
 10
0.125672996044
 20
0.0936250016093
 30
0.253313004971
 11
0.161551997066
 21
4.50000006822e-05
 31
0.253313004971
  0
LINE
  8
0
 10
0.161551997066
 20
4.50000006822e-05
 30
0.153017997742
 11
0.161551997066
 21
4.50000006822e-05
 31
0.253313004971
  0
LINE
  8
0
 10
0.161551997066
 20
4.50000006822e-05
 30
0.153017997742
 11
0.125672996044
 21
0.0936250016093
 31
0.253313004971
  0
LINE
  8
0
 10
0.125672996044
 20
0.0936250016093
 30
0.153017997742
 11
0.161551997066
 21
4.50000006822e-05
 31
0.153017997742
  0
LINE
  8
0
 10
0.0899479985237
 20
0.122024998069
 30
0.253313004971
 11
0.125672996044
 21
0.0936250016093
 31
0.253313004971
  0
LINE
  8
0
 10
0.125672996044
 20
0.0936250016093
 30
0.153017997742
 11
0.125672996044
 21
0.0936250016093
 31
0.253313004971
  0
LINE
  8
0
 10
0.125672996044
 20
0.0936250016093
 30
0.153017997742
 11
0.0899479985237
 21
0.122024998069
 31
0.253313004971
  0
LINE
  8
0
 10
0.0899479985237
 20
0.122024998069
 30
0.153017997742
 11
0.0899479985237
 21
0.122024998069
 31
0.253313004971
  0
LINE
  8
0
 10
0.0899479985237
 20
0.122024998069
 30
0.153017997742
 11
0.0225220005959
 21
0.139521002769
 31
0.253313004971
  0
LINE
  8
0
 10
0.0225220005959
 20
0.139521002769
 30
0.153017997742
 11
0.0899479985237
 21
0.122024998069
 31
0.153017997742
  0
LINE
  8
0
 10
0.0225220005959
 20
0.139521002769
 30
0.153017997742
 11
0.0225220005959
 21
0.139521002769
 31
0.253313004971
  0
LINE
  8
0
 10
0.0225220005959
 20
0.139521002769
 30
0.153017997742
 11
-0.0453689992428
 21
0.121893003583
 31
0.253313004971
  0
LINE
  8
0
 10
-0.0453689992428
 20
0.121893003583
 30
0.153017997742
 11
0.0225220005959
 21
0.139521002769
 31
0.153017997742
  0
LINE
  8
0
 10
-0.0453689992428
 20
0.121893003583
 30
0.153017997742
 11
-0.0453689992428
 21
0.121893003583
 31
0.253313004971
  0
LINE
  8
0
 10
-0.0453689992428
 20
0.121893003583
 30
0.153017997742
 11
-0.0814869999886
 21
0.0929239988327
 31
0.253313004971
  0
LINE
  8
0
 10
-0.0814869999886
 20
0.0929239988327
 30
0.153017997742
 11
-0.0453689992428
 21
0.121893003583
 31
0.153017997742
  0
LINE
  8
0
 10
-0.0814869999886
 20
0.0929239988327
 30
0.153017997742
 11
-0.0814869999886
 21
0.0929239988327
 31
0.253313004971
  0
LINE
  8
0
 10
-0.0814869999886
 20
0.0929239988327
 30
0.153017997742
 11
-0.116736002266
 21
0.000638999976218
 31
0.253313004971
  0
LINE
  8
0
 10
-0.0814869999886
 20
0.0929239988327
 30
0.153017997742
 11
-0.116736002266
 21
0.000638999976218
 31
0.153017997742
  0
LINE
  8
0
 10
-0.0817739963531
 20
-0.0919160023332
 30
0.253313004971
 11
-0.116736002266
 21
0.000638999976218
 31
0.253313004971
  0
LINE
  8
0
 10
-0.0817739963531
 20
-0.0919160023332
 30
0.153017997742
 11
-0.116736002266
 21
0.000638999976218
 31
0.253313004971
  0
LINE
  8
0
 10
-0.116736002266
 20
0.000638999976218
 30
0.153017997742
 11
-0.116736002266
 21
0.000638999976218
 31
0.253313004971
  0
LINE
  8
0
 10
-0.0817739963531
 20
-0.0919160023332
 30
0.153017997742
 11
-0.116736002266
 21
0.000638999976218
 31
0.153017997742
  0
LINE
  8
0
 10
-0.0817739963531
 20
-0.0919160023332
 30
0.153017997742
 11
-0.0817739963531
 21
-0.0919160023332
 31
0.253313004971
  0
LINE
  8
0
 10
-0.0817739963531
 20
-0.0919160023332
 30
0.153017997742
 11
-0.0456460006535
 21
-0.12105499953
 31
0.253313004971
  0
LINE
  8
0
 10
-0.0456460006535
 20
-0.12105499953
 30
0.153017997742
 11
-0.0817739963531
 21
-0.0919160023332
 31
0.153017997742
  0
LINE
  8
0
 10
-0.0456460006535
 20
-0.12105499953
 30
0.153017997742
 11
-0.0456460006535
 21
-0.12105499953
 31
0.253313004971
  0
LINE
  8
0
 10
-0.0336209982634
 20
0.0499560013413
 30
0.153449997306
 11
-0.0814869999886
 21
0.0929239988327
 31
0.153017997742
  0
LINE
  8
0
 10
-0.0336209982634
 20
0.0499560013413
 30
0.153449997306
 11
-0.116736002266
 21
0.000638999976218
 31
0.153017997742
  0
LINE
  8
0
 10
-0.0336209982634
 20
0.0499560013413
 30
0.153449997306
 11
-0.0525109991431
 21
0.00050199998077
 31
0.153872996569
  0
LINE
  8
0
 10
-0.0337750017643
 20
-0.0490970015526
 30
0.153451994061
 11
-0.116736002266
 21
0.000638999976218
 31
0.153017997742
  0
LINE
  8
0
 10
-0.0525109991431
 20
0.00050199998077
 30
0.153872996569
 11
-0.116736002266
 21
0.000638999976218
 31
0.153017997742
  0
LINE
  8
0
 10
-0.0337750017643
 20
-0.0490970015526
 30
0.153451994061
 11
-0.0525109991431
 21
0.00050199998077
 31
0.153872996569
  0
LINE
  8
0
 10
-0.014414999634
 20
-0.0647130012512
 30
0.153017997742
 11
-0.0456460006535
 21
-0.12105499953
 31
0.153017997742
  0
LINE
  8
0
 10
-0.0337750017643
 20
-0.0490970015526
 30
0.153451994061
 11
-0.0817739963531
 21
-0.0919160023332
 31
0.153017997742
  0
LINE
  8
0
 10
-0.014414999634
 20
-0.0647130012512
 30
0.153017997742
 11
-0.0817739963531
 21
-0.0919160023332
 31
0.153017997742
  0
LINE
  8
0
 10
0.0219930000603
 20
-0.074242003262
 30
0.152201995254
 11
0.0222929995507
 21
-0.138836994767
 31
0.153017997742
  0
LINE
  8
0
 10
0.0219930000603
 20
-0.074242003262
 30
0.152201995254
 11
-0.0456460006535
 21
-0.12105499953
 31
0.153017997742
  0
LINE
  8
0
 10
0.0581009984016
 20
-0.0649480000138
 30
0.151392996311
 11
0.0222929995507
 21
-0.138836994767
 31
0.153017997742
  0
LINE
  8
0
 10
0.0581009984016
 20
-0.0649480000138
 30
0.151392996311
 11
0.0896729975939
 21
-0.12149400264
 31
0.153017997742
  0
LINE
  8
0
 10
0.125384002924
 20
-0.0932599976659
 30
0.153017997742
 11
0.0896729975939
 21
-0.12149400264
 31
0.153017997742
  0
LINE
  8
0
 10
0.0772380009294
 20
-0.0498180016875
 30
0.150965005159
 11
0.0896729975939
 21
-0.12149400264
 31
0.153017997742
  0
LINE
  8
0
 10
0.0772380009294
 20
-0.0498180016875
 30
0.150965005159
 11
0.125384002924
 21
-0.0932599976659
 31
0.153017997742
  0
LINE
  8
0
 10
0.0772380009294
 20
-0.0498180016875
 30
0.150965005159
 11
0.0581009984016
 21
-0.0649480000138
 31
0.151392996311
  0
LINE
  8
0
 10
0.161551997066
 20
4.50000006822e-05
 30
0.153017997742
 11
0.125384002924
 21
-0.0932599976659
 31
0.153017997742
  0
LINE
  8
0
 10
0.0966200008988
 20
0.000182999996468
 30
0.150530993938
 11
0.125384002924
 21
-0.0932599976659
 31
0.153017997742
  0
LINE
  8
0
 10
0.0966200008988
 20
0.000182999996468
 30
0.150530993938
 11
0.161551997066
 21
4.50000006822e-05
 31
0.153017997742
  0
LINE
  8
0
 10
0.0966200008988
 20
0.000182999996468
 30
0.150530993938
 11
0.125672996044
 21
0.0936250016093
 31
0.153017997742
  0
LINE
  8
0
 10
0.0773930028081
 20
0.0503319986165
 30
0.150962993503
 11
0.125672996044
 21
0.0936250016093
 31
0.153017997742
  0
LINE
  8
0
 10
0.0899479985237
 20
0.122024998069
 30
0.153017997742
 11
0.125672996044
 21
0.0936250016093
 31
0.153017997742
  0
LINE
  8
0
 10
0.0773930028081
 20
0.0503319986165
 30
0.150962993503
 11
0.0899479985237
 21
0.122024998069
 31
0.153017997742
  0
LINE
  8
0
 10
0.0582479983568
 20
0.0655509978533
 30
0.151391997933
 11
0.0899479985237
 21
0.122024998069
 31
0.153017997742
  0
LINE
  8
0
 10
0.0582479983568
 20
0.0655509978533
 30
0.151391997933
 11
0.0225220005959
 21
0.139521002769
 31
0.153017997742
  0
LINE
  8
0
 10
0.0221159998327
 20
0.0749270021915
 30
0.152201995254
 11
0.0225220005959
 21
0.139521002769
 31
0.153017997742
  0
LINE
  8
0
 10
0.0221159998327
 20
0.0749270021915
 30
0.152201995254
 11
-0.0453689992428
 21
0.121893003583
 31
0.153017997742
  0
LINE
  8
0
 10
-0.0142660001293
 20
0.0654800012708
 30
0.153016999364
 11
-0.0453689992428
 21
0.121893003583
 31
0.153017997742
  0
LINE
  8
0
 10
-0.0142660001293
 20
0.0654800012708
 30
0.153016999364
 11
-0.0814869999886
 21
0.0929239988327
 31
0.153017997742
  0
LINE
  8
0
 10
0.115754000843
 20
-0.0873029977083
 30
-0.0771389976144
 11
0.0581009984016
 21
-0.0649480000138
 31
0.151392996311
  0
LINE
  8
0
 10
0.115754000843
 20
-0.0873029977083
 30
-0.0771389976144
 11
0.0772380009294
 21
-0.0498180016875
 31
0.150965005159
  0
LINE
  8
0
 10
0.115897998214
 20
0.0875800028443
 30
-0.0771389976144
 11
0.0773930028081
 21
0.0503319986165
 31
0.150962993503
  0
LINE
  8
0
 10
0.0582479983568
 20
0.0655509978533
 30
0.151391997933
 11
0.0773930028081
 21
0.0503319986165
 31
0.150962993503
  0
LINE
  8
0
 10
0.115897998214
 20
0.0875800028443
 30
-0.0771389976144
 11
0.0848710015416
 21
0.118431001902
 31
-0.0764430016279
  0
LINE
  8
0
 10
0.115897998214
 20
0.0875800028443
 30
-0.0771389976144
 11
0.0582479983568
 21
0.0655509978533
 31
0.151391997933
  0
LINE
  8
0
 10
-0.0460230000317
 20
0.117544002831
 30
-0.0735099986196
 11
-0.0771000012755
 21
0.0862729996443
 31
-0.0728140026331
  0
LINE
  8
0
 10
-0.0771000012755
 20
0.0862729996443
 30
-0.0728140026331
 11
-0.0142660001293
 21
0.0654800012708
 31
0.153016999364
  0
LINE
  8
0
 10
-0.0336209982634
 20
0.0499560013413
 30
0.153449997306
 11
-0.0142660001293
 21
0.0654800012708
 31
0.153016999364
  0
LINE
  8
0
 10
-0.0772410035133
 20
-0.0851719975471
 30
-0.0728140026331
 11
-0.014414999634
 21
-0.0647130012512
 31
0.153017997742
  0
LINE
  8
0
 10
-0.014414999634
 20
-0.0647130012512
 30
0.153017997742
 11
-0.0337750017643
 21
-0.0490970015526
 31
0.153451994061
  0
LINE
  8
0
 10
-0.588831007481
 20
-0.0510820001364
 30
0.0910440012813
 11
-0.599835991859
 21
0.0338679999113
 31
0.182666003704
  0
LINE
  8
0
 10
-0.58864402771
 20
0.053123999387
 30
0.0910440012813
 11
-0.599835991859
 21
0.0338679999113
 31
0.182666003704
  0
LINE
  8
0
 10
-0.644851982594
 20
0.0330349989235
 30
0.183675006032
 11
-0.599835991859
 21
0.0338679999113
 31
0.182666003704
  0
LINE
  8
0
 10
-0.6600689888
 20
0.0518030002713
 30
0.0926439985633
 11
-0.599835991859
 21
0.0338679999113
 31
0.182666003704
  0
LINE
  8
0
 10
-0.6600689888
 20
0.0518030002713
 30
0.0926439985633
 11
-0.644851982594
 21
0.0330349989235
 31
0.183675006032
  0
LINE
  8
0
 10
-0.6600689888
 20
0.0518030002713
 30
0.0926439985633
 11
-0.58864402771
 21
0.053123999387
 31
0.0910440012813
  0
LINE
  8
0
 10
-0.644967019558
 20
-0.0308870002627
 30
0.183675006032
 11
-0.644851982594
 21
0.0330349989235
 31
0.183675006032
  0
LINE
  8
0
 10
-0.6600689888
 20
0.0518030002713
 30
0.0926439985633
 11
-0.644967019558
 21
-0.0308870002627
 31
0.183675006032
  0
LINE
  8
0
 10
-0.599954009056
 20
-0.0318070016801
 30
0.182666003704
 11
-0.644967019558
 21
-0.0308870002627
 31
0.183675006032
  0
LINE
  8
0
 10
-0.660251021385
 20
-0.0496219992638
 30
0.0926439985633
 11
-0.644967019558
 21
-0.0308870002627
 31
0.183675006032
  0
LINE
  8
0
 10
-0.660251021385
 20
-0.0496219992638
 30
0.0926439985633
 11
-0.599954009056
 21
-0.0318070016801
 31
0.182666003704
  0
LINE
  8
0
 10
-0.588831007481
 20
-0.0510820001364
 30
0.0910440012813
 11
-0.660251021385
 21
-0.0496219992638
 31
0.0926439985633
  0
LINE
  8
0
 10
-0.588831007481
 20
-0.0510820001364
 30
0.0910440012813
 11
-0.599954009056
 21
-0.0318070016801
 31
0.182666003704
  0
LINE
  8
0
 10
-0.561181008816
 20
-0.206873998046
 30
0.0896899998188
 11
-0.660251021385
 21
-0.0496219992638
 31
0.0926439985633
  0
LINE
  8
0
 10
-0.735947012901
 20
-0.200588002801
 30
0.0936060026288
 11
-0.660251021385
 21
-0.0496219992638
 31
0.0926439985633
  0
LINE
  8
0
 10
-0.561181008816
 20
-0.206873998046
 30
0.0896899998188
 11
-0.735947012901
 21
-0.200588002801
 31
0.0936060026288
  0
LINE
  8
0
 10
-0.560654997826
 20
0.208781003952
 30
0.0896899998188
 11
-0.6600689888
 21
0.0518030002713
 31
0.0926439985633
  0
LINE
  8
0
 10
-0.735436022282
 20
0.20293700695
 30
0.0936060026288
 11
-0.6600689888
 21
0.0518030002713
 31
0.0926439985633
  0
LINE
  8
0
 10
-0.560829997063
 20
0.0702290013433
 30
0.0896899998188
 11
-0.560654997826
 21
0.208781003952
 31
0.0896899998188
  0
LINE
  8
0
 10
-0.561497986317
 20
0.20878200233
 30
0.0520219989121
 11
-0.560654997826
 21
0.208781003952
 31
0.0896899998188
  0
LINE
  8
0
 10
-0.561673998833
 20
0.0702299997211
 30
0.0520219989121
 11
-0.560829997063
 21
0.0702290013433
 31
0.0896899998188
  0
LINE
  8
0
 10
-0.561497986317
 20
0.20878200233
 30
0.0520219989121
 11
-0.561673998833
 21
0.0702299997211
 31
0.0520219989121
  0
LINE
  8
0
 10
-0.561497986317
 20
0.20878200233
 30
0.0520219989121
 11
-0.560829997063
 21
0.0702290013433
 31
0.0896899998188
  0
LINE
  8
0
 10
-0.735436022282
 20
0.20293700695
 30
0.0936060026288
 11
-0.560654997826
 21
0.208781003952
 31
0.0896899998188
  0
LINE
  8
0
 10
-0.736280024052
 20
0.202938005328
 30
0.0559390000999
 11
-0.560654997826
 21
0.208781003952
 31
0.0896899998188
  0
LINE
  8
0
 10
-0.766511023045
 20
0.170838996768
 30
0.0943010002375
 11
-0.735436022282
 21
0.20293700695
 31
0.0936060026288
  0
LINE
  8
0
 10
-0.767355024815
 20
0.170839995146
 30
0.0566340014338
 11
-0.735436022282
 21
0.20293700695
 31
0.0936060026288
  0
LINE
  8
0
 10
-0.767355024815
 20
0.170839995146
 30
0.0566340014338
 11
-0.766511023045
 21
0.170838996768
 31
0.0943010002375
  0
LINE
  8
0
 10
-0.736280024052
 20
0.202938005328
 30
0.0559390000999
 11
-0.735436022282
 21
0.20293700695
 31
0.0936060026288
  0
LINE
  8
0
 10
-0.767355024815
 20
0.170839995146
 30
0.0566340014338
 11
-0.736280024052
 21
0.202938005328
 31
0.0559390000999
  0
LINE
  8
0
 10
-0.767355024815
 20
0.170839995146
 30
0.0566340014338
 11
-0.766939997673
 21
-0.168411001563
 31
0.0943010002375
  0
LINE
  8
0
 10
-0.767783999443
 20
-0.168410003185
 30
0.0566340014338
 11
-0.766939997673
 21
-0.168411001563
 31
0.0943010002375
  0
LINE
  8
0
 10
-0.767783999443
 20
-0.168410003185
 30
0.0566340014338
 11
-0.735947012901
 21
-0.200588002801
 31
0.0936060026288
  0
LINE
  8
0
 10
-0.736790001392
 20
-0.200587004423
 30
0.0559390000999
 11
-0.735947012901
 21
-0.200588002801
 31
0.0936060026288
  0
LINE
  8
0
 10
-0.736790001392
 20
-0.200587004423
 30
0.0559390000999
 11
-0.561181008816
 21
-0.206873998046
 31
0.0896899998188
  0
LINE
  8
0
 10
-0.562025010586
 20
-0.206872999668
 30
0.0520219989121
 11
-0.561181008816
 21
-0.206873998046
 31
0.0896899998188
  0
LINE
  8
0
 10
-0.561006009579
 20
-0.0683230012655
 30
0.0896899998188
 11
-0.561181008816
 21
-0.206873998046
 31
0.0896899998188
  0
LINE
  8
0
 10
-0.562025010586
 20
-0.206872999668
 30
0.0520219989121
 11
-0.561006009579
 21
-0.0683230012655
 31
0.0896899998188
  0
LINE
  8
0
 10
-0.56184899807
 20
-0.0683220028877
 30
0.0520219989121
 11
-0.562025010586
 21
-0.206872999668
 31
0.0520219989121
  0
LINE
  8
0
 10
-0.56184899807
 20
-0.0683220028877
 30
0.0520219989121
 11
-0.561006009579
 21
-0.0683230012655
 31
0.0896899998188
  0
LINE
  8
0
 10
-0.56184899807
 20
-0.0683220028877
 30
0.0520219989121
 11
-0.560829997063
 21
0.0702290013433
 31
0.0896899998188
  0
LINE
  8
0
 10
-0.736280024052
 20
0.202938005328
 30
0.0559390000999
 11
-0.73443198204
 21
0.147650003433
 31
0.055895999074
  0
LINE
  8
0
 10
-0.736280024052
 20
0.202938005328
 30
0.0559390000999
 11
-0.559651017189
 21
0.153494000435
 31
0.0519790016115
  0
LINE
  8
0
 10
-0.736280024052
 20
0.202938005328
 30
0.0559390000999
 11
-0.561497986317
 21
0.20878200233
 31
0.0520219989121
  0
LINE
  8
0
 10
-0.561497986317
 20
0.20878200233
 30
0.0520219989121
 11
-0.559651017189
 21
0.153494000435
 31
0.0519790016115
  0
LINE
  8
0
 10
-0.736199021339
 20
0.147652000189
 30
-0.0229470003396
 11
-0.233492001891
 21
0.153301998973
 31
-0.0268639996648
  0
LINE
  8
0
 10
-0.235339999199
 20
0.208590000868
 30
-0.0268210005015
 11
-0.233492001891
 21
0.153301998973
 31
-0.0268639996648
  0
LINE
  8
0
 10
-0.235339999199
 20
0.208590000868
 30
-0.0268210005015
 11
-0.736199021339
 21
0.147652000189
 31
-0.0229470003396
  0
LINE
  8
0
 10
-0.738047003746
 20
0.202940002084
 30
-0.0229039993137
 11
-0.736199021339
 21
0.147652000189
 31
-0.0229470003396
  0
LINE
  8
0
 10
-0.738047003746
 20
0.202940002084
 30
-0.0229039993137
 11
-0.73443198204
 21
0.147650003433
 31
0.055895999074
  0
LINE
  8
0
 10
-0.738047003746
 20
0.202940002084
 30
-0.0229039993137
 11
-0.736280024052
 21
0.202938005328
 31
0.0559390000999
  0
LINE
  8
0
 10
-0.560037016869
 20
-0.151590004563
 30
0.0519790016115
 11
-0.734803020954
 21
-0.145302996039
 31
0.055895999074
  0
LINE
  8
0
 10
-0.736790001392
 20
-0.200587004423
 30
0.0559390000999
 11
-0.560037016869
 21
-0.151590004563
 31
0.0519790016115
  0
LINE
  8
0
 10
-0.736790001392
 20
-0.200587004423
 30
0.0559390000999
 11
-0.734803020954
 21
-0.145302996039
 31
0.055895999074
  0
LINE
  8
0
 10
-0.562025010586
 20
-0.206872999668
 30
0.0520219989121
 11
-0.560037016869
 21
-0.151590004563
 31
0.0519790016115
  0
LINE
  8
0
 10
-0.736790001392
 20
-0.200587004423
 30
0.0559390000999
 11
-0.562025010586
 21
-0.206872999668
 31
0.0520219989121
  0
LINE
  8
0
 10
-0.738556981087
 20
-0.200583994389
 30
-0.0229039993137
 11
-0.736790001392
 21
-0.200587004423
 31
0.0559390000999
  0
LINE
  8
0
 10
-0.738556981087
 20
-0.200583994389
 30
-0.0229039993137
 11
-0.734803020954
 21
-0.145302996039
 31
0.055895999074
  0
LINE
  8
0
 10
-0.233878001571
 20
-0.151782006025
 30
-0.0268639996648
 11
-0.736570000648
 21
-0.145300999284
 31
-0.0229470003396
  0
LINE
  8
0
 10
-0.235865995288
 20
-0.20706500113
 30
-0.0268210005015
 11
-0.233878001571
 21
-0.151782006025
 31
-0.0268639996648
  0
LINE
  8
0
 10
-0.738556981087
 20
-0.200583994389
 30
-0.0229039993137
 11
-0.736570000648
 21
-0.145300999284
 31
-0.0229470003396
  0
LINE
  8
0
 10
-0.235865995288
 20
-0.20706500113
 30
-0.0268210005015
 11
-0.736570000648
 21
-0.145300999284
 31
-0.0229470003396
  0
LINE
  8
0
 10
-0.560037016869
 20
-0.151590004563
 30
0.0519790016115
 11
-0.736570000648
 21
-0.145300999284
 31
-0.0229470003396
  0
LINE
  8
0
 10
-0.736570000648
 20
-0.145300999284
 30
-0.0229470003396
 11
-0.734803020954
 21
-0.145302996039
 31
0.055895999074
  0
LINE
  8
0
 10
-0.56184899807
 20
-0.0683220028877
 30
0.0520219989121
 11
-0.560037016869
 21
-0.151590004563
 31
0.0519790016115
  0
LINE
  8
0
 10
-0.235690996051
 20
-0.0685139968991
 30
-0.0268210005015
 11
-0.560037016869
 21
-0.151590004563
 31
0.0519790016115
  0
LINE
  8
0
 10
-0.560037016869
 20
-0.151590004563
 30
0.0519790016115
 11
-0.233878001571
 21
-0.151782006025
 31
-0.0268639996648
  0
LINE
  8
0
 10
-0.235690996051
 20
-0.0685139968991
 30
-0.0268210005015
 11
-0.233878001571
 21
-0.151782006025
 31
-0.0268639996648
  0
LINE
  8
0
 10
-0.561673998833
 20
0.0702299997211
 30
0.0520219989121
 11
-0.56184899807
 21
-0.0683220028877
 31
0.0520219989121
  0
LINE
  8
0
 10
-0.235690996051
 20
-0.0685139968991
 30
-0.0268210005015
 11
-0.56184899807
 21
-0.0683220028877
 31
0.0520219989121
  0
LINE
  8
0
 10
-0.235690996051
 20
-0.0685139968991
 30
-0.0268210005015
 11
-0.561673998833
 21
0.0702299997211
 31
0.0520219989121
  0
LINE
  8
0
 10
-0.235514998436
 20
0.0700379982591
 30
-0.0268210005015
 11
-0.235690996051
 21
-0.0685139968991
 31
-0.0268210005015
  0
LINE
  8
0
 10
-0.233492001891
 20
0.153301998973
 30
-0.0268639996648
 11
-0.559651017189
 21
0.153494000435
 31
0.0519790016115
  0
LINE
  8
0
 10
-0.235514998436
 20
0.0700379982591
 30
-0.0268210005015
 11
-0.559651017189
 21
0.153494000435
 31
0.0519790016115
  0
LINE
  8
0
 10
-0.235514998436
 20
0.0700379982591
 30
-0.0268210005015
 11
-0.233492001891
 21
0.153301998973
 31
-0.0268639996648
  0
LINE
  8
0
 10
-0.561673998833
 20
0.0702299997211
 30
0.0520219989121
 11
-0.559651017189
 21
0.153494000435
 31
0.0519790016115
  0
LINE
  8
0
 10
-0.235514998436
 20
0.0700379982591
 30
-0.0268210005015
 11
-0.561673998833
 21
0.0702299997211
 31
0.0520219989121
  0
LINE
  8
0
 10
-0.73443198204
 20
0.147650003433
 30
0.055895999074
 11
-0.736199021339
 21
0.147652000189
 31
-0.0229470003396
  0
LINE
  8
0
 10
-0.73443198204
 20
0.147650003433
 30
0.055895999074
 11
-0.559651017189
 21
0.153494000435
 31
0.0519790016115
  0
LINE
  8
0
 10
-0.736199021339
 20
0.147652000189
 30
-0.0229470003396
 11
-0.559651017189
 21
0.153494000435
 31
0.0519790016115
  0
LINE
  8
0
 10
-0.738047003746
 20
0.202940002084
 30
-0.0229039993137
 11
-0.767355024815
 21
0.170839995146
 31
0.0566340014338
  0
LINE
  8
0
 10
-0.769122004509
 20
0.170842006803
 30
-0.0222089998424
 11
-0.738047003746
 21
0.202940002084
 31
-0.0229039993137
  0
LINE
  8
0
 10
-0.767783999443
 20
-0.168410003185
 30
0.0566340014338
 11
-0.767355024815
 21
0.170839995146
 31
0.0566340014338
  0
LINE
  8
0
 10
-0.769550979137
 20
-0.16840800643
 30
-0.0222089998424
 11
-0.767355024815
 21
0.170839995146
 31
0.0566340014338
  0
LINE
  8
0
 10
-0.769550979137
 20
-0.16840800643
 30
-0.0222089998424
 11
-0.767783999443
 21
-0.168410003185
 31
0.0566340014338
  0
LINE
  8
0
 10
-0.769122004509
 20
0.170842006803
 30
-0.0222089998424
 11
-0.767355024815
 21
0.170839995146
 31
0.0566340014338
  0
LINE
  8
0
 10
-0.736790001392
 20
-0.200587004423
 30
0.0559390000999
 11
-0.767783999443
 21
-0.168410003185
 31
0.0566340014338
  0
LINE
  8
0
 10
-0.738556981087
 20
-0.200583994389
 30
-0.0229039993137
 11
-0.767783999443
 21
-0.168410003185
 31
0.0566340014338
  0
LINE
  8
0
 10
-0.772711992264
 20
-0.168403998017
 30
-0.065053999424
 11
-0.741719007492
 21
-0.200580000877
 31
-0.0657489970326
  0
LINE
  8
0
 10
-0.741719007492
 20
-0.200580000877
 30
-0.0657489970326
 11
-0.769550979137
 21
-0.16840800643
 31
-0.0222089998424
  0
LINE
  8
0
 10
-0.741719007492
 20
-0.200580000877
 30
-0.0657489970326
 11
-0.738556981087
 21
-0.200583994389
 31
-0.0229039993137
  0
LINE
  8
0
 10
-0.738556981087
 20
-0.200583994389
 30
-0.0229039993137
 11
-0.769550979137
 21
-0.16840800643
 31
-0.0222089998424
  0
LINE
  8
0
 10
-0.741208016872
 20
0.202943995595
 30
-0.0657489970326
 11
-0.772283017635
 21
0.170846000314
 31
-0.065053999424
  0
LINE
  8
0
 10
-0.741208016872
 20
0.202943995595
 30
-0.0657489970326
 11
-0.769122004509
 21
0.170842006803
 31
-0.0222089998424
  0
LINE
  8
0
 10
-0.235339999199
 20
0.208590000868
 30
-0.0268210005015
 11
-0.738047003746
 21
0.202940002084
 31
-0.0229039993137
  0
LINE
  8
0
 10
-0.238500997424
 20
0.208593994379
 30
-0.0696659982204
 11
-0.235339999199
 21
0.208590000868
 31
-0.0268210005015
  0
LINE
  8
0
 10
-0.238500997424
 20
0.208593994379
 30
-0.0696659982204
 11
-0.738047003746
 21
0.202940002084
 31
-0.0229039993137
  0
LINE
  8
0
 10
-0.238500997424
 20
0.208593994379
 30
-0.0696659982204
 11
-0.741208016872
 21
0.202943995595
 31
-0.0657489970326
  0
LINE
  8
0
 10
-0.741208016872
 20
0.202943995595
 30
-0.0657489970326
 11
-0.738047003746
 21
0.202940002084
 31
-0.0229039993137
  0
LINE
  8
0
 10
-0.769122004509
 20
0.170842006803
 30
-0.0222089998424
 11
-0.769550979137
 21
-0.16840800643
 31
-0.0222089998424
  0
LINE
  8
0
 10
-0.772283017635
 20
0.170846000314
 30
-0.065053999424
 11
-0.769122004509
 21
0.170842006803
 31
-0.0222089998424
  0
LINE
  8
0
 10
-0.772283017635
 20
0.170846000314
 30
-0.065053999424
 11
-0.769550979137
 21
-0.16840800643
 31
-0.0222089998424
  0
LINE
  8
0
 10
-0.772711992264
 20
-0.168403998017
 30
-0.065053999424
 11
-0.769550979137
 21
-0.16840800643
 31
-0.0222089998424
  0
LINE
  8
0
 10
-0.235865995288
 20
-0.20706500113
 30
-0.0268210005015
 11
-0.738556981087
 21
-0.200583994389
 31
-0.0229039993137
  0
LINE
  8
0
 10
-0.239026993513
 20
-0.207060992718
 30
-0.0696659982204
 11
-0.738556981087
 21
-0.200583994389
 31
-0.0229039993137
  0
LINE
  8
0
 10
-0.239026993513
 20
-0.207060992718
 30
-0.0696659982204
 11
-0.235865995288
 21
-0.20706500113
 31
-0.0268210005015
  0
LINE
  8
0
 10
-0.235690996051
 20
-0.0685139968991
 30
-0.0268210005015
 11
-0.235865995288
 21
-0.20706500113
 31
-0.0268210005015
  0
LINE
  8
0
 10
-0.239026993513
 20
-0.207060992718
 30
-0.0696659982204
 11
-0.235690996051
 21
-0.0685139968991
 31
-0.0268210005015
  0
LINE
  8
0
 10
-0.239026993513
 20
-0.207060992718
 30
-0.0696659982204
 11
-0.238851994276
 21
-0.0685100033879
 31
-0.0696659982204
  0
LINE
  8
0
 10
-0.238851994276
 20
-0.0685100033879
 30
-0.0696659982204
 11
-0.235690996051
 21
-0.0685139968991
 31
-0.0268210005015
  0
LINE
  8
0
 10
-0.238851994276
 20
-0.0685100033879
 30
-0.0696659982204
 11
-0.235514998436
 21
0.0700379982591
 31
-0.0268210005015
  0
LINE
  8
0
 10
-0.238675996661
 20
0.0700419992208
 30
-0.0696659982204
 11
-0.235514998436
 21
0.0700379982591
 31
-0.0268210005015
  0
LINE
  8
0
 10
-0.235339999199
 20
0.208590000868
 30
-0.0268210005015
 11
-0.235514998436
 21
0.0700379982591
 31
-0.0268210005015
  0
LINE
  8
0
 10
-0.238675996661
 20
0.0700419992208
 30
-0.0696659982204
 11
-0.235339999199
 21
0.208590000868
 31
-0.0268210005015
  0
LINE
  8
0
 10
0.268272995949
 20
-0.216866001487
 30
-0.0774789974093
 11
-0.214046001434
 21
-0.21435700357
 31
-0.0742779970169
  0
LINE
  8
0
 10
-0.214609995484
 20
-0.214356005192
 30
-0.182883992791
 11
0.268272995949
 21
-0.216866001487
 31
-0.0774789974093
  0
LINE
  8
0
 10
-0.214609995484
 20
-0.214356005192
 30
-0.182883992791
 11
0.267708986998
 21
-0.216866001487
 31
-0.186085000634
  0
LINE
  8
0
 10
0.340999007225
 20
-0.217261001468
 30
-0.0774760022759
 11
0.268272995949
 21
-0.216866001487
 31
-0.0774789974093
  0
LINE
  8
0
 10
0.340434998274
 20
-0.21726000309
 30
-0.186082005501
 11
0.268272995949
 21
-0.216866001487
 31
-0.0774789974093
  0
LINE
  8
0
 10
0.267708986998
 20
-0.216866001487
 30
-0.186085000634
 11
0.268272995949
 21
-0.216866001487
 31
-0.0774789974093
  0
LINE
  8
0
 10
0.340434998274
 20
-0.21726000309
 30
-0.186082005501
 11
0.340999007225
 21
-0.217261001468
 31
-0.0774760022759
  0
LINE
  8
0
 10
0.340434998274
 20
-0.21726000309
 30
-0.186082005501
 11
0.341181993484
 21
-0.0724970027804
 31
-0.0774760022759
  0
LINE
  8
0
 10
0.340434998274
 20
-0.21726000309
 30
-0.186082005501
 11
0.340618014336
 21
-0.0724959969521
 31
-0.186082005501
  0
LINE
  8
0
 10
0.340618014336
 20
-0.0724959969521
 30
-0.186082005501
 11
0.341181993484
 21
-0.0724970027804
 31
-0.0774760022759
  0
LINE
  8
0
 10
0.710448980331
 20
-0.0734430029988
 30
-0.0824059993029
 11
0.341181993484
 21
-0.0724970027804
 31
-0.0774760022759
  0
LINE
  8
0
 10
0.340618014336
 20
-0.0724959969521
 30
-0.186082005501
 11
0.710448980331
 21
-0.0734430029988
 31
-0.0824059993029
  0
LINE
  8
0
 10
0.709885001183
 20
-0.0734419971704
 30
-0.191011995077
 11
0.710448980331
 21
-0.0734430029988
 31
-0.0824059993029
  0
LINE
  8
0
 10
0.709885001183
 20
-0.0734419971704
 30
-0.191011995077
 11
0.710264027119
 21
-0.219309002161
 31
-0.0824059993029
  0
LINE
  8
0
 10
0.709699988365
 20
-0.219309002161
 30
-0.191011995077
 11
0.709885001183
 21
-0.0734419971704
 31
-0.191011995077
  0
LINE
  8
0
 10
0.709699988365
 20
-0.219309002161
 30
-0.191011995077
 11
0.710264027119
 21
-0.219309002161
 31
-0.0824059993029
  0
LINE
  8
0
 10
0.709699988365
 20
-0.219309002161
 30
-0.191011995077
 11
1.02975201607
 21
-0.212466001511
 31
-0.086064003408
  0
LINE
  8
0
 10
1.03028798103
 20
0.210564002395
 30
-0.086064003408
 11
1.02975201607
 21
-0.212466001511
 31
-0.086064003408
  0
LINE
  8
0
 10
1.02918803692
 20
-0.212465003133
 30
-0.194670006633
 11
1.02975201607
 21
-0.212466001511
 31
-0.086064003408
  0
LINE
  8
0
 10
1.02918803692
 20
-0.212465003133
 30
-0.194670006633
 11
1.03028798103
 21
0.210564002395
 31
-0.086064003408
  0
LINE
  8
0
 10
1.02918803692
 20
-0.212465003133
 30
-0.194670006633
 11
1.02972400188
 21
0.210565000772
 31
-0.194670006633
  0
LINE
  8
0
 10
0.710817992687
 20
0.218290001154
 30
-0.0824059993029
 11
1.03028798103
 21
0.210564002395
 31
-0.086064003408
  0
LINE
  8
0
 10
0.710254013538
 20
0.218290001154
 30
-0.191011995077
 11
1.03028798103
 21
0.210564002395
 31
-0.086064003408
  0
LINE
  8
0
 10
0.710254013538
 20
0.218290001154
 30
-0.191011995077
 11
0.710817992687
 21
0.218290001154
 31
-0.0824059993029
  0
LINE
  8
0
 10
1.02972400188
 20
0.210565000772
 30
-0.194670006633
 11
1.03028798103
 21
0.210564002395
 31
-0.086064003408
  0
LINE
  8
0
 10
0.71063297987
 20
0.0724240019917
 30
-0.0824059993029
 11
0.710817992687
 21
0.218290001154
 31
-0.0824059993029
  0
LINE
  8
0
 10
0.710069000721
 20
0.0724240019917
 30
-0.191011995077
 11
0.710817992687
 21
0.218290001154
 31
-0.0824059993029
  0
LINE
  8
0
 10
0.710254013538
 20
0.218290001154
 30
-0.191011995077
 11
0.710069000721
 21
0.0724240019917
 31
-0.191011995077
  0
LINE
  8
0
 10
0.341365993023
 20
0.0722670033574
 30
-0.0774760022759
 11
0.71063297987
 21
0.0724240019917
 31
-0.0824059993029
  0
LINE
  8
0
 10
0.710069000721
 20
0.0724240019917
 30
-0.191011995077
 11
0.71063297987
 21
0.0724240019917
 31
-0.0824059993029
  0
LINE
  8
0
 10
0.710069000721
 20
0.0724240019917
 30
-0.191011995077
 11
0.340802013874
 21
0.0722670033574
 31
-0.186082005501
  0
LINE
  8
0
 10
0.340802013874
 20
0.0722670033574
 30
-0.186082005501
 11
0.71063297987
 21
0.0724240019917
 31
-0.0824059993029
  0
LINE
  8
0
 10
0.340985000134
 20
0.217031002045
 30
-0.186082005501
 11
0.341365993023
 21
0.0722670033574
 31
-0.0774760022759
  0
LINE
  8
0
 10
0.340985000134
 20
0.217031002045
 30
-0.186082005501
 11
0.341549009085
 21
0.217030003667
 31
-0.0774760022759
  0
LINE
  8
0
 10
0.340802013874
 20
0.0722670033574
 30
-0.186082005501
 11
0.341365993023
 21
0.0722670033574
 31
-0.0774760022759
  0
LINE
  8
0
 10
0.340985000134
 20
0.217031002045
 30
-0.186082005501
 11
0.340802013874
 21
0.0722670033574
 31
-0.186082005501
  0
LINE
  8
0
 10
0.340985000134
 20
0.217031002045
 30
-0.186082005501
 11
0.268822014332
 21
0.216797992587
 31
-0.0774789974093
  0
LINE
  8
0
 10
0.268258005381
 20
0.216799005866
 30
-0.186085000634
 11
0.268822014332
 21
0.216797992587
 31
-0.0774789974093
  0
LINE
  8
0
 10
-0.214065000415
 20
0.215582996607
 30
-0.182883992791
 11
0.268822014332
 21
0.216797992587
 31
-0.0774789974093
  0
LINE
  8
0
 10
0.341365993023
 20
0.0722670033574
 30
-0.0774760022759
 11
0.710448980331
 21
-0.0734430029988
 31
-0.0824059993029
  0
LINE
  8
0
 10
0.709699988365
 20
-0.219309002161
 30
-0.191011995077
 11
0.340434998274
 21
-0.21726000309
 31
-0.186082005501
  0
LINE
  8
0
 10
0.340434998274
 20
-0.21726000309
 30
-0.186082005501
 11
0.709885001183
 21
-0.0734419971704
 31
-0.191011995077
  0
LINE
  8
0
 10
0.709885001183
 20
-0.0734419971704
 30
-0.191011995077
 11
0.340618014336
 21
-0.0724959969521
 31
-0.186082005501
  0
LINE
  8
0
 10
-1.11808300018
 20
-0.061918001622
 30
-0.0754870027304
 11
-1.1179009676
 21
0.0649100020528
 31
-0.075485996902
  0
LINE
  8
0
 10
-1.07444298267
 20
-0.0619800016284
 30
-0.0756210014224
 11
-1.1179009676
 21
0.0649100020528
 31
-0.075485996902
  0
LINE
  8
0
 10
-1.07426095009
 20
0.0648479983211
 30
-0.0756210014224
 11
-1.07444298267
 21
-0.0619800016284
 31
-0.0756210014224
  0
LINE
  8
0
 10
-1.07426095009
 20
0.0648479983211
 30
-0.0756210014224
 11
-1.1179009676
 21
0.0649100020528
 31
-0.075485996902
  0
LINE
  8
0
 10
-1.11806499958
 20
0.0649110004306
 30
-0.12863099575
 11
-1.1179009676
 21
0.0649100020528
 31
-0.075485996902
  0
LINE
  8
0
 10
-1.07442498207
 20
0.0648479983211
 30
-0.128765001893
 11
-1.07426095009
 21
0.0648479983211
 31
-0.0756210014224
  0
LINE
  8
0
 10
-1.07442498207
 20
0.0648479983211
 30
-0.128765001893
 11
-1.1179009676
 21
0.0649100020528
 31
-0.075485996902
  0
LINE
  8
0
 10
-1.07442498207
 20
0.0648479983211
 30
-0.128765001893
 11
-1.11806499958
 21
0.0649110004306
 31
-0.12863099575
  0
LINE
  8
0
 10
-1.07442498207
 20
0.0648479983211
 30
-0.128765001893
 11
-1.11824703217
 21
-0.0619169995189
 31
-0.12863099575
  0
LINE
  8
0
 10
-1.07460701466
 20
-0.0619800016284
 30
-0.128766000271
 11
-1.07442498207
 21
0.0648479983211
 31
-0.128765001893
  0
LINE
  8
0
 10
-1.11808300018
 20
-0.061918001622
 30
-0.0754870027304
 11
-1.11824703217
 21
-0.0619169995189
 31
-0.12863099575
  0
LINE
  8
0
 10
-1.07444298267
 20
-0.0619800016284
 30
-0.0756210014224
 11
-1.11824703217
 21
-0.0619169995189
 31
-0.12863099575
  0
LINE
  8
0
 10
-1.07444298267
 20
-0.0619800016284
 30
-0.0756210014224
 11
-1.11808300018
 21
-0.061918001622
 31
-0.0754870027304
  0
LINE
  8
0
 10
-1.07460701466
 20
-0.0619800016284
 30
-0.128766000271
 11
-1.11824703217
 21
-0.0619169995189
 31
-0.12863099575
  0
LINE
  8
0
 10
-1.11808300018
 20
-0.061918001622
 30
-0.0754870027304
 11
-1.11806499958
 21
0.0649110004306
 31
-0.12863099575
  0
LINE
  8
0
 10
-1.11824703217
 20
-0.0619169995189
 30
-0.12863099575
 11
-1.11806499958
 21
0.0649110004306
 31
-0.12863099575
  0
LINE
  8
0
 10
-0.958413004875
 20
-0.062063999474
 30
-0.0759780034423
 11
-1.07444298267
 21
-0.0619800016284
 31
-0.0756210014224
  0
LINE
  8
0
 10
-0.958576977253
 20
-0.062063999474
 30
-0.129123002291
 11
-0.958413004875
 21
-0.062063999474
 31
-0.0759780034423
  0
LINE
  8
0
 10
-1.07460701466
 20
-0.0619800016284
 30
-0.128766000271
 11
-1.07444298267
 21
-0.0619800016284
 31
-0.0756210014224
  0
LINE
  8
0
 10
-1.07460701466
 20
-0.0619800016284
 30
-0.128766000271
 11
-0.958576977253
 21
-0.062063999474
 31
-0.129123002291
  0
LINE
  8
0
 10
-0.958576977253
 20
-0.062063999474
 30
-0.129123002291
 11
-1.07444298267
 21
-0.0619800016284
 31
-0.0756210014224
  0
LINE
  8
0
 10
-0.958212018013
 20
0.0648249983788
 30
-0.0759780034423
 11
-0.958413004875
 21
-0.062063999474
 31
-0.0759780034423
  0
LINE
  8
0
 10
-0.958576977253
 20
-0.062063999474
 30
-0.129123002291
 11
-0.958212018013
 21
0.0648249983788
 31
-0.0759780034423
  0
LINE
  8
0
 10
-0.958375990391
 20
0.0648259967566
 30
-0.129123002291
 11
-0.958212018013
 21
0.0648249983788
 31
-0.0759780034423
  0
LINE
  8
0
 10
-1.07426095009
 20
0.0648479983211
 30
-0.0756210014224
 11
-0.958212018013
 21
0.0648249983788
 31
-0.0759780034423
  0
LINE
  8
0
 10
-0.958375990391
 20
0.0648259967566
 30
-0.129123002291
 11
-1.07426095009
 21
0.0648479983211
 31
-0.0756210014224
  0
LINE
  8
0
 10
-0.958643019199
 20
-0.0620630010962
 30
-0.150398999453
 11
-0.958576977253
 21
-0.062063999474
 31
-0.129123002291
  0
LINE
  8
0
 10
-0.958643019199
 20
-0.0620630010962
 30
-0.150398999453
 11
-1.07460701466
 21
-0.0619800016284
 31
-0.128766000271
  0
LINE
  8
0
 10
-0.958375990391
 20
0.0648259967566
 30
-0.129123002291
 11
-0.958576977253
 21
-0.062063999474
 31
-0.129123002291
  0
LINE
  8
0
 10
-0.958643019199
 20
-0.0620630010962
 30
-0.150398999453
 11
-0.958375990391
 21
0.0648259967566
 31
-0.129123002291
  0
LINE
  8
0
 10
-0.958441972733
 20
0.0648259967566
 30
-0.150398999453
 11
-0.958375990391
 21
0.0648259967566
 31
-0.129123002291
  0
LINE
  8
0
 10
-1.07442498207
 20
0.0648479983211
 30
-0.128765001893
 11
-0.958375990391
 21
0.0648259967566
 31
-0.129123002291
  0
LINE
  8
0
 10
-1.07448995113
 20
0.0648479983211
 30
-0.150041997433
 11
-1.07442498207
 21
0.0648479983211
 31
-0.128765001893
  0
LINE
  8
0
 10
-1.07448995113
 20
0.0648479983211
 30
-0.150041997433
 11
-0.958375990391
 21
0.0648259967566
 31
-0.129123002291
  0
LINE
  8
0
 10
-1.07448995113
 20
0.0648479983211
 30
-0.150041997433
 11
-1.07460701466
 21
-0.0619800016284
 31
-0.128766000271
  0
LINE
  8
0
 10
-1.07467198372
 20
-0.0619800016284
 30
-0.150041997433
 11
-1.07460701466
 21
-0.0619800016284
 31
-0.128766000271
  0
LINE
  8
0
 10
-0.958643019199
 20
-0.0620630010962
 30
-0.150398999453
 11
-0.958441972733
 21
0.0648259967566
 31
-0.150398999453
  0
LINE
  8
0
 10
-0.801456987858
 20
-0.199447005987
 30
-0.163668006659
 11
-0.958643019199
 21
-0.0620630010962
 31
-0.150398999453
  0
LINE
  8
0
 10
-0.801456987858
 20
-0.199447005987
 30
-0.163668006659
 11
-0.958441972733
 21
0.0648259967566
 31
-0.150398999453
  0
LINE
  8
0
 10
-0.80094897747
 20
0.20192399621
 30
-0.163668006659
 11
-0.801456987858
 21
-0.199447005987
 31
-0.163668006659
  0
LINE
  8
0
 10
-0.80094897747
 20
0.20192399621
 30
-0.163668006659
 11
-0.958441972733
 21
0.0648259967566
 31
-0.150398999453
  0
LINE
  8
0
 10
-1.07448995113
 20
0.0648479983211
 30
-0.150041997433
 11
-0.958441972733
 21
0.0648259967566
 31
-0.150398999453
  0
LINE
  8
0
 10
-1.14791297913
 20
0.16945900023
 30
-0.149814993143
 11
-0.958441972733
 21
0.0648259967566
 31
-0.150398999453
  0
LINE
  8
0
 10
-1.07467198372
 20
-0.0619800016284
 30
-0.150041997433
 11
-1.07448995113
 21
0.0648479983211
 31
-0.150041997433
  0
LINE
  8
0
 10
-1.14833796024
 20
-0.166191995144
 30
-0.149816006422
 11
-1.07467198372
 21
-0.0619800016284
 31
-0.150041997433
  0
LINE
  8
0
 10
-1.14791297913
 20
0.16945900023
 30
-0.149814993143
 11
-1.07448995113
 21
0.0648479983211
 31
-0.150041997433
  0
LINE
  8
0
 10
-1.14833796024
 20
-0.166191995144
 30
-0.149816006422
 11
-1.07448995113
 21
0.0648479983211
 31
-0.150041997433
  0
LINE
  8
0
 10
-0.958643019199
 20
-0.0620630010962
 30
-0.150398999453
 11
-1.07467198372
 21
-0.0619800016284
 31
-0.150041997433
  0
LINE
  8
0
 10
-1.14833796024
 20
-0.166191995144
 30
-0.149816006422
 11
-0.958643019199
 21
-0.0620630010962
 31
-0.150398999453
  0
LINE
  8
0
 10
-0.599954009056
 20
-0.0318070016801
 30
0.182666003704
 11
-0.644851982594
 21
0.0330349989235
 31
0.183675006032
  0
LINE
  8
0
 10
-0.599954009056
 20
-0.0318070016801
 30
0.182666003704
 11
-0.599835991859
 21
0.0338679999113
 31
0.182666003704
  0
LINE
  8
0
 10
0.340985000134
 20
0.217031002045
 30
-0.186082005501
 11
0.710254013538
 21
0.218290001154
 31
-0.191011995077
  0
LINE
  8
0
 10
0.340985000134
 20
0.217031002045
 30
-0.186082005501
 11
0.710069000721
 21
0.0724240019917
 31
-0.191011995077
  0
LINE
  8
0
 10
-1.07426095009
 20
0.0648479983211
 30
-0.0756210014224
 11
-0.958413004875
 21
-0.062063999474
 31
-0.0759780034423
  0
LINE
  8
0
 10
-1.93121504784
 20
0.00251500005834
 30
-0.445683985949
 11
-1.93118298054
 21
0.0278370007873
 31
-0.445683985949
  0
LINE
  8
0
 10
-1.97570800781
 20
0.0231550000608
 30
-0.469155997038
 11
-1.93118298054
 21
0.0278370007873
 31
-0.445683985949
  0
LINE
  8
0
 10
-1.93121504784
 20
0.00251500005834
 30
-0.445683985949
 11
-1.97570800781
 21
0.0231550000608
 31
-0.469155997038
  0
LINE
  8
0
 10
-1.97573399544
 20
0.0025649999734
 30
-0.468950003386
 11
-1.97570800781
 21
0.0231550000608
 31
-0.469155997038
  0
LINE
  8
0
 10
-1.97573399544
 20
0.0025649999734
 30
-0.468950003386
 11
-1.98787498474
 21
0.0125230001286
 31
-0.490247994661
  0
LINE
  8
0
 10
-1.98788797855
 20
0.00257800007239
 30
-0.490161985159
 11
-1.98787498474
 21
0.0125230001286
 31
-0.490247994661
  0
LINE
  8
0
 10
-1.98787498474
 20
0.0125230001286
 30
-0.490247994661
 11
-1.97570800781
 21
0.0231550000608
 31
-0.469155997038
  0
LINE
  8
0
 10
-1.48968696594
 20
0.0141319995746
 30
-0.481384009123
 11
-1.48969304562
 21
0.00890799984336
 31
-0.474491000175
  0
LINE
  8
0
 10
-1.48968696594
 20
0.0141319995746
 30
-0.481384009123
 11
-1.57745301723
 21
0.0132400002331
 31
-0.484629005194
  0
LINE
  8
0
 10
-1.57743704319
 20
0.0254989992827
 30
-0.501793980598
 11
-1.57745301723
 21
0.0132400002331
 31
-0.484629005194
  0
LINE
  8
0
 10
-1.75805497169
 20
0.0252689998597
 30
-0.474491000175
 11
-1.57745301723
 21
0.0132400002331
 31
-0.484629005194
  0
LINE
  8
0
 10
-1.57743704319
 20
0.0254989992827
 30
-0.501793980598
 11
-1.75805497169
 21
0.0252689998597
 31
-0.474491000175
  0
LINE
  8
0
 10
-1.75801897049
 20
0.0538729988039
 30
-0.50343298912
 11
-1.57743704319
 21
0.0254989992827
 31
-0.501793980598
  0
LINE
  8
0
 10
-1.75801897049
 20
0.0538729988039
 30
-0.50343298912
 11
-1.75805497169
 21
0.0252689998597
 31
-0.474491000175
  0
LINE
  8
0
 10
-1.93118298054
 20
0.0278370007873
 30
-0.445683985949
 11
-1.75805497169
 21
0.0252689998597
 31
-0.474491000175
  0
LINE
  8
0
 10
-1.93114304543
 20
0.0597099997103
 30
-0.486809998751
 11
-1.93118298054
 21
0.0278370007873
 31
-0.445683985949
  0
LINE
  8
0
 10
-1.93114304543
 20
0.0597099997103
 30
-0.486809998751
 11
-1.75801897049
 21
0.0538729988039
 31
-0.50343298912
  0
LINE
  8
0
 10
-1.93114304543
 20
0.0597099997103
 30
-0.486809998751
 11
-1.75805497169
 21
0.0252689998597
 31
-0.474491000175
  0
LINE
  8
0
 10
-1.93114304543
 20
0.0597099997103
 30
-0.486809998751
 11
-1.97570800781
 21
0.0231550000608
 31
-0.469155997038
  0
LINE
  8
0
 10
-1.97567594051
 20
0.0484899990261
 30
-0.49064001441
 11
-1.93114304543
 21
0.0597099997103
 31
-0.486809998751
  0
LINE
  8
0
 10
-1.97567594051
 20
0.0484899990261
 30
-0.49064001441
 11
-1.97570800781
 21
0.0231550000608
 31
-0.469155997038
  0
LINE
  8
0
 10
-1.98786103725
 20
0.0231480002403
 30
-0.49925801158
 11
-1.97570800781
 21
0.0231550000608
 31
-0.469155997038
  0
LINE
  8
0
 10
-1.57743704319
 20
0.0254989992827
 30
-0.501793980598
 11
-1.48968696594
 21
0.0141319995746
 31
-0.481384009123
  0
LINE
  8
0
 10
-1.48968696594
 20
0.0140760000795
 30
-0.483581990004
 11
-1.48968696594
 21
0.0141319995746
 31
-0.481384009123
  0
LINE
  8
0
 10
-1.48968696594
 20
0.0140760000795
 30
-0.483581990004
 11
-1.57743704319
 21
0.0254989992827
 31
-0.501793980598
  0
LINE
  8
0
 10
-1.57743799686
 20
0.0253800004721
 30
-0.516954004765
 11
-1.57743704319
 21
0.0254989992827
 31
-0.501793980598
  0
LINE
  8
0
 10
-1.57743799686
 20
0.0253800004721
 30
-0.516954004765
 11
-1.75801897049
 21
0.0538729988039
 31
-0.50343298912
  0
LINE
  8
0
 10
-1.75801897049
 20
0.0535960011184
 30
-0.537504971027
 11
-1.57743799686
 21
0.0253800004721
 31
-0.516954004765
  0
LINE
  8
0
 10
-1.93114304543
 20
0.0594010017812
 30
-0.524775981903
 11
-1.75801897049
 21
0.0538729988039
 31
-0.50343298912
  0
LINE
  8
0
 10
-1.93114304543
 20
0.0594010017812
 30
-0.524775981903
 11
-1.93114304543
 21
0.0597099997103
 31
-0.486809998751
  0
LINE
  8
0
 10
-1.75801897049
 20
0.0535960011184
 30
-0.537504971027
 11
-1.75801897049
 21
0.0538729988039
 31
-0.50343298912
  0
LINE
  8
0
 10
-1.93114304543
 20
0.0594010017812
 30
-0.524775981903
 11
-1.97567594051
 21
0.0484899990261
 31
-0.49064001441
  0
LINE
  8
0
 10
-1.97567594051
 20
0.0482450015843
 30
-0.520817995071
 11
-1.93114304543
 21
0.0594010017812
 31
-0.524775981903
  0
LINE
  8
0
 10
-1.97567594051
 20
0.0482450015843
 30
-0.520817995071
 11
-1.97567594051
 21
0.0484899990261
 31
-0.49064001441
  0
LINE
  8
0
 10
-1.98786103725
 20
0.0231480002403
 30
-0.49925801158
 11
-1.97567594051
 21
0.0484899990261
 31
-0.49064001441
  0
LINE
  8
0
 10
-1.97567594051
 20
0.0482450015843
 30
-0.520817995071
 11
-1.98786103725
 21
0.0231480002403
 31
-0.49925801158
  0
LINE
  8
0
 10
-1.98786103725
 20
0.0230449996889
 30
-0.511913001537
 11
-1.97567594051
 21
0.0482450015843
 31
-0.520817995071
  0
LINE
  8
0
 10
-1.98786103725
 20
0.0230449996889
 30
-0.511913001537
 11
-1.98786103725
 21
0.0231480002403
 31
-0.49925801158
  0
LINE
  8
0
 10
-1.57743799686
 20
0.0253800004721
 30
-0.516954004765
 11
-1.48968696594
 21
0.0140760000795
 31
-0.483581990004
  0
LINE
  8
0
 10
-1.48969399929
 20
0.00827699992806
 30
-0.485125988722
 11
-1.57743799686
 21
0.0253800004721
 31
-0.516954004765
  0
LINE
  8
0
 10
-1.57745301723
 20
0.0129530001432
 30
-0.527599990368
 11
-1.48969399929
 21
0.00827699992806
 31
-0.485125988722
  0
LINE
  8
0
 10
-1.57745301723
 20
0.0129530001432
 30
-0.527599990368
 11
-1.57743799686
 21
0.0253800004721
 31
-0.516954004765
  0
LINE
  8
0
 10
-1.57745301723
 20
0.0129530001432
 30
-0.527599990368
 11
-1.75801897049
 21
0.0535960011184
 31
-0.537504971027
  0
LINE
  8
0
 10
-1.93114304543
 20
0.0594010017812
 30
-0.524775981903
 11
-1.75801897049
 21
0.0535960011184
 31
-0.537504971027
  0
LINE
  8
0
 10
-1.93118405342
 20
0.0270910002291
 30
-0.551440000534
 11
-1.75801897049
 21
0.0535960011184
 31
-0.537504971027
  0
LINE
  8
0
 10
-1.75805604458
 20
0.0245999991894
 30
-0.561433970928
 11
-1.75801897049
 21
0.0535960011184
 31
-0.537504971027
  0
LINE
  8
0
 10
-1.93118405342
 20
0.0270910002291
 30
-0.551440000534
 11
-1.75805604458
 21
0.0245999991894
 31
-0.561433970928
  0
LINE
  8
0
 10
-1.93118405342
 20
0.0270910002291
 30
-0.551440000534
 11
-1.93114304543
 21
0.0594010017812
 31
-0.524775981903
  0
LINE
  8
0
 10
-1.93118405342
 20
0.0270910002291
 30
-0.551440000534
 11
-1.97567594051
 21
0.0482450015843
 31
-0.520817995071
  0
LINE
  8
0
 10
-1.97570800781
 20
0.0225620009005
 30
-0.542011976242
 11
-1.97567594051
 21
0.0482450015843
 31
-0.520817995071
  0
LINE
  8
0
 10
-1.97570800781
 20
0.0225620009005
 30
-0.542011976242
 11
-1.98786103725
 21
0.0230449996889
 31
-0.511913001537
  0
LINE
  8
0
 10
-1.98787498474
 20
0.0122750001028
 30
-0.520801007748
 11
-1.98786103725
 21
0.0230449996889
 31
-0.511913001537
  0
LINE
  8
0
 10
-1.48970198631
 20
0.00201399996877
 30
-0.485110998154
 11
-1.48969399929
 21
0.00827699992806
 31
-0.485125988722
  0
LINE
  8
0
 10
-1.57746696472
 20
0.0021120000165
 30
-0.527495980263
 11
-1.48969399929
 21
0.00827699992806
 31
-0.485125988722
  0
LINE
  8
0
 10
-1.75805604458
 20
0.0245999991894
 30
-0.561433970928
 11
-1.57745301723
 21
0.0129530001432
 31
-0.527599990368
  0
LINE
  8
0
 10
-1.75808405876
 20
0.00231299991719
 30
-0.561201989651
 11
-1.57745301723
 21
0.0129530001432
 31
-0.527599990368
  0
LINE
  8
0
 10
-1.75808405876
 20
0.00231299991719
 30
-0.561201989651
 11
-1.75805604458
 21
0.0245999991894
 31
-0.561433970928
  0
LINE
  8
0
 10
-1.57746696472
 20
0.0021120000165
 30
-0.527495980263
 11
-1.57745301723
 21
0.0129530001432
 31
-0.527599990368
  0
LINE
  8
0
 10
-1.75808405876
 20
0.00231299991719
 30
-0.561201989651
 11
-1.93121504784
 21
0.00251500005834
 31
-0.551181018353
  0
LINE
  8
0
 10
-1.93121504784
 20
0.00251500005834
 30
-0.551181018353
 11
-1.75805604458
 21
0.0245999991894
 31
-0.561433970928
  0
LINE
  8
0
 10
-1.97570800781
 20
0.0225620009005
 30
-0.542011976242
 11
-1.93118405342
 21
0.0270910002291
 31
-0.551440000534
  0
LINE
  8
0
 10
-1.93121504784
 20
0.00251500005834
 30
-0.551181018353
 11
-1.93118405342
 21
0.0270910002291
 31
-0.551440000534
  0
LINE
  8
0
 10
-1.93121504784
 20
0.00251500005834
 30
-0.551181018353
 11
-1.97570800781
 21
0.0225620009005
 31
-0.542011976242
  0
LINE
  8
0
 10
-1.93121504784
 20
0.00251500005834
 30
-0.551181018353
 11
-1.97573399544
 21
0.0025649999734
 31
-0.541806995869
  0
LINE
  8
0
 10
-1.98787498474
 20
0.0122750001028
 30
-0.520801007748
 11
-1.97570800781
 21
0.0225620009005
 31
-0.542011976242
  0
LINE
  8
0
 10
-1.97573399544
 20
0.0025649999734
 30
-0.541806995869
 11
-1.97570800781
 21
0.0225620009005
 31
-0.542011976242
  0
LINE
  8
0
 10
-1.97573399544
 20
0.0025649999734
 30
-0.541806995869
 11
-1.98787498474
 21
0.0122750001028
 31
-0.520801007748
  0
LINE
  8
0
 10
-1.98788797855
 20
0.00257800007239
 30
-0.520714998245
 11
-1.98787498474
 21
0.0122750001028
 31
-0.520801007748
  0
LINE
  8
0
 10
-1.92248296738
 20
0.00590099999681
 30
-0.44020101428
 11
-1.93118298054
 21
0.0278370007873
 31
-0.445683985949
  0
LINE
  8
0
 10
-1.92248296738
 20
0.00590099999681
 30
-0.44020101428
 11
-1.75805497169
 21
0.0252689998597
 31
-0.474491000175
  0
LINE
  8
0
 10
-1.75828802586
 20
0.0298350006342
 30
-0.44020101428
 11
-1.75805497169
 21
0.0252689998597
 31
-0.474491000175
  0
LINE
  8
0
 10
-1.57745301723
 20
0.0132400002331
 30
-0.484629005194
 11
-1.48969304562
 21
0.00890799984336
 31
-0.474491000175
  0
LINE
  8
0
 10
-1.57788097858
 20
0.0331449992955
 30
-0.461436986923
 11
-1.48969304562
 21
0.00890799984336
 31
-0.474491000175
  0
LINE
  8
0
 10
-1.49004101753
 20
0.0478050000966
 30
-0.460545986891
 11
-1.57788097858
 21
0.0331449992955
 31
-0.461436986923
  0
LINE
  8
0
 10
-1.57788097858
 20
0.0331449992955
 30
-0.461436986923
 11
-1.57745301723
 21
0.0132400002331
 31
-0.484629005194
  0
LINE
  8
0
 10
-1.57788097858
 20
0.0331449992955
 30
-0.461436986923
 11
-1.75805497169
 21
0.0252689998597
 31
-0.474491000175
  0
LINE
  8
0
 10
-1.57809102535
 20
0.0458209998906
 30
-0.44109800458
 11
-1.57808196545
 21
0.0527880005538
 31
-0.405120998621
  0
LINE
  8
0
 10
-1.49018204212
 20
0.0635790005326
 30
-0.440925002098
 11
-1.57808196545
 21
0.0527880005538
 31
-0.405120998621
  0
LINE
  8
0
 10
-1.57808196545
 20
0.0527880005538
 30
-0.405120998621
 11
-1.49018204212
 21
0.0636000037193
 31
-0.405120998621
  0
LINE
  8
0
 10
-1.75829803944
 20
0.0218100007623
 30
-0.405120998621
 11
-1.75828802586
 21
0.0298350006342
 31
-0.44020101428
  0
LINE
  8
0
 10
-1.75829803944
 20
0.0218100007623
 30
-0.405120998621
 11
-1.57808196545
 21
0.0527880005538
 31
-0.405120998621
  0
LINE
  8
0
 10
-1.57808196545
 20
0.0527880005538
 30
-0.405120998621
 11
-1.75828802586
 21
0.0298350006342
 31
-0.44020101428
  0
LINE
  8
0
 10
-1.57808196545
 20
0.0528150014579
 30
-0.329820007086
 11
-1.57808196545
 21
0.0527880005538
 31
-0.405120998621
  0
LINE
  8
0
 10
-1.57808196545
 20
0.0528150014579
 30
-0.329820007086
 11
-1.49018204212
 21
0.0636000037193
 31
-0.405120998621
  0
LINE
  8
0
 10
-1.49018204212
 20
0.063684001565
 30
-0.329820007086
 11
-1.49018204212
 21
0.0636000037193
 31
-0.405120998621
  0
LINE
  8
0
 10
-1.75829803944
 20
0.0218100007623
 30
-0.329820007086
 11
-1.57808196545
 21
0.0527880005538
 31
-0.405120998621
  0
LINE
  8
0
 10
-1.75829803944
 20
0.0218100007623
 30
-0.329820007086
 11
-1.57808196545
 21
0.0528150014579
 31
-0.329820007086
  0
LINE
  8
0
 10
-1.90096700191
 20
0.00249299989082
 30
-0.405120998621
 11
-1.75829803944
 21
0.0218100007623
 31
-0.405120998621
  0
LINE
  8
0
 10
-1.75829803944
 20
0.0218100007623
 30
-0.329820007086
 11
-1.75829803944
 21
0.0218100007623
 31
-0.405120998621
  0
LINE
  8
0
 10
-1.90096700191
 20
0.00249299989082
 30
-0.405120998621
 11
-1.75829803944
 21
0.0218100007623
 31
-0.329820007086
  0
LINE
  8
0
 10
-1.90096700191
 20
0.00249299989082
 30
-0.405120998621
 11
-1.75828802586
 21
0.0298350006342
 31
-0.44020101428
  0
LINE
  8
0
 10
-1.92248296738
 20
0.00590099999681
 30
-0.44020101428
 11
-1.75828802586
 21
0.0298350006342
 31
-0.44020101428
  0
LINE
  8
0
 10
-1.75828802586
 20
0.0298350006342
 30
-0.226863995194
 11
-1.57808196545
 21
0.0528150014579
 31
-0.329820007086
  0
LINE
  8
0
 10
-1.93319094181
 20
0.00252899993211
 30
-0.329820007086
 11
-1.75829803944
 21
0.0218100007623
 31
-0.329820007086
  0
LINE
  8
0
 10
-1.93319094181
 20
0.00252899993211
 30
-0.329820007086
 11
-1.75828802586
 21
0.0298350006342
 31
-0.226863995194
  0
LINE
  8
0
 10
-1.75828802586
 20
0.0298350006342
 30
-0.226863995194
 11
-1.75829803944
 21
0.0218100007623
 31
-0.329820007086
  0
LINE
  8
0
 10
-2.03319501877
 20
0.00263400003314
 30
-0.226863995194
 11
-1.75828802586
 21
0.0298350006342
 31
-0.226863995194
  0
LINE
  8
0
 10
-1.57808196545
 20
0.0528150014579
 30
-0.329820007086
 11
-1.49018204212
 21
0.063684001565
 31
-0.329820007086
  0
LINE
  8
0
 10
-1.57806801796
 20
0.0640909969807
 30
-0.226863995194
 11
-1.57808196545
 21
0.0528150014579
 31
-0.329820007086
  0
LINE
  8
0
 10
-1.57806801796
 20
0.0640909969807
 30
-0.226863995194
 11
-1.49018204212
 21
0.063684001565
 31
-0.329820007086
  0
LINE
  8
0
 10
-1.49016594887
 20
0.075907997787
 30
-0.226863995194
 11
-1.57806801796
 21
0.0640909969807
 31
-0.226863995194
  0
LINE
  8
0
 10
-1.57793498039
 20
0.117867998779
 30
-0.132394999266
 11
-1.49016594887
 21
0.075907997787
 31
-0.226863995194
  0
LINE
  8
0
 10
-1.57793498039
 20
0.117867998779
 30
-0.132394999266
 11
-1.49000501633
 21
0.133792996407
 31
-0.136611998081
  0
LINE
  8
0
 10
-1.49000501633
 20
0.133792996407
 30
-0.136611998081
 11
-1.49016594887
 21
0.075907997787
 31
-0.226863995194
  0
LINE
  8
0
 10
-1.75828802586
 20
0.0298350006342
 30
-0.226863995194
 11
-1.57806801796
 21
0.0640909969807
 31
-0.226863995194
  0
LINE
  8
0
 10
-1.75820100307
 20
0.0860129967332
 30
-0.123412996531
 11
-1.75828802586
 21
0.0298350006342
 31
-0.226863995194
  0
LINE
  8
0
 10
-1.75820100307
 20
0.0860129967332
 30
-0.123412996531
 11
-1.57806801796
 21
0.0640909969807
 31
-0.226863995194
  0
LINE
  8
0
 10
-1.75820100307
 20
0.0860129967332
 30
-0.123412996531
 11
-1.57793498039
 21
0.117867998779
 31
-0.132394999266
  0
LINE
  8
0
 10
-1.57793498039
 20
0.117867998779
 30
-0.132394999266
 11
-1.57806801796
 21
0.0640909969807
 31
-0.226863995194
  0
LINE
  8
0
 10
-2.03319501877
 20
0.00263400003314
 30
-0.226863995194
 11
-1.75820100307
 21
0.0860129967332
 31
-0.123412996531
  0
LINE
  8
0
 10
-1.49004101753
 20
0.0478050000966
 30
-0.460545986891
 11
-1.57809102535
 21
0.0458209998906
 31
-0.44109800458
  0
LINE
  8
0
 10
-1.49018204212
 20
0.0635790005326
 30
-0.440925002098
 11
-1.57809102535
 21
0.0458209998906
 31
-0.44109800458
  0
LINE
  8
0
 10
-1.49018204212
 20
0.0635790005326
 30
-0.440925002098
 11
-1.49004101753
 21
0.0478050000966
 31
-0.460545986891
  0
LINE
  8
0
 10
-1.49004101753
 20
0.0478050000966
 30
-0.460545986891
 11
-1.48969304562
 21
0.00890799984336
 31
-0.474491000175
  0
LINE
  8
0
 10
-1.14726805687
 20
0.0197509992868
 30
-0.474555999041
 11
-1.49004101753
 21
0.0478050000966
 31
-0.460545986891
  0
LINE
  8
0
 10
-1.14789700508
 20
0.0769840031862
 30
-0.460610985756
 11
-1.49018204212
 21
0.0635790005326
 31
-0.440925002098
  0
LINE
  8
0
 10
-1.14789700508
 20
0.0769840031862
 30
-0.460610985756
 11
-1.49004101753
 21
0.0478050000966
 31
-0.460545986891
  0
LINE
  8
0
 10
-1.14815104008
 20
0.100561000407
 30
-0.440990000963
 11
-1.49018204212
 21
0.0635790005326
 31
-0.440925002098
  0
LINE
  8
0
 10
-1.49018204212
 20
0.0635790005326
 30
-0.440925002098
 11
-1.49018204212
 21
0.0636000037193
 31
-0.405120998621
  0
LINE
  8
0
 10
-1.14815104008
 20
0.100561000407
 30
-0.440990000963
 11
-1.49018204212
 21
0.0636000037193
 31
-0.405120998621
  0
LINE
  8
0
 10
-1.14814996719
 20
0.101787000895
 30
-0.405185997486
 11
-1.49018204212
 21
0.0636000037193
 31
-0.405120998621
  0
LINE
  8
0
 10
-1.14814996719
 20
0.101787000895
 30
-0.405185997486
 11
-1.49018204212
 21
0.063684001565
 31
-0.329820007086
  0
LINE
  8
0
 10
-1.14814901352
 20
0.102043002844
 30
-0.329885005951
 11
-1.14814996719
 21
0.101787000895
 31
-0.405185997486
  0
LINE
  8
0
 10
-1.49016594887
 20
0.075907997787
 30
-0.226863995194
 11
-1.49018204212
 21
0.063684001565
 31
-0.329820007086
  0
LINE
  8
0
 10
-1.14814901352
 20
0.102043002844
 30
-0.329885005951
 11
-1.49018204212
 21
0.063684001565
 31
-0.329820007086
  0
LINE
  8
0
 10
-1.14812600613
 20
0.120068997145
 30
-0.22692899406
 11
-1.14814901352
 21
0.102043002844
 31
-0.329885005951
  0
LINE
  8
0
 10
-1.14814901352
 20
0.102043002844
 30
-0.329885005951
 11
-1.49016594887
 21
0.075907997787
 31
-0.226863995194
  0
LINE
  8
0
 10
-1.14812600613
 20
0.120068997145
 30
-0.22692899406
 11
-1.49000501633
 21
0.133792996407
 31
-0.136611998081
  0
LINE
  8
0
 10
-1.14812600613
 20
0.120068997145
 30
-0.22692899406
 11
-1.49016594887
 21
0.075907997787
 31
-0.226863995194
  0
LINE
  8
0
 10
-1.14791297913
 20
0.16945900023
 30
-0.149814993143
 11
-1.49000501633
 21
0.133792996407
 31
-0.136611998081
  0
LINE
  8
0
 10
-1.14791297913
 20
0.16945900023
 30
-0.149814993143
 11
-1.14812600613
 21
0.120068997145
 31
-0.22692899406
  0
LINE
  8
0
 10
-1.14789700508
 20
0.0769840031862
 30
-0.460610985756
 11
-1.14726805687
 21
0.0197509992868
 31
-0.474555999041
  0
LINE
  8
0
 10
-0.868553996086
 20
0.0455229990184
 30
-0.47462901473
 11
-1.14726805687
 21
0.0197509992868
 31
-0.474555999041
  0
LINE
  8
0
 10
-0.869172990322
 20
0.110947996378
 30
-0.460685014725
 11
-0.868553996086
 21
0.0455229990184
 31
-0.47462901473
  0
LINE
  8
0
 10
-0.868553996086
 20
0.0455229990184
 30
-0.47462901473
 11
-1.14789700508
 21
0.0769840031862
 31
-0.460610985756
  0
LINE
  8
0
 10
-1.14815104008
 20
0.100561000407
 30
-0.440990000963
 11
-1.14789700508
 21
0.0769840031862
 31
-0.460610985756
  0
LINE
  8
0
 10
-0.869172990322
 20
0.110947996378
 30
-0.460685014725
 11
-1.14815104008
 21
0.100561000407
 31
-0.440990000963
  0
LINE
  8
0
 10
-0.869172990322
 20
0.110947996378
 30
-0.460685014725
 11
-1.14789700508
 21
0.0769840031862
 31
-0.460610985756
  0
LINE
  8
0
 10
-0.869422972202
 20
0.137584000826
 30
-0.441062986851
 11
-0.869172990322
 21
0.110947996378
 31
-0.460685014725
  0
LINE
  8
0
 10
-1.14814996719
 20
0.101787000895
 30
-0.405185997486
 11
-1.14815104008
 21
0.100561000407
 31
-0.440990000963
  0
LINE
  8
0
 10
-0.869422972202
 20
0.137584000826
 30
-0.441062986851
 11
-1.14815104008
 21
0.100561000407
 31
-0.440990000963
  0
LINE
  8
0
 10
-0.86940997839
 20
0.147971004248
 30
-0.405259013176
 11
-1.14814996719
 21
0.101787000895
 31
-0.405185997486
  0
LINE
  8
0
 10
-0.86940997839
 20
0.147971004248
 30
-0.405259013176
 11
-0.869422972202
 21
0.137584000826
 31
-0.441062986851
  0
LINE
  8
0
 10
-0.869422972202
 20
0.137584000826
 30
-0.441062986851
 11
-1.14814996719
 21
0.101787000895
 31
-0.405185997486
  0
LINE
  8
0
 10
-0.869400024414
 20
0.155328005552
 30
-0.329957991838
 11
-1.14814901352
 21
0.102043002844
 31
-0.329885005951
  0
LINE
  8
0
 10
-0.869400024414
 20
0.155328005552
 30
-0.329957991838
 11
-0.86940997839
 21
0.147971004248
 31
-0.405259013176
  0
LINE
  8
0
 10
-0.86940997839
 20
0.147971004248
 30
-0.405259013176
 11
-1.14814901352
 21
0.102043002844
 31
-0.329885005951
  0
LINE
  8
0
 10
-0.869400024414
 20
0.155328005552
 30
-0.329957991838
 11
-1.14812600613
 21
0.120068997145
 31
-0.22692899406
  0
LINE
  8
0
 10
-0.869378983974
 20
0.172267004848
 30
-0.227001994848
 11
-0.869400024414
 21
0.155328005552
 31
-0.329957991838
  0
LINE
  8
0
 10
-0.869378983974
 20
0.172267004848
 30
-0.227001994848
 11
-1.14812600613
 21
0.120068997145
 31
-0.22692899406
  0
LINE
  8
0
 10
-1.14791297913
 20
0.16945900023
 30
-0.149814993143
 11
-0.80094897747
 21
0.20192399621
 31
-0.163668006659
  0
LINE
  8
0
 10
-0.869378983974
 20
0.172267004848
 30
-0.227001994848
 11
-1.14791297913
 21
0.16945900023
 31
-0.149814993143
  0
LINE
  8
0
 10
-0.449930012226
 20
0.190950006247
 30
-0.405333995819
 11
-0.869400024414
 21
0.155328005552
 31
-0.329957991838
  0
LINE
  8
0
 10
-0.449930012226
 20
0.190950006247
 30
-0.405333995819
 11
-0.86940997839
 21
0.147971004248
 31
-0.405259013176
  0
LINE
  8
0
 10
-0.444990009069
 20
0.199310004711
 30
-0.330033987761
 11
-0.869400024414
 21
0.155328005552
 31
-0.329957991838
  0
LINE
  8
0
 10
-0.444990009069
 20
0.199310004711
 30
-0.330033987761
 11
-0.869378983974
 21
0.172267004848
 31
-0.227001994848
  0
LINE
  8
0
 10
-0.444981008768
 20
0.206477999687
 30
-0.227078005672
 11
-0.869378983974
 21
0.172267004848
 31
-0.227001994848
  0
LINE
  8
0
 10
-0.869378983974
 20
0.172267004848
 30
-0.227001994848
 11
-0.80094897747
 21
0.20192399621
 31
-0.163668006659
  0
LINE
  8
0
 10
-0.444981008768
 20
0.206477999687
 30
-0.227078005672
 11
-0.80094897747
 21
0.20192399621
 31
-0.163668006659
  0
LINE
  8
0
 10
-0.444141000509
 20
0.0919839963317
 30
-0.474705010653
 11
-0.869172990322
 21
0.110947996378
 31
-0.460685014725
  0
LINE
  8
0
 10
-0.444141000509
 20
0.0919839963317
 30
-0.474705010653
 11
-0.868553996086
 21
0.0455229990184
 31
-0.47462901473
  0
LINE
  8
0
 10
-0.444774985313
 20
0.145729005337
 30
-0.460759997368
 11
-0.444141000509
 21
0.0919839963317
 31
-0.474705010653
  0
LINE
  8
0
 10
-0.444774985313
 20
0.145729005337
 30
-0.460759997368
 11
-0.869422972202
 21
0.137584000826
 31
-0.441062986851
  0
LINE
  8
0
 10
-0.444774985313
 20
0.145729005337
 30
-0.460759997368
 11
-0.869172990322
 21
0.110947996378
 31
-0.460685014725
  0
LINE
  8
0
 10
-0.445019990206
 20
0.175400003791
 30
-0.441139012575
 11
-0.444774985313
 21
0.145729005337
 31
-0.460759997368
  0
LINE
  8
0
 10
-0.449930012226
 20
0.190950006247
 30
-0.405333995819
 11
-0.869422972202
 21
0.137584000826
 31
-0.441062986851
  0
LINE
  8
0
 10
-0.449930012226
 20
0.190950006247
 30
-0.405333995819
 11
-0.445019990206
 21
0.175400003791
 31
-0.441139012575
  0
LINE
  8
0
 10
-0.445019990206
 20
0.175400003791
 30
-0.441139012575
 11
-0.869422972202
 21
0.137584000826
 31
-0.441062986851
  0
LINE
  8
0
 10
0.850160002708
 20
0.148227006197
 30
-0.460727006197
 11
-0.444141000509
 21
0.0919839963317
 31
-0.474705010653
  0
LINE
  8
0
 10
0.850160002708
 20
0.148227006197
 30
-0.460727006197
 11
0.850794017315
 21
0.0944840013981
 31
-0.474671006203
  0
LINE
  8
0
 10
0.850794017315
 20
0.0944840013981
 30
-0.474671006203
 11
-0.444141000509
 21
0.0919839963317
 31
-0.474705010653
  0
LINE
  8
0
 10
-0.417818009853
 20
0.183105006814
 30
-0.425897985697
 11
-0.445019990206
 21
0.175400003791
 31
-0.441139012575
  0
LINE
  8
0
 10
-0.417818009853
 20
0.183105006814
 30
-0.425897985697
 11
0.849915027618
 21
0.177897006273
 31
-0.441105008125
  0
LINE
  8
0
 10
-0.444981008768
 20
0.206477999687
 30
-0.227078005672
 11
-0.444990009069
 21
0.199310004711
 31
-0.330033987761
  0
LINE
  8
0
 10
0.757992982864
 20
0.209020003676
 30
-0.227044001222
 11
-0.444981008768
 21
0.206477999687
 31
-0.227078005672
  0
LINE
  8
0
 10
0.757992982864
 20
0.209020003676
 30
-0.227044001222
 11
-0.444990009069
 21
0.199310004711
 31
-0.330033987761
  0
LINE
  8
0
 10
0.680783987045
 20
0.224674999714
 30
-0.435647010803
 11
-0.276183009148
 21
0.220586001873
 31
-0.435680985451
  0
LINE
  8
0
 10
-0.417818009853
 20
0.183105006814
 30
-0.425897985697
 11
0.680783987045
 21
0.224674999714
 31
-0.435647010803
  0
LINE
  8
0
 10
-0.417818009853
 20
0.183105006814
 30
-0.425897985697
 11
0.82273298502
 21
0.183148995042
 31
-0.42588698864
  0
LINE
  8
0
 10
-0.392289012671
 20
0.193588003516
 30
-0.392488986254
 11
-0.276183009148
 21
0.220586001873
 31
-0.435680985451
  0
LINE
  8
0
 10
-0.392289012671
 20
0.193588003516
 30
-0.392488986254
 11
0.680783987045
 21
0.224674999714
 31
-0.435647010803
  0
LINE
  8
0
 10
0.797226011753
 20
0.193637996912
 30
-0.392477989197
 11
-0.444990009069
 21
0.199310004711
 31
-0.330033987761
  0
LINE
  8
0
 10
-0.392289012671
 20
0.193588003516
 30
-0.392488986254
 11
0.797226011753
 21
0.193637996912
 31
-0.392477989197
  0
LINE
  8
0
 10
0.849945008755
 20
0.201798006892
 30
-0.330000013113
 11
-0.444990009069
 21
0.199310004711
 31
-0.330033987761
  0
LINE
  8
0
 10
0.849915027618
 20
0.177897006273
 30
-0.441105008125
 11
-0.445019990206
 21
0.175400003791
 31
-0.441139012575
  0
LINE
  8
0
 10
0.850160002708
 20
0.148227006197
 30
-0.460727006197
 11
-0.444774985313
 21
0.145729005337
 31
-0.460759997368
  0
LINE
  8
0
 10
0.849915027618
 20
0.177897006273
 30
-0.441105008125
 11
-0.444774985313
 21
0.145729005337
 31
-0.460759997368
  0
LINE
  8
0
 10
1.22875595093
 20
0.0342219993472
 30
-0.442934006453
 11
0.850794017315
 21
0.0944840013981
 31
-0.474671006203
  0
LINE
  8
0
 10
1.22875595093
 20
0.0342219993472
 30
-0.442934006453
 11
1.22881901264
 21
0.0832059979439
 31
-0.442934006453
  0
LINE
  8
0
 10
1.22791695595
 20
0.137731999159
 30
-0.43026098609
 11
0.850160002708
 21
0.148227006197
 31
-0.460727006197
  0
LINE
  8
0
 10
1.22791695595
 20
0.137731999159
 30
-0.43026098609
 11
0.850794017315
 21
0.0944840013981
 31
-0.474671006203
  0
LINE
  8
0
 10
1.22791695595
 20
0.137731999159
 30
-0.43026098609
 11
1.22881901264
 21
0.0832059979439
 31
-0.442934006453
  0
LINE
  8
0
 10
1.22881901264
 20
0.0832059979439
 30
-0.442934006453
 11
0.850794017315
 21
0.0944840013981
 31
-0.474671006203
  0
LINE
  8
0
 10
0.849915027618
 20
0.177897006273
 30
-0.441105008125
 11
0.850160002708
 21
0.148227006197
 31
-0.460727006197
  0
LINE
  8
0
 10
1.22791695595
 20
0.137731999159
 30
-0.43026098609
 11
0.849915027618
 21
0.177897006273
 31
-0.441105008125
  0
LINE
  8
0
 10
1.22756302357
 20
0.167976006866
 30
-0.412429004908
 11
0.849915027618
 21
0.177897006273
 31
-0.441105008125
  0
LINE
  8
0
 10
1.22756302357
 20
0.167976006866
 30
-0.412429004908
 11
1.22791695595
 21
0.137731999159
 31
-0.43026098609
  0
LINE
  8
0
 10
0.849933028221
 20
0.192562997341
 30
-0.407965987921
 11
0.849915027618
 21
0.177897006273
 31
-0.441105008125
  0
LINE
  8
0
 10
1.22758305073
 20
0.183299005032
 30
-0.382313013077
 11
0.849933028221
 21
0.192562997341
 31
-0.407965987921
  0
LINE
  8
0
 10
1.22758305073
 20
0.183299005032
 30
-0.382313013077
 11
1.22756302357
 21
0.167976006866
 31
-0.412429004908
  0
LINE
  8
0
 10
1.22756302357
 20
0.167976006866
 30
-0.412429004908
 11
0.849933028221
 21
0.192562997341
 31
-0.407965987921
  0
LINE
  8
0
 10
0.849933028221
 20
0.192562997341
 30
-0.407965987921
 11
0.849945008755
 21
0.201798006892
 31
-0.330000013113
  0
LINE
  8
0
 10
1.22759699821
 20
0.19423699379
 30
-0.311459988356
 11
1.22758305073
 21
0.183299005032
 31
-0.382313013077
  0
LINE
  8
0
 10
1.22758305073
 20
0.183299005032
 30
-0.382313013077
 11
0.849945008755
 21
0.201798006892
 31
-0.330000013113
  0
LINE
  8
0
 10
0.757992982864
 20
0.209020003676
 30
-0.227044001222
 11
0.849945008755
 21
0.201798006892
 31
-0.330000013113
  0
LINE
  8
0
 10
1.22760605812
 20
0.201202005148
 30
-0.229132995009
 11
0.757992982864
 21
0.209020003676
 31
-0.227044001222
  0
LINE
  8
0
 10
1.22760605812
 20
0.201202005148
 30
-0.229132995009
 11
0.849945008755
 21
0.201798006892
 31
-0.330000013113
  0
LINE
  8
0
 10
1.22760605812
 20
0.201202005148
 30
-0.229132995009
 11
1.22759699821
 21
0.19423699379
 31
-0.311459988356
  0
LINE
  8
0
 10
1.22759699821
 20
0.19423699379
 30
-0.311459988356
 11
0.849945008755
 21
0.201798006892
 31
-0.330000013113
  0
LINE
  8
0
 10
0.710254013538
 20
0.218290001154
 30
-0.191011995077
 11
0.757992982864
 21
0.209020003676
 31
-0.227044001222
  0
LINE
  8
0
 10
1.02972400188
 20
0.210565000772
 30
-0.194670006633
 11
0.710254013538
 21
0.218290001154
 31
-0.191011995077
  0
LINE
  8
0
 10
1.02972400188
 20
0.210565000772
 30
-0.194670006633
 11
0.757992982864
 21
0.209020003676
 31
-0.227044001222
  0
LINE
  8
0
 10
1.54644703865
 20
0.172408998013
 30
-0.350841999054
 11
1.22759699821
 21
0.19423699379
 31
-0.311459988356
  0
LINE
  8
0
 10
1.54645800591
 20
0.18064700067
 30
-0.282278001308
 11
1.54644703865
 21
0.172408998013
 31
-0.350841999054
  0
LINE
  8
0
 10
1.54645800591
 20
0.18064700067
 30
-0.282278001308
 11
1.22760605812
 21
0.201202005148
 31
-0.229132995009
  0
LINE
  8
0
 10
1.54645800591
 20
0.18064700067
 30
-0.282278001308
 11
1.22759699821
 21
0.19423699379
 31
-0.311459988356
  0
LINE
  8
0
 10
1.54717195034
 20
0.190171003342
 30
-0.2479069978
 11
1.54645800591
 21
0.18064700067
 31
-0.282278001308
  0
LINE
  8
0
 10
1.22760605812
 20
0.201202005148
 30
-0.229132995009
 11
1.02972400188
 21
0.210565000772
 31
-0.194670006633
  0
LINE
  8
0
 10
1.49843895435
 20
0.196638002992
 30
-0.184651002288
 11
1.22760605812
 21
0.201202005148
 31
-0.229132995009
  0
LINE
  8
0
 10
1.54717195034
 20
0.190171003342
 30
-0.2479069978
 11
1.22760605812
 21
0.201202005148
 31
-0.229132995009
  0
LINE
  8
0
 10
1.54678404331
 20
0.12785500288
 30
-0.392989993095
 11
1.22881901264
 21
0.0832059979439
 31
-0.442934006453
  0
LINE
  8
0
 10
1.54768800735
 20
0.0744879990816
 30
-0.404130011797
 11
1.22881901264
 21
0.0832059979439
 31
-0.442934006453
  0
LINE
  8
0
 10
1.54678404331
 20
0.12785500288
 30
-0.392989993095
 11
1.22791695595
 21
0.137731999159
 31
-0.43026098609
  0
LINE
  8
0
 10
1.54642903805
 20
0.157468006015
 30
-0.377315014601
 11
1.22756302357
 21
0.167976006866
 31
-0.412429004908
  0
LINE
  8
0
 10
1.54678404331
 20
0.12785500288
 30
-0.392989993095
 11
1.22756302357
 21
0.167976006866
 31
-0.412429004908
  0
LINE
  8
0
 10
1.54642903805
 20
0.157468006015
 30
-0.377315014601
 11
1.22758305073
 21
0.183299005032
 31
-0.382313013077
  0
LINE
  8
0
 10
1.54644703865
 20
0.172408998013
 30
-0.350841999054
 11
1.22758305073
 21
0.183299005032
 31
-0.382313013077
  0
LINE
  8
0
 10
1.54642903805
 20
0.157468006015
 30
-0.377315014601
 11
1.54644703865
 21
0.172408998013
 31
-0.350841999054
  0
LINE
  8
0
 10
1.54678404331
 20
0.12785500288
 30
-0.392989993095
 11
1.54768800735
 21
0.0744879990816
 31
-0.404130011797
  0
LINE
  8
0
 10
1.65742397308
 20
0.0756419971585
 30
-0.395036011934
 11
1.54678404331
 21
0.12785500288
 31
-0.392989993095
  0
LINE
  8
0
 10
1.65742397308
 20
0.0756419971585
 30
-0.395036011934
 11
1.54768800735
 21
0.0744879990816
 31
-0.404130011797
  0
LINE
  8
0
 10
1.65652000904
 20
0.130106002092
 30
-0.384259998798
 11
1.65742397308
 21
0.0756419971585
 31
-0.395036011934
  0
LINE
  8
0
 10
1.54642903805
 20
0.157468006015
 30
-0.377315014601
 11
1.54678404331
 21
0.12785500288
 31
-0.392989993095
  0
LINE
  8
0
 10
1.65652000904
 20
0.130106002092
 30
-0.384259998798
 11
1.54642903805
 21
0.157468006015
 31
-0.377315014601
  0
LINE
  8
0
 10
1.65652000904
 20
0.130106002092
 30
-0.384259998798
 11
1.54678404331
 21
0.12785500288
 31
-0.392989993095
  0
LINE
  8
0
 10
1.65616500378
 20
0.160407006741
 30
-0.369098991156
 11
1.54642903805
 21
0.157468006015
 31
-0.377315014601
  0
LINE
  8
0
 10
1.6561820507
 20
0.174696996808
 30
-0.343492001295
 11
1.54644703865
 21
0.172408998013
 31
-0.350841999054
  0
LINE
  8
0
 10
1.65616500378
 20
0.160407006741
 30
-0.369098991156
 11
1.54644703865
 21
0.172408998013
 31
-0.350841999054
  0
LINE
  8
0
 10
1.65619301796
 20
0.183144003153
 30
-0.276966005564
 11
1.6561820507
 21
0.174696996808
 31
-0.343492001295
  0
LINE
  8
0
 10
1.6561820507
 20
0.174696996808
 30
-0.343492001295
 11
1.54645800591
 21
0.18064700067
 31
-0.282278001308
  0
LINE
  8
0
 10
1.65619301796
 20
0.183144003153
 30
-0.276966005564
 11
1.54645800591
 21
0.18064700067
 31
-0.282278001308
  0
LINE
  8
0
 10
1.65692102909
 20
0.193645000458
 30
-0.245140999556
 11
1.65619301796
 21
0.183144003153
 31
-0.276966005564
  0
LINE
  8
0
 10
1.65619301796
 20
0.183144003153
 30
-0.276966005564
 11
1.54717195034
 21
0.190171003342
 31
-0.2479069978
  0
LINE
  8
0
 10
1.65680897236
 20
0.196122005582
 30
-0.232050999999
 11
1.54717195034
 21
0.190171003342
 31
-0.2479069978
  0
LINE
  8
0
 10
1.65692102909
 20
0.193645000458
 30
-0.245140999556
 11
1.54717195034
 21
0.190171003342
 31
-0.2479069978
  0
LINE
  8
0
 10
2.17822909355
 20
0.119047001004
 30
-0.340837985277
 11
1.65652000904
 21
0.130106002092
 31
-0.384259998798
  0
LINE
  8
0
 10
2.17822909355
 20
0.119047001004
 30
-0.340837985277
 11
1.65742397308
 21
0.0756419971585
 31
-0.395036011934
  0
LINE
  8
0
 10
2.17822909355
 20
0.119047001004
 30
-0.340837985277
 11
2.17914199829
 21
0.0691500008106
 31
-0.348188012838
  0
LINE
  8
0
 10
1.65616500378
 20
0.160407006741
 30
-0.369098991156
 11
1.65652000904
 21
0.130106002092
 31
-0.384259998798
  0
LINE
  8
0
 10
2.17822909355
 20
0.119047001004
 30
-0.340837985277
 11
1.65616500378
 21
0.160407006741
 31
-0.369098991156
  0
LINE
  8
0
 10
1.6561820507
 20
0.174696996808
 30
-0.343492001295
 11
1.65616500378
 21
0.160407006741
 31
-0.369098991156
  0
LINE
  8
0
 10
2.18037700653
 20
0.146552994847
 30
-0.330496996641
 11
1.65616500378
 21
0.160407006741
 31
-0.369098991156
  0
LINE
  8
0
 10
2.18037700653
 20
0.146552994847
 30
-0.330496996641
 11
1.6561820507
 21
0.174696996808
 31
-0.343492001295
  0
LINE
  8
0
 10
2.18258595467
 20
0.159878000617
 30
-0.313030987978
 11
1.65619301796
 21
0.183144003153
 31
-0.276966005564
  0
LINE
  8
0
 10
2.18258595467
 20
0.159878000617
 30
-0.313030987978
 11
1.6561820507
 21
0.174696996808
 31
-0.343492001295
  0
LINE
  8
0
 10
1.65575194359
 20
-0.177909001708
 30
-0.343492001295
 11
2.18221402168
 21
-0.164536997676
 31
-0.313030987978
  0
LINE
  8
0
 10
1.65574204922
 20
-0.186355993152
 30
-0.276966005564
 11
2.18221402168
 21
-0.164536997676
 31
-0.313030987978
  0
LINE
  8
0
 10
1.65576899052
 20
-0.163618996739
 30
-0.369098991156
 11
1.65575194359
 21
-0.177909001708
 31
-0.343492001295
  0
LINE
  8
0
 10
1.65576899052
 20
-0.163618996739
 30
-0.369098991156
 11
2.18003606796
 21
-0.151208996773
 31
-0.330496996641
  0
LINE
  8
0
 10
1.65575194359
 20
-0.177909001708
 30
-0.343492001295
 11
2.18003606796
 21
-0.151208996773
 31
-0.330496996641
  0
LINE
  8
0
 10
1.65576899052
 20
-0.163618996739
 30
-0.369098991156
 11
2.17795109749
 21
-0.123700998724
 31
-0.340837985277
  0
LINE
  8
0
 10
1.65723598003
 20
-0.0788580030203
 30
-0.395036011934
 11
1.65619802475
 21
-0.13331900537
 31
-0.384259998798
  0
LINE
  8
0
 10
1.65619802475
 20
-0.13331900537
 30
-0.384259998798
 11
2.17795109749
 21
-0.123700998724
 31
-0.340837985277
  0
LINE
  8
0
 10
1.65723598003
 20
-0.0788580030203
 30
-0.395036011934
 11
2.17795109749
 21
-0.123700998724
 31
-0.340837985277
  0
LINE
  8
0
 10
1.54669499397
 20
-0.193103998899
 30
-0.247905999422
 11
1.5336149931
 21
-0.201490998268
 31
-0.209905996919
  0
LINE
  8
0
 10
1.54669499397
 20
-0.193103998899
 30
-0.247905999422
 11
1.65632605553
 21
-0.199333995581
 31
-0.232050001621
  0
LINE
  8
0
 10
1.54669499397
 20
-0.193103998899
 30
-0.247905999422
 11
1.65644395351
 21
-0.196858003736
 31
-0.245140999556
  0
LINE
  8
0
 10
1.53410494328
 20
0.198487997055
 30
-0.209905996919
 11
1.65680897236
 21
0.196122005582
 31
-0.232050999999
  0
LINE
  8
0
 10
1.65632605553
 20
-0.199333995581
 30
-0.232050001621
 11
1.65680897236
 21
0.196122005582
 31
-0.232050999999
  0
LINE
  8
0
 10
1.65632605553
 20
-0.199333995581
 30
-0.232050001621
 11
1.5336149931
 21
-0.201490998268
 31
-0.209905996919
  0
LINE
  8
0
 10
1.65632605553
 20
-0.199333995581
 30
-0.232050001621
 11
1.53410494328
 21
0.198487997055
 31
-0.209905996919
  0
LINE
  8
0
 10
1.54749894142
 20
-0.0774239972234
 30
-0.404130011797
 11
1.65742397308
 21
0.0756419971585
 31
-0.395036011934
  0
LINE
  8
0
 10
1.65723598003
 20
-0.0788580030203
 30
-0.395036011934
 11
1.65742397308
 21
0.0756419971585
 31
-0.395036011934
  0
LINE
  8
0
 10
1.49794602394
 20
-0.19951300323
 30
-0.184651002288
 11
1.53410494328
 21
0.198487997055
 31
-0.209905996919
  0
LINE
  8
0
 10
1.5336149931
 20
-0.201490998268
 30
-0.209905996919
 11
1.53410494328
 21
0.198487997055
 31
-0.209905996919
  0
LINE
  8
0
 10
1.54600405693
 20
-0.18357899785
 30
-0.282278001308
 11
1.54669499397
 21
-0.193103998899
 31
-0.247905999422
  0
LINE
  8
0
 10
1.54669499397
 20
-0.193103998899
 30
-0.247905999422
 11
1.65574204922
 21
-0.186355993152
 31
-0.276966005564
  0
LINE
  8
0
 10
1.65574204922
 20
-0.186355993152
 30
-0.276966005564
 11
1.65644395351
 21
-0.196858003736
 31
-0.245140999556
  0
LINE
  8
0
 10
1.54600405693
 20
-0.18357899785
 30
-0.282278001308
 11
1.65575194359
 21
-0.177909001708
 31
-0.343492001295
  0
LINE
  8
0
 10
1.65575194359
 20
-0.177909001708
 30
-0.343492001295
 11
1.65574204922
 21
-0.186355993152
 31
-0.276966005564
  0
LINE
  8
0
 10
1.54600405693
 20
-0.18357899785
 30
-0.282278001308
 11
1.65574204922
 21
-0.186355993152
 31
-0.276966005564
  0
LINE
  8
0
 10
1.54601502419
 20
-0.17534199357
 30
-0.350841999054
 11
1.54603302479
 21
-0.160400003195
 31
-0.377315014601
  0
LINE
  8
0
 10
1.54603302479
 20
-0.160400003195
 30
-0.377315014601
 11
1.65576899052
 21
-0.163618996739
 31
-0.369098991156
  0
LINE
  8
0
 10
1.54601502419
 20
-0.17534199357
 30
-0.350841999054
 11
1.65576899052
 21
-0.163618996739
 31
-0.369098991156
  0
LINE
  8
0
 10
1.54601502419
 20
-0.17534199357
 30
-0.350841999054
 11
1.65575194359
 21
-0.177909001708
 31
-0.343492001295
  0
LINE
  8
0
 10
1.54646205902
 20
-0.130787998438
 30
-0.392989993095
 11
1.65619802475
 21
-0.13331900537
 31
-0.384259998798
  0
LINE
  8
0
 10
1.54603302479
 20
-0.160400003195
 30
-0.377315014601
 11
1.65619802475
 21
-0.13331900537
 31
-0.384259998798
  0
LINE
  8
0
 10
1.65619802475
 20
-0.13331900537
 30
-0.384259998798
 11
1.65576899052
 21
-0.163618996739
 31
-0.369098991156
  0
LINE
  8
0
 10
1.54749894142
 20
-0.0774239972234
 30
-0.404130011797
 11
1.54646205902
 21
-0.130787998438
 31
-0.392989993095
  0
LINE
  8
0
 10
1.54749894142
 20
-0.0774239972234
 30
-0.404130011797
 11
1.65723598003
 21
-0.0788580030203
 31
-0.395036011934
  0
LINE
  8
0
 10
1.54646205902
 20
-0.130787998438
 30
-0.392989993095
 11
1.65723598003
 21
-0.0788580030203
 31
-0.395036011934
  0
LINE
  8
0
 10
1.22713494301
 20
-0.170111000538
 30
-0.412429004908
 11
1.22711598873
 21
-0.185433998704
 31
-0.382313013077
  0
LINE
  8
0
 10
1.22711598873
 20
-0.185433998704
 30
-0.382313013077
 11
1.54603302479
 21
-0.160400003195
 31
-0.377315014601
  0
LINE
  8
0
 10
1.22711598873
 20
-0.185433998704
 30
-0.382313013077
 11
1.54601502419
 21
-0.17534199357
 31
-0.350841999054
  0
LINE
  8
0
 10
1.2275660038
 20
-0.13986800611
 30
-0.43026098609
 11
1.22713494301
 21
-0.170111000538
 31
-0.412429004908
  0
LINE
  8
0
 10
1.2275660038
 20
-0.13986800611
 30
-0.43026098609
 11
1.54646205902
 21
-0.130787998438
 31
-0.392989993095
  0
LINE
  8
0
 10
1.22713494301
 20
-0.170111000538
 30
-0.412429004908
 11
1.54646205902
 21
-0.130787998438
 31
-0.392989993095
  0
LINE
  8
0
 10
1.54646205902
 20
-0.130787998438
 30
-0.392989993095
 11
1.54603302479
 21
-0.160400003195
 31
-0.377315014601
  0
LINE
  8
0
 10
1.22713494301
 20
-0.170111000538
 30
-0.412429004908
 11
1.54603302479
 21
-0.160400003195
 31
-0.377315014601
  0
LINE
  8
0
 10
1.22860503197
 20
-0.0853440016508
 30
-0.442934006453
 11
1.54646205902
 21
-0.130787998438
 31
-0.392989993095
  0
LINE
  8
0
 10
1.49794602394
 20
-0.19951300323
 30
-0.184651002288
 11
1.02972400188
 21
0.210565000772
 31
-0.194670006633
  0
LINE
  8
0
 10
1.49794602394
 20
-0.19951300323
 30
-0.184651002288
 11
1.49843895435
 21
0.196638002992
 31
-0.184651002288
  0
LINE
  8
0
 10
1.49843895435
 20
0.196638002992
 30
-0.184651002288
 11
1.02972400188
 21
0.210565000772
 31
-0.194670006633
  0
LINE
  8
0
 10
1.22709298134
 20
-0.203336000443
 30
-0.229132995009
 11
1.49794602394
 21
-0.19951300323
 31
-0.184651002288
  0
LINE
  8
0
 10
1.02918803692
 20
-0.212465003133
 30
-0.194670006633
 11
1.49794602394
 21
-0.19951300323
 31
-0.184651002288
  0
LINE
  8
0
 10
1.22709298134
 20
-0.203336000443
 30
-0.229132995009
 11
1.54669499397
 21
-0.193103998899
 31
-0.247905999422
  0
LINE
  8
0
 10
1.54669499397
 20
-0.193103998899
 30
-0.247905999422
 11
1.49794602394
 21
-0.19951300323
 31
-0.184651002288
  0
LINE
  8
0
 10
1.22710204124
 20
-0.196371003985
 30
-0.311459988356
 11
1.22709298134
 21
-0.203336000443
 31
-0.229132995009
  0
LINE
  8
0
 10
1.22710204124
 20
-0.196371003985
 30
-0.311459988356
 11
1.54600405693
 21
-0.18357899785
 31
-0.282278001308
  0
LINE
  8
0
 10
1.22709298134
 20
-0.203336000443
 30
-0.229132995009
 11
1.54600405693
 21
-0.18357899785
 31
-0.282278001308
  0
LINE
  8
0
 10
1.22710204124
 20
-0.196371003985
 30
-0.311459988356
 11
1.54601502419
 21
-0.17534199357
 31
-0.350841999054
  0
LINE
  8
0
 10
1.54601502419
 20
-0.17534199357
 30
-0.350841999054
 11
1.54600405693
 21
-0.18357899785
 31
-0.282278001308
  0
LINE
  8
0
 10
0.757462024689
 20
-0.210094004869
 30
-0.227044001222
 11
1.02918803692
 21
-0.212465003133
 31
-0.194670006633
  0
LINE
  8
0
 10
0.709699988365
 20
-0.219309002161
 30
-0.191011995077
 11
1.02918803692
 21
-0.212465003133
 31
-0.194670006633
  0
LINE
  8
0
 10
1.02918803692
 20
-0.212465003133
 30
-0.194670006633
 11
1.22709298134
 21
-0.203336000443
 31
-0.229132995009
  0
LINE
  8
0
 10
0.757462024689
 20
-0.210094004869
 30
-0.227044001222
 11
1.22709298134
 21
-0.203336000443
 31
-0.229132995009
  0
LINE
  8
0
 10
0.849431991577
 20
-0.202981993556
 30
-0.330000013113
 11
1.22710204124
 21
-0.196371003985
 31
-0.311459988356
  0
LINE
  8
0
 10
0.849431991577
 20
-0.202981993556
 30
-0.330000013113
 11
1.22709298134
 21
-0.203336000443
 31
-0.229132995009
  0
LINE
  8
0
 10
0.849443972111
 20
-0.193746000528
 30
-0.407965987921
 11
1.22711598873
 21
-0.185433998704
 31
-0.382313013077
  0
LINE
  8
0
 10
0.849431991577
 20
-0.202981993556
 30
-0.330000013113
 11
1.22711598873
 21
-0.185433998704
 31
-0.382313013077
  0
LINE
  8
0
 10
1.22711598873
 20
-0.185433998704
 30
-0.382313013077
 11
1.22710204124
 21
-0.196371003985
 31
-0.311459988356
  0
LINE
  8
0
 10
0.849461972713
 20
-0.179079994559
 30
-0.441105008125
 11
0.849443972111
 21
-0.193746000528
 31
-0.407965987921
  0
LINE
  8
0
 10
0.849443972111
 20
-0.193746000528
 30
-0.407965987921
 11
1.22713494301
 21
-0.170111000538
 31
-0.412429004908
  0
LINE
  8
0
 10
0.84978300333
 20
-0.149410992861
 30
-0.460727006197
 11
0.849461972713
 21
-0.179079994559
 31
-0.441105008125
  0
LINE
  8
0
 10
0.849461972713
 20
-0.179079994559
 30
-0.441105008125
 11
1.2275660038
 21
-0.13986800611
 31
-0.43026098609
  0
LINE
  8
0
 10
0.849461972713
 20
-0.179079994559
 30
-0.441105008125
 11
1.22713494301
 21
-0.170111000538
 31
-0.412429004908
  0
LINE
  8
0
 10
0.850552976131
 20
-0.0956699997187
 30
-0.474671006203
 11
0.84978300333
 21
-0.149410992861
 31
-0.460727006197
  0
LINE
  8
0
 10
0.84978300333
 20
-0.149410992861
 30
-0.460727006197
 11
1.2275660038
 21
-0.13986800611
 31
-0.43026098609
  0
LINE
  8
0
 10
1.22860503197
 20
-0.0853440016508
 30
-0.442934006453
 11
1.2275660038
 21
-0.13986800611
 31
-0.43026098609
  0
LINE
  8
0
 10
0.850552976131
 20
-0.0956699997187
 30
-0.474671006203
 11
1.2275660038
 21
-0.13986800611
 31
-0.43026098609
  0
LINE
  8
0
 10
0.850673019886
 20
-0.000592999975197
 30
-0.474671006203
 11
1.2286670208
 21
-0.0363590009511
 31
-0.442934006453
  0
LINE
  8
0
 10
0.850552976131
 20
-0.0956699997187
 30
-0.474671006203
 11
1.2286670208
 21
-0.0363590009511
 31
-0.442934006453
  0
LINE
  8
0
 10
1.22860503197
 20
-0.0853440016508
 30
-0.442934006453
 11
1.2286670208
 21
-0.0363590009511
 31
-0.442934006453
  0
LINE
  8
0
 10
0.850552976131
 20
-0.0956699997187
 30
-0.474671006203
 11
1.22860503197
 21
-0.0853440016508
 31
-0.442934006453
  0
LINE
  8
0
 10
-0.445463001728
 20
-0.173898994923
 30
-0.441139012575
 11
0.849461972713
 21
-0.179079994559
 31
-0.441105008125
  0
LINE
  8
0
 10
-0.445142000914
 20
-0.144227996469
 30
-0.460759997368
 11
-0.445463001728
 21
-0.173898994923
 31
-0.441139012575
  0
LINE
  8
0
 10
-0.445142000914
 20
-0.144227996469
 30
-0.460759997368
 11
0.849461972713
 21
-0.179079994559
 31
-0.441105008125
  0
LINE
  8
0
 10
-0.445493012667
 20
-0.197809994221
 30
-0.330033987761
 11
-0.392778009176
 21
-0.192204996943
 31
-0.392488986254
  0
LINE
  8
0
 10
-0.445493012667
 20
-0.197809994221
 30
-0.330033987761
 11
0.796734988689
 21
-0.194703996181
 31
-0.392477989197
  0
LINE
  8
0
 10
0.849431991577
 20
-0.202981993556
 30
-0.330000013113
 11
0.796734988689
 21
-0.194703996181
 31
-0.392477989197
  0
LINE
  8
0
 10
-0.445493012667
 20
-0.197809994221
 30
-0.330033987761
 11
0.849431991577
 21
-0.202981993556
 31
-0.330000013113
  0
LINE
  8
0
 10
0.680212974548
 20
-0.225482001901
 30
-0.435647010803
 11
0.796734988689
 21
-0.194703996181
 31
-0.392477989197
  0
LINE
  8
0
 10
0.796734988689
 20
-0.194703996181
 30
-0.392477989197
 11
-0.392778009176
 21
-0.192204996943
 31
-0.392488986254
  0
LINE
  8
0
 10
0.680212974548
 20
-0.225482001901
 30
-0.435647010803
 11
-0.392778009176
 21
-0.192204996943
 31
-0.392488986254
  0
LINE
  8
0
 10
-0.276740014553
 20
-0.219460994005
 30
-0.435680985451
 11
0.680212974548
 21
-0.225482001901
 31
-0.435647010803
  0
LINE
  8
0
 10
0.822266995907
 20
-0.184272006154
 30
-0.42588698864
 11
-0.418280005455
 21
-0.1816650033
 31
-0.425897985697
  0
LINE
  8
0
 10
0.680212974548
 20
-0.225482001901
 30
-0.435647010803
 11
0.822266995907
 21
-0.184272006154
 31
-0.42588698864
  0
LINE
  8
0
 10
0.680212974548
 20
-0.225482001901
 30
-0.435647010803
 11
-0.418280005455
 21
-0.1816650033
 31
-0.425897985697
  0
LINE
  8
0
 10
-0.445493012667
 20
-0.197809994221
 30
-0.330033987761
 11
-0.445502012968
 21
-0.20497700572
 31
-0.227078005672
  0
LINE
  8
0
 10
0.849431991577
 20
-0.202981993556
 30
-0.330000013113
 11
0.757462024689
 21
-0.210094004869
 31
-0.227044001222
  0
LINE
  8
0
 10
-0.445493012667
 20
-0.197809994221
 30
-0.330033987761
 11
0.757462024689
 21
-0.210094004869
 31
-0.227044001222
  0
LINE
  8
0
 10
0.849461972713
 20
-0.179079994559
 30
-0.441105008125
 11
-0.418280005455
 21
-0.1816650033
 31
-0.425897985697
  0
LINE
  8
0
 10
-0.445142000914
 20
-0.144227996469
 30
-0.460759997368
 11
0.84978300333
 21
-0.149410992861
 31
-0.460727006197
  0
LINE
  8
0
 10
-0.44437199831
 20
-0.0904849991202
 30
-0.474705010653
 11
0.84978300333
 21
-0.149410992861
 31
-0.460727006197
  0
LINE
  8
0
 10
-0.869768023491
 20
-0.135048002005
 30
-0.441062986851
 11
-0.445463001728
 21
-0.173898994923
 31
-0.441139012575
  0
LINE
  8
0
 10
-0.869768023491
 20
-0.135048002005
 30
-0.441062986851
 11
-0.450410991907
 21
-0.189438000321
 31
-0.405333995819
  0
LINE
  8
0
 10
-0.869768023491
 20
-0.135048002005
 30
-0.441062986851
 11
-0.445142000914
 21
-0.144227996469
 31
-0.460759997368
  0
LINE
  8
0
 10
-0.868665993214
 20
-0.0429890006781
 30
-0.47462901473
 11
-0.869450986385
 21
-0.108413003385
 31
-0.460685014725
  0
LINE
  8
0
 10
-0.869450986385
 20
-0.108413003385
 30
-0.460685014725
 11
-0.44437199831
 21
-0.0904849991202
 31
-0.474705010653
  0
LINE
  8
0
 10
-0.44437199831
 20
-0.0904849991202
 30
-0.474705010653
 11
-0.445142000914
 21
-0.144227996469
 31
-0.460759997368
  0
LINE
  8
0
 10
-0.869450986385
 20
-0.108413003385
 30
-0.460685014725
 11
-0.445142000914
 21
-0.144227996469
 31
-0.460759997368
  0
LINE
  8
0
 10
-0.868665993214
 20
-0.0429890006781
 30
-0.47462901473
 11
-0.44437199831
 21
-0.0904849991202
 31
-0.474705010653
  0
LINE
  8
0
 10
-0.868665993214
 20
-0.0429890006781
 30
-0.47462901473
 11
-0.868553996086
 21
0.0455229990184
 31
-0.47462901473
  0
LINE
  8
0
 10
-0.44437199831
 20
-0.0904849991202
 30
-0.474705010653
 11
-0.868553996086
 21
0.0455229990184
 31
-0.47462901473
  0
LINE
  8
0
 10
-0.869812011719
 20
-0.169731006026
 30
-0.227001994848
 11
-0.445502012968
 21
-0.20497700572
 31
-0.227078005672
  0
LINE
  8
0
 10
-0.445502012968
 20
-0.20497700572
 30
-0.227078005672
 11
-0.801456987858
 21
-0.199447005987
 31
-0.163668006659
  0
LINE
  8
0
 10
-0.445502012968
 20
-0.20497700572
 30
-0.227078005672
 11
-0.214609995484
 21
-0.214356005192
 31
-0.182883992791
  0
LINE
  8
0
 10
-0.869812011719
 20
-0.169731006026
 30
-0.227001994848
 11
-0.445493012667
 21
-0.197809994221
 31
-0.330033987761
  0
LINE
  8
0
 10
-0.869781017303
 20
-0.145435005426
 30
-0.405259013176
 11
-0.450410991907
 21
-0.189438000321
 31
-0.405333995819
  0
LINE
  8
0
 10
-0.869790017605
 20
-0.152790993452
 30
-0.329957991838
 11
-0.450410991907
 21
-0.189438000321
 31
-0.405333995819
  0
LINE
  8
0
 10
-0.445493012667
 20
-0.197809994221
 30
-0.330033987761
 11
-0.450410991907
 21
-0.189438000321
 31
-0.405333995819
  0
LINE
  8
0
 10
-0.869790017605
 20
-0.152790993452
 30
-0.329957991838
 11
-0.445493012667
 21
-0.197809994221
 31
-0.330033987761
  0
LINE
  8
0
 10
-1.14833796024
 20
-0.166191995144
 30
-0.149816006422
 11
-0.801456987858
 21
-0.199447005987
 31
-0.163668006659
  0
LINE
  8
0
 10
-0.869812011719
 20
-0.169731006026
 30
-0.227001994848
 11
-0.801456987858
 21
-0.199447005987
 31
-0.163668006659
  0
LINE
  8
0
 10
-1.14842605591
 20
-0.116801001132
 30
-0.22692899406
 11
-1.14833796024
 21
-0.166191995144
 31
-0.149816006422
  0
LINE
  8
0
 10
-1.14833796024
 20
-0.166191995144
 30
-0.149816006422
 11
-0.869812011719
 21
-0.169731006026
 31
-0.227001994848
  0
LINE
  8
0
 10
-1.14842605591
 20
-0.116801001132
 30
-0.22692899406
 11
-0.869790017605
 21
-0.152790993452
 31
-0.329957991838
  0
LINE
  8
0
 10
-0.869790017605
 20
-0.152790993452
 30
-0.329957991838
 11
-0.869812011719
 21
-0.169731006026
 31
-0.227001994848
  0
LINE
  8
0
 10
-1.14842605591
 20
-0.116801001132
 30
-0.22692899406
 11
-0.869812011719
 21
-0.169731006026
 31
-0.227001994848
  0
LINE
  8
0
 10
-1.14840304852
 20
-0.0987759977579
 30
-0.329885005951
 11
-0.869781017303
 21
-0.145435005426
 31
-0.405259013176
  0
LINE
  8
0
 10
-0.869781017303
 20
-0.145435005426
 30
-0.405259013176
 11
-0.869790017605
 21
-0.152790993452
 31
-0.329957991838
  0
LINE
  8
0
 10
-1.14840304852
 20
-0.0987759977579
 30
-0.329885005951
 11
-0.869790017605
 21
-0.152790993452
 31
-0.329957991838
  0
LINE
  8
0
 10
-1.14840304852
 20
-0.0985200032592
 30
-0.405185997486
 11
-0.869768023491
 21
-0.135048002005
 31
-0.441062986851
  0
LINE
  8
0
 10
-0.869768023491
 20
-0.135048002005
 30
-0.441062986851
 11
-0.869781017303
 21
-0.145435005426
 31
-0.405259013176
  0
LINE
  8
0
 10
-1.14840304852
 20
-0.0985200032592
 30
-0.405185997486
 11
-0.869781017303
 21
-0.145435005426
 31
-0.405259013176
  0
LINE
  8
0
 10
-1.14808797836
 20
-0.0737169981003
 30
-0.460610985756
 11
-0.869450986385
 21
-0.108413003385
 31
-0.460685014725
  0
LINE
  8
0
 10
-1.14840197563
 20
-0.097292996943
 30
-0.440990000963
 11
-0.869450986385
 21
-0.108413003385
 31
-0.460685014725
  0
LINE
  8
0
 10
-0.869450986385
 20
-0.108413003385
 30
-0.460685014725
 11
-0.869768023491
 21
-0.135048002005
 31
-0.441062986851
  0
LINE
  8
0
 10
-1.14840197563
 20
-0.097292996943
 30
-0.440990000963
 11
-0.869768023491
 21
-0.135048002005
 31
-0.441062986851
  0
LINE
  8
0
 10
-1.14731395245
 20
-0.0164850000292
 30
-0.474555999041
 11
-0.868665993214
 21
-0.0429890006781
 31
-0.47462901473
  0
LINE
  8
0
 10
-1.14808797836
 20
-0.0737169981003
 30
-0.460610985756
 11
-0.868665993214
 21
-0.0429890006781
 31
-0.47462901473
  0
LINE
  8
0
 10
-1.14731395245
 20
-0.0164850000292
 30
-0.474555999041
 11
-0.868553996086
 21
0.0455229990184
 31
-0.47462901473
  0
LINE
  8
0
 10
-1.49033999443
 20
-0.129764005542
 30
-0.136614993215
 11
-1.49000501633
 21
0.133792996407
 31
-0.136611998081
  0
LINE
  8
0
 10
-1.14833796024
 20
-0.166191995144
 30
-0.149816006422
 11
-1.49000501633
 21
0.133792996407
 31
-0.136611998081
  0
LINE
  8
0
 10
-1.14833796024
 20
-0.166191995144
 30
-0.149816006422
 11
-1.14791297913
 21
0.16945900023
 31
-0.149814993143
  0
LINE
  8
0
 10
-1.49035298824
 20
-0.0718780010939
 30
-0.226863995194
 11
-1.49033999443
 21
-0.129764005542
 31
-0.136614993215
  0
LINE
  8
0
 10
-1.49035298824
 20
-0.0718780010939
 30
-0.226863995194
 11
-1.14842605591
 21
-0.116801001132
 31
-0.22692899406
  0
LINE
  8
0
 10
-1.49033999443
 20
-0.129764005542
 30
-0.136614993215
 11
-1.14842605591
 21
-0.116801001132
 31
-0.22692899406
  0
LINE
  8
0
 10
-1.49033999443
 20
-0.129764005542
 30
-0.136614993215
 11
-1.14833796024
 21
-0.166191995144
 31
-0.149816006422
  0
LINE
  8
0
 10
-1.4903370142
 20
-0.0596549995244
 30
-0.329820007086
 11
-1.14840304852
 21
-0.0987759977579
 31
-0.329885005951
  0
LINE
  8
0
 10
-1.49035298824
 20
-0.0718780010939
 30
-0.226863995194
 11
-1.14840304852
 21
-0.0987759977579
 31
-0.329885005951
  0
LINE
  8
0
 10
-1.14840304852
 20
-0.0987759977579
 30
-0.329885005951
 11
-1.14842605591
 21
-0.116801001132
 31
-0.22692899406
  0
LINE
  8
0
 10
-1.4903370142
 20
-0.0595699995756
 30
-0.405120998621
 11
-1.4903370142
 21
-0.0596549995244
 31
-0.329820007086
  0
LINE
  8
0
 10
-1.4903370142
 20
-0.0596549995244
 30
-0.329820007086
 11
-1.14840304852
 21
-0.0985200032592
 31
-0.405185997486
  0
LINE
  8
0
 10
-1.14840304852
 20
-0.0985200032592
 30
-0.405185997486
 11
-1.14840304852
 21
-0.0987759977579
 31
-0.329885005951
  0
LINE
  8
0
 10
-1.4903370142
 20
-0.0595699995756
 30
-0.405120998621
 11
-1.4903370142
 21
-0.059549998492
 31
-0.440925002098
  0
LINE
  8
0
 10
-1.4903370142
 20
-0.059549998492
 30
-0.440925002098
 11
-1.14840197563
 21
-0.097292996943
 31
-0.440990000963
  0
LINE
  8
0
 10
-1.4903370142
 20
-0.0595699995756
 30
-0.405120998621
 11
-1.14840197563
 21
-0.097292996943
 31
-0.440990000963
  0
LINE
  8
0
 10
-1.14840197563
 20
-0.097292996943
 30
-0.440990000963
 11
-1.14840304852
 21
-0.0985200032592
 31
-0.405185997486
  0
LINE
  8
0
 10
-1.4903370142
 20
-0.0595699995756
 30
-0.405120998621
 11
-1.14840304852
 21
-0.0985200032592
 31
-0.405185997486
  0
LINE
  8
0
 10
-1.49015700817
 20
-0.0437760017812
 30
-0.460545986891
 11
-1.4903370142
 21
-0.059549998492
 31
-0.440925002098
  0
LINE
  8
0
 10
-1.49015700817
 20
-0.0437760017812
 30
-0.460545986891
 11
-1.14808797836
 21
-0.0737169981003
 31
-0.460610985756
  0
LINE
  8
0
 10
-1.4903370142
 20
-0.059549998492
 30
-0.440925002098
 11
-1.14808797836
 21
-0.0737169981003
 31
-0.460610985756
  0
LINE
  8
0
 10
-1.14808797836
 20
-0.0737169981003
 30
-0.460610985756
 11
-1.14840197563
 21
-0.097292996943
 31
-0.440990000963
  0
LINE
  8
0
 10
-1.48971104622
 20
-0.00487999990582
 30
-0.474491000175
 11
-1.49015700817
 21
-0.0437760017812
 31
-0.460545986891
  0
LINE
  8
0
 10
-1.48971104622
 20
-0.00487999990582
 30
-0.474491000175
 11
-1.14731395245
 21
-0.0164850000292
 31
-0.474555999041
  0
LINE
  8
0
 10
-1.49015700817
 20
-0.0437760017812
 30
-0.460545986891
 11
-1.14731395245
 21
-0.0164850000292
 31
-0.474555999041
  0
LINE
  8
0
 10
-1.14731395245
 20
-0.0164850000292
 30
-0.474555999041
 11
-1.14808797836
 21
-0.0737169981003
 31
-0.460610985756
  0
LINE
  8
0
 10
-1.14726805687
 20
0.0197509992868
 30
-0.474555999041
 11
-1.48969304562
 21
0.00890799984336
 31
-0.474491000175
  0
LINE
  8
0
 10
-1.14731395245
 20
-0.0164850000292
 30
-0.474555999041
 11
-1.14726805687
 21
0.0197509992868
 31
-0.474555999041
  0
LINE
  8
0
 10
-1.14731395245
 20
-0.0164850000292
 30
-0.474555999041
 11
-1.48969304562
 21
0.00890799984336
 31
-0.474491000175
  0
LINE
  8
0
 10
-1.5782020092
 20
-0.0415959991515
 30
-0.44109800458
 11
-1.57795894146
 21
-0.028920000419
 31
-0.461436986923
  0
LINE
  8
0
 10
-1.5782020092
 20
-0.0415959991515
 30
-0.44109800458
 11
-1.49015700817
 21
-0.0437760017812
 31
-0.460545986891
  0
LINE
  8
0
 10
-2.03319501877
 20
0.00263400003314
 30
-0.226863995194
 11
-1.75841200352
 21
-0.0813869982958
 31
-0.123414002359
  0
LINE
  8
0
 10
-2.03319501877
 20
0.00263400003314
 30
-0.226863995194
 11
-2.18859791756
 21
0.00279999990016
 31
-0.0993259996176
  0
LINE
  8
0
 10
-1.57822501659
 20
-0.0598650015891
 30
-0.226863995194
 11
-1.75835800171
 21
-0.0252080000937
 31
-0.226863995194
  0
LINE
  8
0
 10
-1.57822501659
 20
-0.0598650015891
 30
-0.226863995194
 11
-1.75841200352
 21
-0.0813869982958
 31
-0.123414002359
  0
LINE
  8
0
 10
-1.75835800171
 20
-0.0252080000937
 30
-0.226863995194
 11
-1.75841200352
 21
-0.0813869982958
 31
-0.123414002359
  0
LINE
  8
0
 10
-1.57822501659
 20
-0.0598650015891
 30
-0.226863995194
 11
-1.57822799683
 21
-0.113643996418
 31
-0.132396996021
  0
LINE
  8
0
 10
-1.57822799683
 20
-0.113643996418
 30
-0.132396996021
 11
-1.75841200352
 21
-0.0813869982958
 31
-0.123414002359
  0
LINE
  8
0
 10
-1.49035298824
 20
-0.0718780010939
 30
-0.226863995194
 11
-1.57822799683
 21
-0.113643996418
 31
-0.132396996021
  0
LINE
  8
0
 10
-1.49033999443
 20
-0.129764005542
 30
-0.136614993215
 11
-1.57822799683
 21
-0.113643996418
 31
-0.132396996021
  0
LINE
  8
0
 10
-1.5782109499
 20
-0.0485889986157
 30
-0.329820007086
 11
-1.57822501659
 21
-0.0598650015891
 31
-0.226863995194
  0
LINE
  8
0
 10
-1.4903370142
 20
-0.0596549995244
 30
-0.329820007086
 11
-1.49035298824
 21
-0.0718780010939
 31
-0.226863995194
  0
LINE
  8
0
 10
-1.57822501659
 20
-0.0598650015891
 30
-0.226863995194
 11
-1.49035298824
 21
-0.0718780010939
 31
-0.226863995194
  0
LINE
  8
0
 10
-1.4903370142
 20
-0.0596549995244
 30
-0.329820007086
 11
-1.57822501659
 21
-0.0598650015891
 31
-0.226863995194
  0
LINE
  8
0
 10
-1.75834798813
 20
-0.0171830002218
 30
-0.329820007086
 11
-1.75835800171
 21
-0.0252080000937
 31
-0.226863995194
  0
LINE
  8
0
 10
-1.93319094181
 20
0.00252899993211
 30
-0.329820007086
 11
-1.75835800171
 21
-0.0252080000937
 31
-0.226863995194
  0
LINE
  8
0
 10
-1.75835800171
 20
-0.0252080000937
 30
-0.226863995194
 11
-2.03319501877
 21
0.00263400003314
 31
-0.226863995194
  0
LINE
  8
0
 10
-1.93319094181
 20
0.00252899993211
 30
-0.329820007086
 11
-2.03319501877
 21
0.00263400003314
 31
-0.226863995194
  0
LINE
  8
0
 10
-1.5782109499
 20
-0.0485889986157
 30
-0.329820007086
 11
-1.75834798813
 21
-0.0171830002218
 31
-0.329820007086
  0
LINE
  8
0
 10
-1.5782109499
 20
-0.0485889986157
 30
-0.329820007086
 11
-1.75835800171
 21
-0.0252080000937
 31
-0.226863995194
  0
LINE
  8
0
 10
-1.75835800171
 20
-0.0252080000937
 30
-0.44020101428
 11
-1.90096700191
 21
0.00249299989082
 31
-0.405120998621
  0
LINE
  8
0
 10
-1.75835800171
 20
-0.0252080000937
 30
-0.44020101428
 11
-1.75834798813
 21
-0.0171830002218
 31
-0.405120998621
  0
LINE
  8
0
 10
-1.75834798813
 20
-0.0171830002218
 30
-0.405120998621
 11
-1.90096700191
 21
0.00249299989082
 31
-0.405120998621
  0
LINE
  8
0
 10
-1.75834798813
 20
-0.0171830002218
 30
-0.405120998621
 11
-1.75834798813
 21
-0.0171830002218
 31
-0.329820007086
  0
LINE
  8
0
 10
-1.90096700191
 20
0.00249299989082
 30
-0.405120998621
 11
-1.75834798813
 21
-0.0171830002218
 31
-0.329820007086
  0
LINE
  8
0
 10
-1.93319094181
 20
0.00252899993211
 30
-0.329820007086
 11
-1.75834798813
 21
-0.0171830002218
 31
-0.329820007086
  0
LINE
  8
0
 10
-1.90096700191
 20
0.00249299989082
 30
-0.405120998621
 11
-1.93319094181
 21
0.00252899993211
 31
-0.329820007086
  0
LINE
  8
0
 10
-1.5782109499
 20
-0.0485629998147
 30
-0.405120998621
 11
-1.75834798813
 21
-0.0171830002218
 31
-0.329820007086
  0
LINE
  8
0
 10
-1.5782109499
 20
-0.0485629998147
 30
-0.405120998621
 11
-1.5782109499
 21
-0.0485889986157
 31
-0.329820007086
  0
LINE
  8
0
 10
-1.4903370142
 20
-0.0595699995756
 30
-0.405120998621
 11
-1.5782109499
 21
-0.0485889986157
 31
-0.329820007086
  0
LINE
  8
0
 10
-1.4903370142
 20
-0.0596549995244
 30
-0.329820007086
 11
-1.5782109499
 21
-0.0485889986157
 31
-0.329820007086
  0
LINE
  8
0
 10
-1.75835800171
 20
-0.0252080000937
 30
-0.44020101428
 11
-1.5782020092
 21
-0.0415959991515
 31
-0.44109800458
  0
LINE
  8
0
 10
-1.5782109499
 20
-0.0485629998147
 30
-0.405120998621
 11
-1.5782020092
 21
-0.0415959991515
 31
-0.44109800458
  0
LINE
  8
0
 10
-1.75835800171
 20
-0.0252080000937
 30
-0.44020101428
 11
-1.5782109499
 21
-0.0485629998147
 31
-0.405120998621
  0
LINE
  8
0
 10
-1.5782109499
 20
-0.0485629998147
 30
-0.405120998621
 11
-1.75834798813
 21
-0.0171830002218
 31
-0.405120998621
  0
LINE
  8
0
 10
-1.5782020092
 20
-0.0415959991515
 30
-0.44109800458
 11
-1.4903370142
 21
-0.059549998492
 31
-0.440925002098
  0
LINE
  8
0
 10
-1.5782109499
 20
-0.0485629998147
 30
-0.405120998621
 11
-1.4903370142
 21
-0.059549998492
 31
-0.440925002098
  0
LINE
  8
0
 10
-1.4903370142
 20
-0.0595699995756
 30
-0.405120998621
 11
-1.5782109499
 21
-0.0485629998147
 31
-0.405120998621
  0
LINE
  8
0
 10
-1.75811302662
 20
-0.0206429995596
 30
-0.474491000175
 11
-1.75835800171
 21
-0.0252080000937
 31
-0.44020101428
  0
LINE
  8
0
 10
-1.75811302662
 20
-0.0206429995596
 30
-0.474491000175
 11
-1.57795894146
 21
-0.028920000419
 31
-0.461436986923
  0
LINE
  8
0
 10
-1.48971104622
 20
-0.00487999990582
 30
-0.474491000175
 11
-1.57795894146
 21
-0.028920000419
 31
-0.461436986923
  0
LINE
  8
0
 10
-1.57748103142
 20
-0.0090159997344
 30
-0.484629005194
 11
-1.57795894146
 21
-0.028920000419
 31
-0.461436986923
  0
LINE
  8
0
 10
-1.57795894146
 20
-0.028920000419
 30
-0.461436986923
 11
-1.49015700817
 21
-0.0437760017812
 31
-0.460545986891
  0
LINE
  8
0
 10
-1.75811302662
 20
-0.0206429995596
 30
-0.474491000175
 11
-1.93124699593
 21
-0.0228070002049
 31
-0.445683985949
  0
LINE
  8
0
 10
-1.75811302662
 20
-0.0206429995596
 30
-0.474491000175
 11
-1.92249202728
 21
-0.00089000002481
 31
-0.44020101428
  0
LINE
  8
0
 10
-1.75835800171
 20
-0.0252080000937
 30
-0.44020101428
 11
-1.92249202728
 21
-0.00089000002481
 31
-0.44020101428
  0
LINE
  8
0
 10
-1.97575902939
 20
-0.0174330007285
 30
-0.542011976242
 11
-1.98790001869
 21
-0.00711800018325
 31
-0.520801007748
  0
LINE
  8
0
 10
-1.97575902939
 20
-0.0174330007285
 30
-0.542011976242
 11
-1.97573399544
 21
0.0025649999734
 31
-0.541806995869
  0
LINE
  8
0
 10
-1.98790001869
 20
-0.00711800018325
 30
-0.520801007748
 11
-1.98788797855
 21
0.00257800007239
 31
-0.520714998245
  0
LINE
  8
0
 10
-1.97573399544
 20
0.0025649999734
 30
-0.541806995869
 11
-1.98788797855
 21
0.00257800007239
 31
-0.520714998245
  0
LINE
  8
0
 10
-1.98790001869
 20
-0.00711800018325
 30
-0.520801007748
 11
-1.97573399544
 21
0.0025649999734
 31
-0.541806995869
  0
LINE
  8
0
 10
-1.93124699593
 20
-0.0220609996468
 30
-0.551440000534
 11
-1.93121504784
 21
0.00251500005834
 31
-0.551181018353
  0
LINE
  8
0
 10
-1.97575902939
 20
-0.0174330007285
 30
-0.542011976242
 11
-1.93121504784
 21
0.00251500005834
 31
-0.551181018353
  0
LINE
  8
0
 10
-1.75811195374
 20
-0.019974000752
 30
-0.561433970928
 11
-1.93124699593
 21
-0.0220609996468
 31
-0.551440000534
  0
LINE
  8
0
 10
-1.75811195374
 20
-0.019974000752
 30
-0.561433970928
 11
-1.93121504784
 21
0.00251500005834
 31
-0.551181018353
  0
LINE
  8
0
 10
-1.75811195374
 20
-0.019974000752
 30
-0.561433970928
 11
-1.75808405876
 21
0.00231299991719
 31
-0.561201989651
  0
LINE
  8
0
 10
-1.57747995853
 20
-0.00872899964452
 30
-0.527599990368
 11
-1.75808405876
 21
0.00231299991719
 31
-0.561201989651
  0
LINE
  8
0
 10
-1.57746696472
 20
0.0021120000165
 30
-0.527495980263
 11
-1.75808405876
 21
0.00231299991719
 31
-0.561201989651
  0
LINE
  8
0
 10
-1.48970997334
 20
-0.00424899999052
 30
-0.485125988722
 11
-1.57747995853
 21
-0.00872899964452
 31
-0.527599990368
  0
LINE
  8
0
 10
-1.57747995853
 20
-0.00872899964452
 30
-0.527599990368
 11
-1.57746696472
 21
0.0021120000165
 31
-0.527495980263
  0
LINE
  8
0
 10
-1.48970997334
 20
-0.00424899999052
 30
-0.485125988722
 11
-1.57746696472
 21
0.0021120000165
 31
-0.527495980263
  0
LINE
  8
0
 10
-1.48970198631
 20
0.00201399996877
 30
-0.485110998154
 11
-1.57746696472
 21
0.0021120000165
 31
-0.527495980263
  0
LINE
  8
0
 10
-1.98791396618
 20
-0.017888000235
 30
-0.511913001537
 11
-1.97575902939
 21
-0.0174330007285
 31
-0.542011976242
  0
LINE
  8
0
 10
-1.97579205036
 20
-0.0431150011718
 30
-0.520817995071
 11
-1.97575902939
 21
-0.0174330007285
 31
-0.542011976242
  0
LINE
  8
0
 10
-1.98791396618
 20
-0.017888000235
 30
-0.511913001537
 11
-1.98790001869
 21
-0.00711800018325
 31
-0.520801007748
  0
LINE
  8
0
 10
-1.93128800392
 20
-0.0543709993362
 30
-0.524775981903
 11
-1.97579205036
 21
-0.0431150011718
 31
-0.520817995071
  0
LINE
  8
0
 10
-1.93124699593
 20
-0.0220609996468
 30
-0.551440000534
 11
-1.97575902939
 21
-0.0174330007285
 31
-0.542011976242
  0
LINE
  8
0
 10
-1.97579205036
 20
-0.0431150011718
 30
-0.520817995071
 11
-1.93124699593
 21
-0.0220609996468
 31
-0.551440000534
  0
LINE
  8
0
 10
-1.93128800392
 20
-0.0543709993362
 30
-0.524775981903
 11
-1.93124699593
 21
-0.0220609996468
 31
-0.551440000534
  0
LINE
  8
0
 10
-1.75814902782
 20
-0.0489699989557
 30
-0.537504971027
 11
-1.93124699593
 21
-0.0220609996468
 31
-0.551440000534
  0
LINE
  8
0
 10
-1.57749605179
 20
-0.0211559999734
 30
-0.516954004765
 11
-1.75814902782
 21
-0.0489699989557
 31
-0.537504971027
  0
LINE
  8
0
 10
-1.57749605179
 20
-0.0211559999734
 30
-0.516954004765
 11
-1.57747995853
 21
-0.00872899964452
 31
-0.527599990368
  0
LINE
  8
0
 10
-1.75814902782
 20
-0.0489699989557
 30
-0.537504971027
 11
-1.75811195374
 21
-0.019974000752
 31
-0.561433970928
  0
LINE
  8
0
 10
-1.57747995853
 20
-0.00872899964452
 30
-0.527599990368
 11
-1.75811195374
 21
-0.019974000752
 31
-0.561433970928
  0
LINE
  8
0
 10
-1.75814902782
 20
-0.0489699989557
 30
-0.537504971027
 11
-1.57747995853
 21
-0.00872899964452
 31
-0.527599990368
  0
LINE
  8
0
 10
-1.57749605179
 20
-0.0211559999734
 30
-0.516954004765
 11
-1.48970997334
 21
-0.00424899999052
 31
-0.485125988722
  0
LINE
  8
0
 10
-1.48971700668
 20
-0.010048000142
 30
-0.483581990004
 11
-1.48970997334
 21
-0.00424899999052
 31
-0.485125988722
  0
LINE
  8
0
 10
-1.97579205036
 20
-0.0433610007167
 30
-0.49064001441
 11
-1.97579205036
 21
-0.0431150011718
 31
-0.520817995071
  0
LINE
  8
0
 10
-1.98791396618
 20
-0.0179910007864
 30
-0.49925801158
 11
-1.98791396618
 21
-0.017888000235
 31
-0.511913001537
  0
LINE
  8
0
 10
-1.97579205036
 20
-0.0431150011718
 30
-0.520817995071
 11
-1.98791396618
 21
-0.017888000235
 31
-0.511913001537
  0
LINE
  8
0
 10
-1.98791396618
 20
-0.0179910007864
 30
-0.49925801158
 11
-1.97579205036
 21
-0.0431150011718
 31
-0.520817995071
  0
LINE
  8
0
 10
-1.93128800392
 20
-0.0546800009906
 30
-0.486809998751
 11
-1.97579205036
 21
-0.0433610007167
 31
-0.49064001441
  0
LINE
  8
0
 10
-1.97579205036
 20
-0.0433610007167
 30
-0.49064001441
 11
-1.93128800392
 21
-0.0543709993362
 31
-0.524775981903
  0
LINE
  8
0
 10
-1.7581499815
 20
-0.0492470003664
 30
-0.50343298912
 11
-1.93128800392
 21
-0.0546800009906
 31
-0.486809998751
  0
LINE
  8
0
 10
-1.93128800392
 20
-0.0546800009906
 30
-0.486809998751
 11
-1.93128800392
 21
-0.0543709993362
 31
-0.524775981903
  0
LINE
  8
0
 10
-1.7581499815
 20
-0.0492470003664
 30
-0.50343298912
 11
-1.93128800392
 21
-0.0543709993362
 31
-0.524775981903
  0
LINE
  8
0
 10
-1.75814902782
 20
-0.0489699989557
 30
-0.537504971027
 11
-1.93128800392
 21
-0.0543709993362
 31
-0.524775981903
  0
LINE
  8
0
 10
-1.7581499815
 20
-0.0492470003664
 30
-0.50343298912
 11
-1.75814902782
 21
-0.0489699989557
 31
-0.537504971027
  0
LINE
  8
0
 10
-1.7581499815
 20
-0.0492470003664
 30
-0.50343298912
 11
-1.57749605179
 21
-0.0211559999734
 31
-0.516954004765
  0
LINE
  8
0
 10
-1.57749605179
 20
-0.0212750006467
 30
-0.501793980598
 11
-1.57749605179
 21
-0.0211559999734
 31
-0.516954004765
  0
LINE
  8
0
 10
-1.48971700668
 20
-0.010048000142
 30
-0.483581990004
 11
-1.57749605179
 21
-0.0211559999734
 31
-0.516954004765
  0
LINE
  8
0
 10
-1.57749605179
 20
-0.0212750006467
 30
-0.501793980598
 11
-1.48971700668
 21
-0.010048000142
 31
-0.483581990004
  0
LINE
  8
0
 10
-1.97575998306
 20
-0.0180259998888
 30
-0.469155997038
 11
-1.98790001869
 21
-0.00736699998379
 31
-0.490247994661
  0
LINE
  8
0
 10
-1.97575998306
 20
-0.0180259998888
 30
-0.469155997038
 11
-1.98791396618
 21
-0.0179910007864
 31
-0.49925801158
  0
LINE
  8
0
 10
-1.97579205036
 20
-0.0433610007167
 30
-0.49064001441
 11
-1.98791396618
 21
-0.0179910007864
 31
-0.49925801158
  0
LINE
  8
0
 10
-1.97575998306
 20
-0.0180259998888
 30
-0.469155997038
 11
-1.97579205036
 21
-0.0433610007167
 31
-0.49064001441
  0
LINE
  8
0
 10
-1.97575998306
 20
-0.0180259998888
 30
-0.469155997038
 11
-1.93128800392
 21
-0.0546800009906
 31
-0.486809998751
  0
LINE
  8
0
 10
-1.93124699593
 20
-0.0228070002049
 30
-0.445683985949
 11
-1.93128800392
 21
-0.0546800009906
 31
-0.486809998751
  0
LINE
  8
0
 10
-1.75811302662
 20
-0.0206429995596
 30
-0.474491000175
 11
-1.93128800392
 21
-0.0546800009906
 31
-0.486809998751
  0
LINE
  8
0
 10
-1.57748103142
 20
-0.0090159997344
 30
-0.484629005194
 11
-1.75811302662
 21
-0.0206429995596
 31
-0.474491000175
  0
LINE
  8
0
 10
-1.57748103142
 20
-0.0090159997344
 30
-0.484629005194
 11
-1.57749605179
 21
-0.0212750006467
 31
-0.501793980598
  0
LINE
  8
0
 10
-1.75811302662
 20
-0.0206429995596
 30
-0.474491000175
 11
-1.7581499815
 21
-0.0492470003664
 31
-0.50343298912
  0
LINE
  8
0
 10
-1.57749605179
 20
-0.0212750006467
 30
-0.501793980598
 11
-1.7581499815
 21
-0.0492470003664
 31
-0.50343298912
  0
LINE
  8
0
 10
-1.75811302662
 20
-0.0206429995596
 30
-0.474491000175
 11
-1.57749605179
 21
-0.0212750006467
 31
-0.501793980598
  0
LINE
  8
0
 10
-1.48971104622
 20
-0.00487999990582
 30
-0.474491000175
 11
-1.57748103142
 21
-0.0090159997344
 31
-0.484629005194
  0
LINE
  8
0
 10
-1.57748103142
 20
-0.0090159997344
 30
-0.484629005194
 11
-1.48971700668
 21
-0.0101030003279
 31
-0.481384009123
  0
LINE
  8
0
 10
-1.48971700668
 20
-0.0101030003279
 30
-0.481384009123
 11
-1.57749605179
 21
-0.0212750006467
 31
-0.501793980598
  0
LINE
  8
0
 10
-1.97573399544
 20
0.0025649999734
 30
-0.468950003386
 11
-1.98788797855
 21
0.00257800007239
 31
-0.490161985159
  0
LINE
  8
0
 10
-1.98788797855
 20
0.00257800007239
 30
-0.490161985159
 11
-1.98790001869
 21
-0.00736699998379
 31
-0.490247994661
  0
LINE
  8
0
 10
-1.97573399544
 20
0.0025649999734
 30
-0.468950003386
 11
-1.98790001869
 21
-0.00736699998379
 31
-0.490247994661
  0
LINE
  8
0
 10
-1.97573399544
 20
0.0025649999734
 30
-0.468950003386
 11
-1.97575998306
 21
-0.0180259998888
 31
-0.469155997038
  0
LINE
  8
0
 10
-1.93121504784
 20
0.00251500005834
 30
-0.445683985949
 11
-1.93124699593
 21
-0.0228070002049
 31
-0.445683985949
  0
LINE
  8
0
 10
-1.93124699593
 20
-0.0228070002049
 30
-0.445683985949
 11
-1.97575998306
 21
-0.0180259998888
 31
-0.469155997038
  0
LINE
  8
0
 10
-1.93121504784
 20
0.00251500005834
 30
-0.445683985949
 11
-1.97573399544
 21
0.0025649999734
 31
-0.468950003386
  0
LINE
  8
0
 10
-1.93121504784
 20
0.00251500005834
 30
-0.445683985949
 11
-1.97575998306
 21
-0.0180259998888
 31
-0.469155997038
  0
LINE
  8
0
 10
-0.560654997826
 20
0.208781003952
 30
0.0896899998188
 11
-0.58864402771
 21
0.053123999387
 31
0.0910440012813
  0
LINE
  8
0
 10
-0.560829997063
 20
0.0702290013433
 30
0.0896899998188
 11
-0.58864402771
 21
0.053123999387
 31
0.0910440012813
  0
LINE
  8
0
 10
-0.560829997063
 20
0.0702290013433
 30
0.0896899998188
 11
-0.561006009579
 21
-0.0683230012655
 31
0.0896899998188
  0
LINE
  8
0
 10
-0.561006009579
 20
-0.0683230012655
 30
0.0896899998188
 11
-0.58864402771
 21
0.053123999387
 31
0.0910440012813
  0
LINE
  8
0
 10
-0.58864402771
 20
0.053123999387
 30
0.0910440012813
 11
-0.588831007481
 21
-0.0510820001364
 31
0.0910440012813
  0
LINE
  8
0
 10
-0.561006009579
 20
-0.0683230012655
 30
0.0896899998188
 11
-0.588831007481
 21
-0.0510820001364
 31
0.0910440012813
  0
LINE
  8
0
 10
-0.561181008816
 20
-0.206873998046
 30
0.0896899998188
 11
-0.588831007481
 21
-0.0510820001364
 31
0.0910440012813
  0
LINE
  8
0
 10
-0.766511023045
 20
0.170838996768
 30
0.0943010002375
 11
-0.6600689888
 21
0.0518030002713
 31
0.0926439985633
  0
LINE
  8
0
 10
-0.766939997673
 20
-0.168411001563
 30
0.0943010002375
 11
-0.766511023045
 21
0.170838996768
 31
0.0943010002375
  0
LINE
  8
0
 10
-0.766939997673
 20
-0.168411001563
 30
0.0943010002375
 11
-0.6600689888
 21
0.0518030002713
 31
0.0926439985633
  0
LINE
  8
0
 10
-0.6600689888
 20
0.0518030002713
 30
0.0926439985633
 11
-0.660251021385
 21
-0.0496219992638
 31
0.0926439985633
  0
LINE
  8
0
 10
-0.766939997673
 20
-0.168411001563
 30
0.0943010002375
 11
-0.660251021385
 21
-0.0496219992638
 31
0.0926439985633
  0
LINE
  8
0
 10
-0.735947012901
 20
-0.200588002801
 30
0.0936060026288
 11
-0.766939997673
 21
-0.168411001563
 31
0.0943010002375
  0
LINE
  8
0
 10
0.341365993023
 20
0.0722670033574
 30
-0.0774760022759
 11
0.146790996194
 21
0.11518599838
 31
-0.0772679969668
  0
LINE
  8
0
 10
0.341365993023
 20
0.0722670033574
 30
-0.0774760022759
 11
0.115897998214
 21
0.0875800028443
 31
-0.0771389976144
  0
LINE
  8
0
 10
0.115897998214
 20
0.0875800028443
 30
-0.0771389976144
 11
0.115754000843
 21
-0.0873029977083
 31
-0.0771389976144
  0
LINE
  8
0
 10
0.341365993023
 20
0.0722670033574
 30
-0.0774760022759
 11
0.341181993484
 21
-0.0724970027804
 31
-0.0774760022759
  0
LINE
  8
0
 10
0.341365993023
 20
0.0722670033574
 30
-0.0774760022759
 11
0.115754000843
 21
-0.0873029977083
 31
-0.0771389976144
  0
LINE
  8
0
 10
0.341181993484
 20
-0.0724970027804
 30
-0.0774760022759
 11
0.146602004766
 21
-0.114963002503
 31
-0.0772679969668
  0
LINE
  8
0
 10
0.341181993484
 20
-0.0724970027804
 30
-0.0774760022759
 11
0.115754000843
 21
-0.0873029977083
 31
-0.0771389976144
  0
LINE
  8
0
 10
0.146602004766
 20
-0.114963002503
 30
-0.0772679969668
 11
0.115754000843
 21
-0.0873029977083
 31
-0.0771389976144
  0
LINE
  8
0
 10
-0.238851994276
 20
-0.0685100033879
 30
-0.0696659982204
 11
-0.108122996986
 21
-0.112675003707
 31
-0.0726850032806
  0
LINE
  8
0
 10
0.341181993484
 20
-0.0724970027804
 30
-0.0774760022759
 11
0.340999007225
 21
-0.217261001468
 31
-0.0774760022759
  0
LINE
  8
0
 10
-0.239026993513
 20
-0.207060992718
 30
-0.0696659982204
 11
-0.108122996986
 21
-0.112675003707
 31
-0.0726850032806
  0
LINE
  8
0
 10
-0.239026993513
 20
-0.207060992718
 30
-0.0696659982204
 11
-0.0462159998715
 21
-0.11657500267
 31
-0.0735099986196
  0
LINE
  8
0
 10
0.340999007225
 20
-0.217261001468
 30
-0.0774760022759
 11
0.146602004766
 21
-0.114963002503
 31
-0.0772679969668
  0
LINE
  8
0
 10
0.340999007225
 20
-0.217261001468
 30
-0.0774760022759
 11
0.0846780017018
 21
-0.118020996451
 31
-0.0764430016279
  0
LINE
  8
0
 10
-0.0462159998715
 20
-0.11657500267
 30
-0.0735099986196
 11
0.0846780017018
 21
-0.118020996451
 31
-0.0764430016279
  0
LINE
  8
0
 10
-0.239026993513
 20
-0.207060992718
 30
-0.0696659982204
 11
0.0846780017018
 21
-0.118020996451
 31
-0.0764430016279
  0
LINE
  8
0
 10
0.340999007225
 20
-0.217261001468
 30
-0.0774760022759
 11
-0.239026993513
 21
-0.207060992718
 31
-0.0696659982204
  0
LINE
  8
0
 10
0.268272995949
 20
-0.216866001487
 30
-0.0774789974093
 11
-0.239026993513
 21
-0.207060992718
 31
-0.0696659982204
  0
LINE
  8
0
 10
-0.238675996661
 20
0.0700419992208
 30
-0.0696659982204
 11
-0.107937000692
 21
0.113830000162
 31
-0.0726850032806
  0
LINE
  8
0
 10
-0.0772410035133
 20
-0.0851719975471
 30
-0.0728140026331
 11
-0.0771000012755
 21
0.0862729996443
 31
-0.0728140026331
  0
LINE
  8
0
 10
-0.238675996661
 20
0.0700419992208
 30
-0.0696659982204
 11
-0.0771000012755
 21
0.0862729996443
 31
-0.0728140026331
  0
LINE
  8
0
 10
-0.238675996661
 20
0.0700419992208
 30
-0.0696659982204
 11
-0.0772410035133
 21
-0.0851719975471
 31
-0.0728140026331
  0
LINE
  8
0
 10
-0.238851994276
 20
-0.0685100033879
 30
-0.0696659982204
 11
-0.238675996661
 21
0.0700419992208
 31
-0.0696659982204
  0
LINE
  8
0
 10
-0.238851994276
 20
-0.0685100033879
 30
-0.0696659982204
 11
-0.0772410035133
 21
-0.0851719975471
 31
-0.0728140026331
  0
LINE
  8
0
 10
-0.772283017635
 20
0.170846000314
 30
-0.065053999424
 11
-0.772711992264
 21
-0.168403998017
 31
-0.065053999424
  0
LINE
  8
0
 10
-0.772283017635
 20
0.170846000314
 30
-0.065053999424
 11
-0.78143197298
 21
-0.199459001422
 31
-0.0948769971728
  0
LINE
  8
0
 10
-0.780924022198
 20
0.201912000775
 30
-0.0948769971728
 11
-0.78143197298
 21
-0.199459001422
 31
-0.0948769971728
  0
LINE
  8
0
 10
-0.801456987858
 20
-0.199447005987
 30
-0.163668006659
 11
-0.780924022198
 21
0.201912000775
 31
-0.0948769971728
  0
LINE
  8
0
 10
-0.239026993513
 20
-0.207060992718
 30
-0.0696659982204
 11
-0.741719007492
 21
-0.200580000877
 31
-0.0657489970326
  0
LINE
  8
0
 10
-0.214046001434
 20
-0.21435700357
 30
-0.0742779970169
 11
-0.239026993513
 21
-0.207060992718
 31
-0.0696659982204
  0
LINE
  8
0
 10
-0.239026993513
 20
-0.207060992718
 30
-0.0696659982204
 11
-0.78143197298
 21
-0.199459001422
 31
-0.0948769971728
  0
LINE
  8
0
 10
-0.214046001434
 20
-0.21435700357
 30
-0.0742779970169
 11
-0.78143197298
 21
-0.199459001422
 31
-0.0948769971728
  0
LINE
  8
0
 10
-0.214609995484
 20
-0.214356005192
 30
-0.182883992791
 11
-0.214046001434
 21
-0.21435700357
 31
-0.0742779970169
  0
LINE
  8
0
 10
-0.214609995484
 20
-0.214356005192
 30
-0.182883992791
 11
-0.78143197298
 21
-0.199459001422
 31
-0.0948769971728
  0
LINE
  8
0
 10
-0.801456987858
 20
-0.199447005987
 30
-0.163668006659
 11
-0.78143197298
 21
-0.199459001422
 31
-0.0948769971728
  0
LINE
  8
0
 10
-0.214609995484
 20
-0.214356005192
 30
-0.182883992791
 11
-0.801456987858
 21
-0.199447005987
 31
-0.163668006659
  0
LINE
  8
0
 10
-0.741208016872
 20
0.202943995595
 30
-0.0657489970326
 11
-0.780924022198
 21
0.201912000775
 31
-0.0948769971728
  0
LINE
  8
0
 10
-0.238500997424
 20
0.208593994379
 30
-0.0696659982204
 11
-0.780924022198
 21
0.201912000775
 31
-0.0948769971728
  0
LINE
  8
0
 10
-0.213501006365
 20
0.215582996607
 30
-0.0742779970169
 11
-0.238500997424
 21
0.208593994379
 31
-0.0696659982204
  0
LINE
  8
0
 10
-0.213501006365
 20
0.215582996607
 30
-0.0742779970169
 11
-0.780924022198
 21
0.201912000775
 31
-0.0948769971728
  0
LINE
  8
0
 10
-0.214065000415
 20
0.215582996607
 30
-0.182883992791
 11
-0.213501006365
 21
0.215582996607
 31
-0.0742779970169
  0
LINE
  8
0
 10
-0.214065000415
 20
0.215582996607
 30
-0.182883992791
 11
-0.780924022198
 21
0.201912000775
 31
-0.0948769971728
  0
LINE
  8
0
 10
-0.80094897747
 20
0.20192399621
 30
-0.163668006659
 11
-0.780924022198
 21
0.201912000775
 31
-0.0948769971728
  0
LINE
  8
0
 10
-0.214065000415
 20
0.215582996607
 30
-0.182883992791
 11
-0.80094897747
 21
0.20192399621
 31
-0.163668006659
  0
LINE
  8
0
 10
0.711645007133
 20
0.218289002776
 30
0.0236939992756
 11
1.03111505508
 21
0.210563004017
 31
0.0200360007584
  0
LINE
  8
0
 10
0.711459994316
 20
0.0724219977856
 30
0.0236939992756
 11
1.03111505508
 21
0.210563004017
 31
0.0200360007584
  0
LINE
  8
0
 10
0.711459994316
 20
0.0724219977856
 30
0.0236939992756
 11
1.03057897091
 21
-0.212466999888
 31
0.0200360007584
  0
LINE
  8
0
 10
0.711275994778
 20
-0.0734440013766
 30
0.0236939992756
 11
0.711459994316
 21
0.0724219977856
 31
0.0236939992756
  0
LINE
  8
0
 10
0.711275994778
 20
-0.0734440013766
 30
0.0236939992756
 11
1.03057897091
 21
-0.212466999888
 31
0.0200360007584
  0
LINE
  8
0
 10
0.341549009085
 20
0.217030003667
 30
-0.0774760022759
 11
0.341365993023
 21
0.0722670033574
 31
-0.0774760022759
  0
LINE
  8
0
 10
0.268822014332
 20
0.216797992587
 30
-0.0774789974093
 11
0.341549009085
 21
0.217030003667
 31
-0.0774760022759
  0
LINE
  8
0
 10
0.268822014332
 20
0.216797992587
 30
-0.0774789974093
 11
0.341365993023
 21
0.0722670033574
 31
-0.0774760022759
  0
LINE
  8
0
 10
-0.213501006365
 20
0.215582996607
 30
-0.0742779970169
 11
0.268822014332
 21
0.216797992587
 31
-0.0774789974093
  0
LINE
  8
0
 10
-0.213501006365
 20
0.215582996607
 30
-0.0742779970169
 11
0.341365993023
 21
0.0722670033574
 31
-0.0774760022759
  0
LINE
  8
0
 10
-0.238500997424
 20
0.208593994379
 30
-0.0696659982204
 11
-0.238675996661
 21
0.0700419992208
 31
-0.0696659982204
  0
LINE
  8
0
 10
-0.238500997424
 20
0.208593994379
 30
-0.0696659982204
 11
-0.107937000692
 21
0.113830000162
 31
-0.0726850032806
  0
LINE
  8
0
 10
-0.238500997424
 20
0.208593994379
 30
-0.0696659982204
 11
0.0848710015416
 21
0.118431001902
 31
-0.0764430016279
  0
LINE
  8
0
 10
-0.238500997424
 20
0.208593994379
 30
-0.0696659982204
 11
-0.0460230000317
 21
0.117544002831
 31
-0.0735099986196
  0
LINE
  8
0
 10
-0.0460230000317
 20
0.117544002831
 30
-0.0735099986196
 11
0.0848710015416
 21
0.118431001902
 31
-0.0764430016279
  0
LINE
  8
0
 10
0.146790996194
 20
0.11518599838
 30
-0.0772679969668
 11
0.0848710015416
 21
0.118431001902
 31
-0.0764430016279
  0
LINE
  8
0
 10
0.341365993023
 20
0.0722670033574
 30
-0.0774760022759
 11
-0.238500997424
 21
0.208593994379
 31
-0.0696659982204
  0
LINE
  8
0
 10
-0.238500997424
 20
0.208593994379
 30
-0.0696659982204
 11
0.146790996194
 21
0.11518599838
 31
-0.0772679969668
  0
LINE
  8
0
 10
2.18859910965
 20
-0.0023340000771
 30
-0.232068002224
 11
2.18738389015
 21
0.168311998248
 31
-0.231970995665
  0
LINE
  8
0
 10
2.18859910965
 20
-0.0023340000771
 30
-0.232068002224
 11
2.18743109703
 21
0.167732000351
 31
-0.241706997156
  0
LINE
  8
0
 10
2.18859910965
 20
-0.0023340000771
 30
-0.232068002224
 11
2.1790599823
 21
-0.00232900003903
 31
-0.348188012838
  0
LINE
  8
0
 10
2.18743109703
 20
0.167732000351
 30
-0.241706997156
 11
2.18258595467
 21
0.159878000617
 31
-0.313030987978
  0
LINE
  8
0
 10
2.1790599823
 20
-0.00232900003903
 30
-0.348188012838
 11
2.18743109703
 21
0.167732000351
 31
-0.241706997156
  0
LINE
  8
0
 10
2.18258595467
 20
0.159878000617
 30
-0.313030987978
 11
2.18037700653
 21
0.146552994847
 31
-0.330496996641
  0
LINE
  8
0
 10
2.1790599823
 20
-0.00232900003903
 30
-0.348188012838
 11
2.18258595467
 21
0.159878000617
 31
-0.313030987978
  0
LINE
  8
0
 10
2.18037700653
 20
0.146552994847
 30
-0.330496996641
 11
2.17822909355
 21
0.119047001004
 31
-0.340837985277
  0
LINE
  8
0
 10
2.1790599823
 20
-0.00232900003903
 30
-0.348188012838
 11
2.18037700653
 21
0.146552994847
 31
-0.330496996641
  0
LINE
  8
0
 10
2.1790599823
 20
-0.00232900003903
 30
-0.348188012838
 11
2.17822909355
 21
0.119047001004
 31
-0.340837985277
  0
LINE
  8
0
 10
2.1790599823
 20
-0.00232900003903
 30
-0.348188012838
 11
2.17914199829
 21
0.0691500008106
 31
-0.348188012838
  0
LINE
  8
0
 10
-0.214065000415
 20
0.215582996607
 30
-0.182883992791
 11
-0.444981008768
 21
0.206477999687
 31
-0.227078005672
  0
LINE
  8
0
 10
0.268258005381
 20
0.216799005866
 30
-0.186085000634
 11
-0.214065000415
 21
0.215582996607
 31
-0.182883992791
  0
LINE
  8
0
 10
0.340985000134
 20
0.217031002045
 30
-0.186082005501
 11
0.268258005381
 21
0.216799005866
 31
-0.186085000634
  0
LINE
  8
0
 10
0.268258005381
 20
0.216799005866
 30
-0.186085000634
 11
0.710254013538
 21
0.218290001154
 31
-0.191011995077
  0
LINE
  8
0
 10
0.268258005381
 20
0.216799005866
 30
-0.186085000634
 11
-0.444981008768
 21
0.206477999687
 31
-0.227078005672
  0
LINE
  8
0
 10
0.710254013538
 20
0.218290001154
 30
-0.191011995077
 11
-0.444981008768
 21
0.206477999687
 31
-0.227078005672
  0
LINE
  8
0
 10
2.18738389015
 20
0.168311998248
 30
-0.231970995665
 11
1.65680897236
 21
0.196122005582
 31
-0.232050999999
  0
LINE
  8
0
 10
2.18743109703
 20
0.167732000351
 30
-0.241706997156
 11
2.18738389015
 21
0.168311998248
 31
-0.231970995665
  0
LINE
  8
0
 10
1.65680897236
 20
0.196122005582
 30
-0.232050999999
 11
1.65692102909
 21
0.193645000458
 31
-0.245140999556
  0
LINE
  8
0
 10
2.18743109703
 20
0.167732000351
 30
-0.241706997156
 11
1.65680897236
 21
0.196122005582
 31
-0.232050999999
  0
LINE
  8
0
 10
2.18743109703
 20
0.167732000351
 30
-0.241706997156
 11
1.65692102909
 21
0.193645000458
 31
-0.245140999556
  0
LINE
  8
0
 10
2.18743109703
 20
0.167732000351
 30
-0.241706997156
 11
1.65619301796
 21
0.183144003153
 31
-0.276966005564
  0
LINE
  8
0
 10
1.65632605553
 20
-0.199333995581
 30
-0.232050001621
 11
2.18738389015
 21
0.168311998248
 31
-0.231970995665
  0
LINE
  8
0
 10
1.65632605553
 20
-0.199333995581
 30
-0.232050001621
 11
2.18859910965
 21
-0.0023340000771
 31
-0.232068002224
  0
LINE
  8
0
 10
1.65632605553
 20
-0.199333995581
 30
-0.232050001621
 11
2.18698000908
 21
-0.174096003175
 31
-0.231970995665
  0
LINE
  8
0
 10
1.65632605553
 20
-0.199333995581
 30
-0.232050001621
 11
2.18704199791
 21
-0.172397002578
 31
-0.241706997156
  0
LINE
  8
0
 10
1.65644395351
 20
-0.196858003736
 30
-0.245140999556
 11
1.65632605553
 21
-0.199333995581
 31
-0.232050001621
  0
LINE
  8
0
 10
1.65574204922
 20
-0.186355993152
 30
-0.276966005564
 11
2.18704199791
 21
-0.172397002578
 31
-0.241706997156
  0
LINE
  8
0
 10
1.65644395351
 20
-0.196858003736
 30
-0.245140999556
 11
2.18704199791
 21
-0.172397002578
 31
-0.241706997156
  0
LINE
  8
0
 10
2.17914199829
 20
0.0691500008106
 30
-0.348188012838
 11
1.65742397308
 21
0.0756419971585
 31
-0.395036011934
  0
LINE
  8
0
 10
1.65723598003
 20
-0.0788580030203
 30
-0.395036011934
 11
2.17914199829
 21
0.0691500008106
 31
-0.348188012838
  0
LINE
  8
0
 10
1.65723598003
 20
-0.0788580030203
 30
-0.395036011934
 11
2.1790599823
 21
-0.00232900003903
 31
-0.348188012838
  0
LINE
  8
0
 10
1.65723598003
 20
-0.0788580030203
 30
-0.395036011934
 11
2.17897796631
 21
-0.0738070011139
 31
-0.348188012838
  0
LINE
  8
0
 10
1.22875595093
 20
0.0342219993472
 30
-0.442934006453
 11
1.54768800735
 21
0.0744879990816
 31
-0.404130011797
  0
LINE
  8
0
 10
1.54749894142
 20
-0.0774239972234
 30
-0.404130011797
 11
1.54768800735
 21
0.0744879990816
 31
-0.404130011797
  0
LINE
  8
0
 10
1.54749894142
 20
-0.0774239972234
 30
-0.404130011797
 11
1.22875595093
 21
0.0342219993472
 31
-0.442934006453
  0
LINE
  8
0
 10
1.2286670208
 20
-0.0363590009511
 30
-0.442934006453
 11
1.22875595093
 21
0.0342219993472
 31
-0.442934006453
  0
LINE
  8
0
 10
1.54749894142
 20
-0.0774239972234
 30
-0.404130011797
 11
1.2286670208
 21
-0.0363590009511
 31
-0.442934006453
  0
LINE
  8
0
 10
1.22860503197
 20
-0.0853440016508
 30
-0.442934006453
 11
1.54749894142
 21
-0.0774239972234
 31
-0.404130011797
  0
LINE
  8
0
 10
0.850673019886
 20
-0.000592999975197
 30
-0.474671006203
 11
0.850794017315
 21
0.0944840013981
 31
-0.474671006203
  0
LINE
  8
0
 10
0.850673019886
 20
-0.000592999975197
 30
-0.474671006203
 11
-0.444141000509
 21
0.0919839963317
 31
-0.474705010653
  0
LINE
  8
0
 10
-0.44437199831
 20
-0.0904849991202
 30
-0.474705010653
 11
-0.444141000509
 21
0.0919839963317
 31
-0.474705010653
  0
LINE
  8
0
 10
-0.44437199831
 20
-0.0904849991202
 30
-0.474705010653
 11
0.850673019886
 21
-0.000592999975197
 31
-0.474671006203
  0
LINE
  8
0
 10
0.850552976131
 20
-0.0956699997187
 30
-0.474671006203
 11
0.850673019886
 21
-0.000592999975197
 31
-0.474671006203
  0
LINE
  8
0
 10
-0.44437199831
 20
-0.0904849991202
 30
-0.474705010653
 11
0.850552976131
 21
-0.0956699997187
 31
-0.474671006203
  0
LINE
  8
0
 10
-0.445502012968
 20
-0.20497700572
 30
-0.227078005672
 11
0.267708986998
 21
-0.216866001487
 31
-0.186085000634
  0
LINE
  8
0
 10
0.267708986998
 20
-0.216866001487
 30
-0.186085000634
 11
0.340434998274
 21
-0.21726000309
 31
-0.186082005501
  0
LINE
  8
0
 10
0.709699988365
 20
-0.219309002161
 30
-0.191011995077
 11
0.267708986998
 21
-0.216866001487
 31
-0.186085000634
  0
LINE
  8
0
 10
0.757462024689
 20
-0.210094004869
 30
-0.227044001222
 11
0.709699988365
 21
-0.219309002161
 31
-0.191011995077
  0
LINE
  8
0
 10
-0.445502012968
 20
-0.20497700572
 30
-0.227078005672
 11
0.709699988365
 21
-0.219309002161
 31
-0.191011995077
  0
LINE
  8
0
 10
-0.445502012968
 20
-0.20497700572
 30
-0.227078005672
 11
0.757462024689
 21
-0.210094004869
 31
-0.227044001222
  0
LINE
  8
0
 10
2.18698000908
 20
-0.174096003175
 30
-0.231970995665
 11
2.18859910965
 21
-0.0023340000771
 31
-0.232068002224
  0
LINE
  8
0
 10
2.18698000908
 20
-0.174096003175
 30
-0.231970995665
 11
2.18704199791
 21
-0.172397002578
 31
-0.241706997156
  0
LINE
  8
0
 10
2.18859910965
 20
-0.0023340000771
 30
-0.232068002224
 11
2.18704199791
 21
-0.172397002578
 31
-0.241706997156
  0
LINE
  8
0
 10
2.1790599823
 20
-0.00232900003903
 30
-0.348188012838
 11
2.18704199791
 21
-0.172397002578
 31
-0.241706997156
  0
LINE
  8
0
 10
2.18221402168
 20
-0.164536997676
 30
-0.313030987978
 11
2.18704199791
 21
-0.172397002578
 31
-0.241706997156
  0
LINE
  8
0
 10
2.1790599823
 20
-0.00232900003903
 30
-0.348188012838
 11
2.18221402168
 21
-0.164536997676
 31
-0.313030987978
  0
LINE
  8
0
 10
2.18003606796
 20
-0.151208996773
 30
-0.330496996641
 11
2.18221402168
 21
-0.164536997676
 31
-0.313030987978
  0
LINE
  8
0
 10
2.1790599823
 20
-0.00232900003903
 30
-0.348188012838
 11
2.18003606796
 21
-0.151208996773
 31
-0.330496996641
  0
LINE
  8
0
 10
2.17795109749
 20
-0.123700998724
 30
-0.340837985277
 11
2.18003606796
 21
-0.151208996773
 31
-0.330496996641
  0
LINE
  8
0
 10
2.1790599823
 20
-0.00232900003903
 30
-0.348188012838
 11
2.17795109749
 21
-0.123700998724
 31
-0.340837985277
  0
LINE
  8
0
 10
2.17897796631
 20
-0.0738070011139
 30
-0.348188012838
 11
2.17795109749
 21
-0.123700998724
 31
-0.340837985277
  0
LINE
  8
0
 10
2.1790599823
 20
-0.00232900003903
 30
-0.348188012838
 11
2.17897796631
 21
-0.0738070011139
 31
-0.348188012838
  0
LINE
  8
0
 10
-1.93121504784
 20
0.00251500005834
 30
-0.445683985949
 11
-1.92248296738
 21
0.00590099999681
 31
-0.44020101428
  0
LINE
  8
0
 10
-1.93121504784
 20
0.00251500005834
 30
-0.445683985949
 11
-1.92249202728
 21
-0.00089000002481
 31
-0.44020101428
  0
LINE
  8
0
 10
-1.93124699593
 20
-0.0228070002049
 30
-0.445683985949
 11
-1.92249202728
 21
-0.00089000002481
 31
-0.44020101428
  0
LINE
  8
0
 10
-1.49033999443
 20
-0.129764005542
 30
-0.136614993215
 11
-1.57793498039
 21
0.117867998779
 31
-0.132394999266
  0
LINE
  8
0
 10
-1.49033999443
 20
-0.129764005542
 30
-0.136614993215
 11
-1.75820100307
 21
0.0860129967332
 31
-0.123412996531
  0
LINE
  8
0
 10
-2.18859791756
 20
0.00279999990016
 30
-0.0993259996176
 11
-1.75820100307
 21
0.0860129967332
 31
-0.123412996531
  0
LINE
  8
0
 10
-1.49033999443
 20
-0.129764005542
 30
-0.136614993215
 11
-2.18859791756
 21
0.00279999990016
 31
-0.0993259996176
  0
LINE
  8
0
 10
-1.75841200352
 20
-0.0813869982958
 30
-0.123414002359
 11
-2.18859791756
 21
0.00279999990016
 31
-0.0993259996176
  0
LINE
  8
0
 10
-1.57822799683
 20
-0.113643996418
 30
-0.132396996021
 11
-2.18859791756
 21
0.00279999990016
 31
-0.0993259996176
  0
LINE
  8
0
 10
-1.48971104622
 20
-0.00487999990582
 30
-0.474491000175
 11
-1.48969304562
 21
0.00890799984336
 31
-0.474491000175
  0
LINE
  8
0
 10
-1.48971104622
 20
-0.00487999990582
 30
-0.474491000175
 11
-1.48971700668
 21
-0.0101030003279
 31
-0.481384009123
  0
LINE
  8
0
 10
-1.48971700668
 20
-0.0101030003279
 30
-0.481384009123
 11
-1.48969304562
 21
0.00890799984336
 31
-0.474491000175
  0
LINE
  8
0
 10
-1.48971700668
 20
-0.0101030003279
 30
-0.481384009123
 11
-1.48968696594
 21
0.0141319995746
 31
-0.481384009123
  0
LINE
  8
0
 10
-1.48971700668
 20
-0.0101030003279
 30
-0.481384009123
 11
-1.48971700668
 21
-0.010048000142
 31
-0.483581990004
  0
LINE
  8
0
 10
-1.48971700668
 20
-0.010048000142
 30
-0.483581990004
 11
-1.48968696594
 21
0.0141319995746
 31
-0.481384009123
  0
LINE
  8
0
 10
-1.48971700668
 20
-0.010048000142
 30
-0.483581990004
 11
-1.48968696594
 21
0.0140760000795
 31
-0.483581990004
  0
LINE
  8
0
 10
-1.48970198631
 20
0.00201399996877
 30
-0.485110998154
 11
-1.48968696594
 21
0.0140760000795
 31
-0.483581990004
  0
LINE
  8
0
 10
-1.48970997334
 20
-0.00424899999052
 30
-0.485125988722
 11
-1.48968696594
 21
0.0140760000795
 31
-0.483581990004
  0
LINE
  8
0
 10
-1.48970997334
 20
-0.00424899999052
 30
-0.485125988722
 11
-1.48970198631
 21
0.00201399996877
 31
-0.485110998154
  0
LINE
  8
0
 10
-1.48969399929
 20
0.00827699992806
 30
-0.485125988722
 11
-1.48968696594
 21
0.0140760000795
 31
-0.483581990004
  0
LINE
  8
0
 10
-1.98790001869
 20
-0.00736699998379
 30
-0.490247994661
 11
-1.98791396618
 21
-0.0179910007864
 31
-0.49925801158
  0
LINE
  8
0
 10
-1.98790001869
 20
-0.00736699998379
 30
-0.490247994661
 11
-1.98787498474
 21
0.0125230001286
 31
-0.490247994661
  0
LINE
  8
0
 10
-1.98791396618
 20
-0.0179910007864
 30
-0.49925801158
 11
-1.98787498474
 21
0.0125230001286
 31
-0.490247994661
  0
LINE
  8
0
 10
-1.98786103725
 20
0.0231480002403
 30
-0.49925801158
 11
-1.98787498474
 21
0.0125230001286
 31
-0.490247994661
  0
LINE
  8
0
 10
-1.98791396618
 20
-0.0179910007864
 30
-0.49925801158
 11
-1.98786103725
 21
0.0231480002403
 31
-0.49925801158
  0
LINE
  8
0
 10
-1.98791396618
 20
-0.017888000235
 30
-0.511913001537
 11
-1.98786103725
 21
0.0231480002403
 31
-0.49925801158
  0
LINE
  8
0
 10
-1.98791396618
 20
-0.017888000235
 30
-0.511913001537
 11
-1.98786103725
 21
0.0230449996889
 31
-0.511913001537
  0
LINE
  8
0
 10
-1.98790001869
 20
-0.00711800018325
 30
-0.520801007748
 11
-1.98786103725
 21
0.0230449996889
 31
-0.511913001537
  0
LINE
  8
0
 10
-1.98788797855
 20
0.00257800007239
 30
-0.520714998245
 11
-1.98786103725
 21
0.0230449996889
 31
-0.511913001537
  0
ENDSEC
  0
EOF
